<svg xmlns="http://www.w3.org/2000/svg" xmlns:ev="http://www.w3.org/2001/xml-events" xmlns:xlink="http://www.w3.org/1999/xlink" width="2064" height="1584" class="st23" color-interpolation-filters="sRGB" viewBox="0 0 1548 1188" xml:space="preserve"><style type="text/css">.st1{fill:#3c63ac;stroke:#31528f;stroke-width:.75}.st2{fill:#feffff;font-family:Calibri;font-size:.666664em}.st3{marker-end:url(#mrkr4-9);stroke:#4672c4;stroke-linecap:round;stroke-linejoin:round;stroke-width:1}.st4,.st5{fill:#4672c4}.st4{fill-opacity:1;stroke:#4672c4;stroke-opacity:1;stroke-width:.28409090909091}.st5{stroke:#c8c8c8;stroke-width:.25}.st6{font-size:1em}.st7{fill:#fff;stroke:none;stroke-linecap:butt}.st8{fill:#3c63ac;font-family:Calibri;font-size:.666664em}.st9{fill:#fff;stroke:none;stroke-linecap:butt;stroke-width:7.2}.st10{fill:url(#grad0-57)}.st11{stroke:#3d64ac;stroke-width:.75}.st12{fill:#3d64ac;font-family:Calibri;font-size:.666664em}.st13{fill:#ed7d31;stroke:#31528f;stroke-width:.75}.st14{fill:#007f7f;stroke:#c8c8c8;stroke-width:.25}.st15{font-size:.749991em}.st16,.st17,.st18{fill:#7030a0;stroke:#c8c8c8;stroke-width:.25}.st17,.st18{stroke:#31528f;stroke-width:.75}.st18{fill:#007f7f}.st19{marker-end:url(#mrkr4-171);stroke:#4672c4;stroke-linecap:round;stroke-linejoin:round;stroke-width:1}.st20{fill:#70ad47;stroke:#31528f;stroke-width:.75}.st21,.st22{stroke:#4672c4;stroke-linecap:round;stroke-linejoin:round;stroke-width:1}.st21{marker-end:url(#mrkr4-9);stroke-dasharray:3,3}.st22{marker-end:url(#mrkr13-378);marker-start:url(#mrkr13-376)}.st23{fill:none;fill-rule:evenodd;font-size:12px;overflow:visible;stroke-linecap:square;stroke-miterlimit:3}</style><defs id="Patterns_And_Gradients"><linearGradient id="grad0-57" x1="0" x2="1" y1="0" y2="0" gradientTransform="rotate(60 0.5 0.5)"><stop offset="0" stop-color="#e8ebf4" stop-opacity="1"/><stop offset=".24" stop-color="#f4f5f9" stop-opacity="1"/><stop offset=".54" stop-color="#feffff" stop-opacity="1"/></linearGradient></defs><defs id="Markers"><g id="lend4"><path d="M 2 1 L 0 0 L 2 -1 L 2 1" style="stroke:none"/></g><marker id="mrkr4-9" class="st4" markerUnits="strokeWidth" orient="auto" overflow="visible" refX="-7.04"><use transform="scale(-3.52,-3.52)" xlink:href="#lend4"/></marker><marker id="mrkr4-171" class="st4" markerUnits="strokeWidth" orient="auto" overflow="visible" refX="-6.68"><use transform="scale(-3.52,-3.52)" xlink:href="#lend4"/></marker><g id="lend13"><path d="M 3 1 L 0 0 L 3 -1 L 3 1" style="stroke:none"/></g><marker id="mrkr13-376" class="st4" markerUnits="strokeWidth" orient="auto" overflow="visible" refX="10.2"><use transform="scale(3.52)" xlink:href="#lend13"/></marker><marker id="mrkr13-378" class="st4" markerUnits="strokeWidth" orient="auto" overflow="visible" refX="-10.56"><use transform="scale(-3.52,-3.52)" xlink:href="#lend13"/></marker></defs><g><title>Page-1</title><g id="shape1-1" transform="translate(76.5,-1125)"><title>Start/End</title><desc>User has idea!</desc><path d="M13.5 1188 L58.5 1188 A13.5 13.5 -180 0 0 58.5 1161 L13.5 1161 A13.5 13.5 -180 1 0 13.5 1188 Z" class="st1"/><text x="12.87" y="1176.9" class="st2">User has idea!</text></g><g id="shape5-4" transform="translate(103.5,-1125)"><title>Dynamic connector</title><path d="M9 1188 L9 1216.96" class="st3"/></g><g id="shape4-10" transform="translate(76.5,-1035)"><title>Process</title><desc>User files issue with rationale and use cases</desc><rect width="72" height="54" x="0" y="1134" class="st5"/><text x="3.8" y="1153.8" class="st2">User files issue with <tspan x="7.81" class="st6" dy="1.2em">rationale and use </tspan><tspan x="27.27" class="st6" dy="1.2em">cases</tspan></text></g><g id="shape9-15" transform="translate(103.5,-1035)"><title>Dynamic connector.9</title><path d="M9 1188 L9 1216.96" class="st3"/></g><g id="shape8-20" transform="translate(76.5,-945)"><title>Process.8</title><desc>Maintainers label issue with Area Label</desc><rect width="72" height="54" x="0" y="1134" class="st5"/><text x="7.67" y="1153.8" class="st2">Maintainers label <tspan x="11.22" class="st6" dy="1.2em">issue with Area </tspan><tspan x="27.39" class="st6" dy="1.2em">Label</tspan></text></g><g id="shape13-25" transform="translate(103.5,-846)"><title>Dynamic connector.13</title><desc>No</desc><path d="M9 1188 L9 1219.21" class="st3"/><rect width="9.383" height="9.6" x="4.309" y="1202.33" class="st7"/><text x="4.31" y="1209.53" class="st8">No</text></g><g id="shape12-32" transform="translate(76.5,-753.75)"><title>Process.12</title><desc>Users discuss idea “exhaustively” (TBD by WGs)</desc><rect width="72" height="54" x="0" y="1134" class="st5"/><text x="6.68" y="1153.8" class="st2">Users discuss idea <tspan x="3.76" class="st6" dy="1.2em">“</tspan>exhaustively” (TBD <tspan x="22.32" class="st6" dy="1.2em">by WGs)</tspan></text></g><g id="shape15-37" transform="translate(121.5,-753.75)"><title>Dynamic connector.15</title><path d="M-9 1188 L-9 1198.96" class="st3"/></g><g id="shape14-42" transform="translate(66.375,-643.5)"><title>Decision</title><desc>Do the WGs think the idea has potential / is worth pursuing?</desc><path d="M0 1141.87 L46.12 1095.75 L92.25 1141.87 L46.12 1188 L0 1141.87 Z" class="st1"/><text x="11.15" y="1134.68" class="st2">Do the WGs think the <tspan x="11.24" class="st6" dy="1.2em">idea has potential / is </tspan><tspan x="19.4" class="st6" dy="1.2em">worth pursuing?</tspan></text></g><g id="shape23-47" transform="translate(103.5,-643.5)"><title>Dynamic connector.23</title><desc>No</desc><path d="M9 1188 L9 1216.96" class="st3"/><rect width="9.383" height="9.6" x="4.309" y="1201.2" class="st9"/><text x="4.31" y="1208.4" class="st8">No</text></g><g id="shape22-54" transform="translate(76.5,-553.5)"><title>Subprocess</title><desc>Committee appeals process (TBD)</desc><path d="M0 1188 L72 1188 L72 1134 L0 1134 L0 1188 Z" class="st10"/><path d="M0 1188 L72 1188 L72 1134 L0 1134 L0 1188" class="st11"/><path d="M9 1188 L9 1134" class="st11"/><path d="M63 1188 L63 1134" class="st11"/><text x="17.79" y="1153.8" class="st12">Committee <tspan x="23.49" class="st6" dy="1.2em">appeals </tspan><tspan x="13.67" class="st6" dy="1.2em">process (TBD)</tspan></text></g><g id="shape27-64" transform="translate(103.5,-553.5)"><title>Dynamic connector.27</title><desc>Appeal unsuccessful</desc><path d="M9 1188 L9 1211.56" class="st3"/><rect width="65.714" height="9.6" x="-23.857" y="1198.5" class="st9"/><text x="-23.86" y="1205.7" class="st8">Appeal unsuccessful</text></g><g id="shape26-71" transform="translate(76.5,-485.1)"><title>Start/End.26</title><desc>Issue is closed, idea not pursued within PS repo</desc><path d="M18 1188 L54 1188 A18 18.9 -180 0 0 54 1150.2 L18 1150.2 A18 18.9 -180 1 0 18 1188 Z" class="st13"/><text x="4.28" y="1161.9" class="st2">Issue is closed, idea <tspan x="5.05" class="st6" dy="1.2em">not pursued within </tspan><tspan x="23.6" class="st6" dy="1.2em">PS repo</tspan></text></g><g id="shape30-76" transform="translate(148.5,-580.5)"><title>Dynamic connector.30</title><desc>Successful appeal</desc><path d="M0 1188 L156.16 1083.13" class="st3"/><rect width="57.058" height="9.6" x="52.471" y="1128.8" class="st9"/><text x="52.47" y="1136" class="st8">Successful appeal</text></g><g id="shape32-83" transform="translate(76.5,-400.5)"><title>Process.32</title><desc>Implement and release the implementation outside of PS</desc><rect width="72" height="54" x="0" y="1134" class="st5"/><text x="11.14" y="1149" class="st2">Implement and <tspan x="17.9" class="st6" dy="1.2em">release the </tspan><tspan x="9.87" class="st6" dy="1.2em">implementation </tspan><tspan x="14.83" class="st6" dy="1.2em">outside of PS</tspan></text></g><g id="shape43-89" transform="translate(310.5,-653.3)"><title>Process.43</title><desc>WGs label “RFC required”; Both paths are (eventually) require...</desc><rect width="72" height="72" x="0" y="1116" class="st5"/><text x="10.88" y="1125.6" class="st2">WGs label “RFC <tspan x="10.63" class="st6" dy="1.2em">required</tspan>”; Both <tspan x="20.77" class="st6" dy="1.2em">paths are </tspan><tspan x="16.68" class="st6" dy="1.2em">(eventually) </tspan><tspan x="5.08" class="st6" dy="1.2em">required; author(s) </tspan><tspan x="4.43" class="st6" dy="1.2em">can choose to do in </tspan><tspan x="20.28" class="st6" dy="1.2em">any order</tspan></text></g><g id="shape46-98" transform="translate(337.5,-725.3)"><title>Dynamic connector.46</title><path d="M9 1188 L9 1136.94" class="st3"/></g><g id="shape45-103" transform="translate(310.5,-783.4)"><title>Process.45</title><desc>Contributor writes and publishes RFC as draft PR in PowerShel...</desc><rect width="72" height="72" x="0" y="1116" class="st14"/><text x="5.99" y="1131.6" class="st2">Contributor writes <tspan x="2.18" class="st6" dy="1.2em">and publishes RFC as </tspan><tspan x="18.96" class="st6" dy="1.2em">draft PR in </tspan><tspan x="10.45" class="st6" dy="1.2em">PowerShell</tspan>-RFC<tspan x="5.26" class="st15" dy="1.3em">(add reference in original </tspan><tspan x="28.99" class="st15" dy="1.5em">issue)</tspan></text></g><g id="shape48-111" transform="translate(337.5,-653.3)"><title>Dynamic connector.48</title><path d="M9 1188 L9 1203.13" class="st3"/></g><g id="shape47-116" transform="translate(310.5,-541.125)"><title>Process.47</title><desc>Contributor publishes PR with WIP and/or prototype code as dr...</desc><rect width="72" height="90" x="0" y="1098" class="st16"/><text x="16.96" y="1109.4" class="st2">Contributor <tspan x="7.37" class="st6" dy="1.2em">publishes PR with </tspan><tspan x="17.29" class="st6" dy="1.2em">WIP and/or </tspan><tspan x="6.52" class="st6" dy="1.2em">prototype code as </tspan><tspan x="18.96" class="st6" dy="1.2em">draft PR in </tspan><tspan x="9.31" class="st6" dy="1.2em">PowerShell repo</tspan><tspan x="5.26" class="st15" dy="1.3em">(add reference in original </tspan><tspan x="8.52" class="st15" dy="1.2em">issue, Maintainers add </tspan><tspan x="16.15" class="st15" dy="1.5em">`Proposal` label)</tspan></text></g><g id="shape50-127" transform="translate(382.5,-810.4)"><title>Dynamic connector.50</title><path d="M0 1179 L19.96 1179" class="st3"/></g><g id="shape49-132" transform="translate(409.5,-792.4)"><title>Process.49</title><desc>WGs, contributors, and any others have discussion about RFC f...</desc><rect width="72" height="54" x="0" y="1134" class="st14"/><text x="5.29" y="1149" class="st2">WGs, contributors, <tspan x="3.03" class="st6" dy="1.2em">and any others have </tspan><tspan x="8.89" class="st6" dy="1.2em">discussion about </tspan><tspan x="3.09" class="st6" dy="1.2em">RFC for &gt;= 2 months</tspan></text></g><g id="shape52-138" transform="translate(481.5,-810.4)"><title>Dynamic connector.52</title><path d="M0 1179 L24.46 1179" class="st3"/></g><g id="shape51-143" transform="translate(513,-792.4)"><title>Process.51</title><desc>Author marks RFC PR as non-draft</desc><rect width="72" height="54" x="0" y="1134" class="st14"/><text x="6.8" y="1158.6" class="st2">Author marks RFC <tspan x="10.96" class="st6" dy="1.2em">PR as non</tspan>-draft</text></g><g id="shape56-147" transform="translate(382.5,-577.125)"><title>Dynamic connector.56</title><path d="M0 1179 L24.46 1179" class="st3"/></g><g id="shape55-152" transform="translate(414,-555.75)"><title>Decision.55</title><desc>Does the code PR meet WG and Maintainer standards?</desc><path d="M0 1157.63 L40.5 1127.25 L81 1157.63 L40.5 1188 L0 1157.63 Z" class="st17"/><text x="26.04" y="1145.62" class="st2">Does the <tspan x="11.06" class="st6" dy="1.2em">code PR meet WG </tspan><tspan x="15.46" class="st6" dy="1.2em">and Maintainer </tspan><tspan x="22.65" class="st6" dy="1.2em">standards?</tspan></text></g><g id="shape65-158" transform="translate(482.063,-347.625)"><title>Decision.65</title><desc>Is the RFC accepted and matching the implemen-tation?</desc><path d="M0 1143 L36 1098 L72 1143 L36 1188 L0 1143 Z" class="st18"/><text x="33.43" y="1121.4" class="st2">Is<tspan x="22.62" class="st6" dy="1.2em"> </tspan>the RFC <tspan x="14.15" class="st6" dy="1.2em">accepted and </tspan><tspan x="14.52" class="st6" dy="1.2em">matching the </tspan><tspan x="18.37" class="st6" dy="1.2em">implemen</tspan>-<tspan x="24.42" class="st6" dy="1.2em">tation?</tspan></text></g><g id="shape67-166" transform="translate(482.063,-392.625)"><title>Dynamic connector.67</title><desc>No</desc><path d="M0 1188 C-18 1188 -14.44 1203.6 0.71 1223.06 C12.55 1238.27 31.47 1255.85 35.31 1240.01 L35.34 1239.65" class="st19"/><rect width="9.383" height="9.6" x="-7.172" y="1213.98" class="st9"/><text x="-7.17" y="1221.18" class="st8">No</text></g><g id="shape69-174" transform="translate(554.063,-401.625)"><title>Dynamic connector.69</title><path d="M0 1197 L28.96 1197" class="st3"/></g><g id="shape68-179" transform="translate(590.063,-379.125)"><title>Start/End.68</title><desc>Merge as non-experimental code</desc><path d="M13.5 1188 L58.5 1188 A13.5 13.5 -180 0 0 58.5 1161 L13.5 1161 A13.5 13.5 -180 1 0 13.5 1188 Z" class="st20"/><text x="12.5" y="1172.1" class="st2">Merge as non-<tspan x="5.62" class="st6" dy="1.2em">experimental code</tspan></text></g><g id="shape71-183" transform="translate(585,-810.4)"><title>Dynamic connector.71</title><path d="M0 1179 L28.96 1179" class="st3"/></g><g id="shape70-188" transform="translate(621,-792.4)"><title>Process.70</title><desc>Committee review</desc><rect width="72" height="54" x="0" y="1134" class="st14"/><text x="5.93" y="1163.4" class="st2">Committee review</text></g><g id="shape75-191" transform="translate(843.469,-773.162)"><title>Decision.75</title><desc>Does the RFC contain all necessary info to merge as experimen...</desc><path d="M0 1141.76 L38.53 1095.53 L77.06 1141.76 L38.53 1188 L0 1141.76 Z" class="st18"/><text x="17.02" y="1124.96" class="st2">Does the RFC <tspan x="21.7" class="st6" dy="1.2em">contain all </tspan><tspan x="10.9" class="st6" dy="1.2em">necessary info to </tspan><tspan x="23.69" class="st6" dy="1.2em">merge as </tspan><tspan x="15.09" class="st6" dy="1.2em">experimental?</tspan></text></g><g id="shape77-198" transform="translate(846,-331.875)"><title>Decision.77</title><desc>Committee votes to approve RFC</desc><path d="M0 1161 L36 1134 L72 1161 L36 1188 L0 1161 Z" class="st18"/><text x="8.07" y="1158.6" class="st2">Committee votes <tspan x="11.18" class="st6" dy="1.2em">to approve RFC</tspan></text></g><g id="shape79-202" transform="translate(882,-331.875)"><title>Dynamic connector.79</title><desc>Reject</desc><path d="M0 1188 L0 1206 L-715.5 1206 L-715.5 1015.87 L-726.46 1015.87" class="st3"/><rect width="20.281" height="9.6" x="-462.953" y="1201.2" class="st9"/><text x="-462.95" y="1208.4" class="st8">Reject</text></g><g id="shape80-209" transform="translate(987.75,-792.4)"><title>Process.80</title><desc>RFC author adds additional info</desc><rect width="72" height="54" x="0" y="1134" class="st14"/><text x="9.4" y="1158.6" class="st2">RFC author adds <tspan x="12.41" class="st6" dy="1.2em">additional info</tspan></text></g><g id="shape87-213" transform="translate(846,-349.875)"><title>Dynamic connector.87</title><desc>Approve</desc><path d="M0 1179 L-88.02 1179" class="st3"/><rect width="27.637" height="9.6" x="-56.499" y="1173.88" class="st9"/><text x="-56.5" y="1181.08" class="st8">Approve</text></g><g id="shape86-220" transform="translate(678.938,-331.875)"><title>Decision.86</title><desc>Is the code ready to go?</desc><path d="M0 1161 L36 1134 L72 1161 L36 1188 L0 1161 Z" class="st17"/><text x="8.18" y="1158.6" class="st2">Is the code ready <tspan x="25.8" class="st6" dy="1.2em">to go?</tspan></text></g><g id="shape88-224" transform="translate(714.938,-380.25)"><title>Dynamic connector.88</title><desc>Yes</desc><path d="M0 1182.37 L0 1175.63 L-45.84 1175.63" class="st3"/><rect width="11.008" height="9.6" x="-28.566" y="1170.83" class="st9"/><text x="-28.57" y="1178.03" class="st8">Yes</text></g><g id="shape90-231" transform="translate(678.938,-358.875)"><title>Dynamic connector.90</title><desc>No</desc><path d="M0 1188 C-4.5 1188 -5.67 1201.43 5.28 1211.22 C12.6 1217.77 25.34 1222.69 31.87 1220.7 L32.08 1220.41" class="st19"/><rect width="9.383" height="9.6" x="-.191" y="1205.7" class="st9"/><text x="-.19" y="1212.9" class="st8">No</text></g><g id="shape1010-238" transform="translate(76.5,-301.5)"><title>Decision.36</title><desc>Do you still think it needs to be in the PS package?</desc><path d="M0 1152 L36 1116 L72 1152 L36 1188 L0 1152 Z" class="st1"/><text x="17.94" y="1140" class="st2">Do you still <tspan x="9.55" class="st6" dy="1.2em">think it needs to </tspan><tspan x="16.84" class="st6" dy="1.2em">be in the PS </tspan><tspan x="20.83" class="st6" dy="1.2em">package?</tspan></text></g><g id="shape1012-244" transform="translate(67.5,-337.5)"><title>Dynamic connector.1012</title><desc>Yes</desc><path d="M9 1188 L-45 1188 L-45 463.5 L1.96 463.5" class="st3"/><rect width="11.008" height="9.6" x="-14.504" y="1183.2" class="st9"/><text x="-14.5" y="1190.4" class="st8">Yes</text></g><g id="shape1006-251" transform="translate(76.5,-846)"><title>Decision.1006</title><desc>Can the idea be implemented outside of the PS code repo?</desc><path d="M0 1152 L36 1116 L72 1152 L36 1188 L0 1152 Z" class="st1"/><text x="15.68" y="1140" class="st2">Can the idea<tspan x="8.26" class="st6" dy="1.2em"> </tspan>be implemented <tspan x="8.5" class="st6" dy="1.2em">outside of the PS </tspan><tspan x="17.75" class="st6" dy="1.2em">code repo?</tspan></text></g><g id="shape1007-257" transform="translate(121.5,-945)"><title>Dynamic connector.1007</title><path d="M-9 1188 L-9 1207.96" class="st3"/></g><g id="shape1008-262" transform="translate(67.5,-882)"><title>Dynamic connector.1008</title><desc>Yes</desc><path d="M9 1188 L-16.88 1188 L-16.88 1566 L1.96 1566" class="st3"/><rect width="11.008" height="9.6" x="-10.004" y="1183.2" class="st9"/><text x="-10" y="1190.4" class="st8">Yes</text></g><g id="shape1001-269" transform="translate(103.5,-485.1)"><title>Dynamic connector.1001</title><path d="M9 1188 L9 1211.56" class="st21"/></g><g id="shape1014-274" transform="translate(103.5,-400.5)"><title>Dynamic connector.1014</title><path d="M9 1188 L9 1207.96" class="st21"/></g><g id="shape1015-279" transform="translate(194.625,-662.3)"><title>Decision.1015</title><desc>Do the WGs think an RFC is required?</desc><path d="M0 1161 L36 1134 L72 1161 L36 1188 L0 1161 Z" class="st1"/><text x="16.54" y="1153.8" class="st2">Do the WGs <tspan x="12.37" class="st6" dy="1.2em">think an RFC is </tspan><tspan x="20.15" class="st6" dy="1.2em">required?</tspan></text></g><g id="shape1016-284" transform="translate(266.625,-680.3)"><title>Dynamic connector.1016</title><desc>Yes</desc><path d="M0 1179 L36.83 1179" class="st3"/><rect width="11.008" height="9.6" x="16.434" y="1174.2" class="st7"/><text x="16.43" y="1181.4" class="st8">Yes</text></g><g id="shape1017-291" transform="translate(158.625,-698.462)"><title>Dynamic connector.1017</title><desc>Yes</desc><path d="M0 1196.84 L18 1196.84 L18 1197.16 L28.96 1197.16" class="st3"/><rect width="11.008" height="9.6" x="12.496" y="1192.2" class="st9"/><text x="12.5" y="1199.4" class="st8">Yes</text></g><g id="shape1019-298" transform="translate(221.625,-716.3)"><title>Dynamic connector.1019</title><desc>No</desc><path d="M9 1188 L9 1168.04" class="st3"/><rect width="9.383" height="9.6" x="4.309" y="1169.7" class="st9"/><text x="4.31" y="1176.9" class="st8">No</text></g><g id="shape1018-305" transform="translate(194.625,-743.3)"><title>Process.1018</title><desc>WGs label “RFC not required”; Contributor opens a PR to be re...</desc><rect width="72" height="72" x="0" y="1116" class="st5"/><text x="4.43" y="1130.4" class="st2">WGs label “RFC not <tspan x="19.26" class="st6" dy="1.2em">required</tspan>”; <tspan x="3.37" class="st6" dy="1.2em">Contributor opens a </tspan><tspan x="6.46" class="st6" dy="1.2em">PR to be reviewed </tspan><tspan x="3.05" class="st6" dy="1.2em">by WGs and merged </tspan><tspan x="11.83" class="st6" dy="1.2em">by maintainers</tspan></text></g><g id="shape1020-313" transform="translate(873,-773.162)"><title>Dynamic connector.1020</title><desc>Yes</desc><path d="M9 1188 L9 1248.02" class="st3"/><rect width="11.008" height="9.6" x="3.496" y="1216.73" class="st9"/><text x="3.5" y="1223.93" class="st8">Yes</text></g><g id="shape1021-320" transform="translate(846,-652.1)"><title>Process.1021</title><desc>Committee labels RFC PR with “Experimental - Approved”</desc><rect width="72" height="54" x="0" y="1134" class="st14"/><text x="7.48" y="1149" class="st2">Committee labels <tspan x="16.59" class="st6" dy="1.2em">RFC PR with </tspan><tspan x="10.65" class="st6" dy="1.2em">“</tspan>Experimental - <tspan x="18.41" class="st6" dy="1.2em">Approved</tspan>”</text></g><g id="shape1023-326" transform="translate(920.531,-810.4)"><title>Dynamic connector.1023</title><desc>No</desc><path d="M0 1179 L60.18 1179" class="st3"/><rect width="9.383" height="9.6" x="28.918" y="1174.2" class="st9"/><text x="28.92" y="1181.4" class="st8">No</text></g><g id="shape1024-333" transform="translate(1023.75,-837.4)"><title>Dynamic connector.1024</title><path d="M0 1179 L0 1134.76 L-366.75 1134.76 L-366.75 1171.96" class="st3"/></g><g id="shape1026-338" transform="translate(495,-577.125)"><title>Dynamic connector.1026</title><desc>Yes</desc><path d="M0 1179 L19.96 1179" class="st3"/><rect width="11.008" height="9.6" x="7.996" y="1174.2" class="st9"/><text x="8" y="1181.4" class="st8">Yes</text></g><g id="shape1025-345" transform="translate(522,-540)"><title>Decision.1025</title><desc>Has the RFC been marked with “Experimental - Approved”?</desc><path d="M0 1141.88 L46.12 1095.75 L92.25 1141.88 L46.12 1188 L0 1141.88 Z" class="st17"/><text x="17.68" y="1129.87" class="st2">Has the RFC been <tspan x="25.59" class="st6" dy="1.2em">marked with </tspan><tspan x="20.77" class="st6" dy="1.2em">“</tspan>Experimental - <tspan x="26.68" class="st6" dy="1.2em">Approved</tspan>”?</text></g><g id="shape1028-351" transform="translate(614.25,-577.125)"><title>Dynamic connector.1028</title><desc>Yes</desc><path d="M0 1179 L28.96 1179" class="st3"/><rect width="11.008" height="9.6" x="12.496" y="1174.2" class="st7"/><text x="12.5" y="1181.4" class="st8">Yes</text></g><g id="shape1027-358" transform="translate(650.25,-559.125)"><title>Process.1027</title><desc>Merge code PR as Experimental Feature</desc><rect width="72" height="54" x="0" y="1134" class="st16"/><text x="7" y="1153.8" class="st2">Merge code PR as <tspan x="14.45" class="st6" dy="1.2em">Experimental </tspan><tspan x="23.43" class="st6" dy="1.2em">Feature</tspan></text></g><g id="shape1029-363" transform="translate(568.125,-632.25)"><title>Dynamic connector.1029</title><desc>No</desc><path d="M0 1188 L0 1045.85 L88.88 1045.85 L88.88 1034.89" class="st3"/><rect width="9.383" height="9.6" x="-3.316" y="1121.75" class="st9"/><text x="-3.32" y="1128.95" class="st8">No</text></g><g id="shape1031-370" transform="translate(445.5,-616.5)"><title>Dynamic connector.1031</title><desc>No</desc><path d="M9 1177.8 L9 1177.44 L9 1162.56" class="st22"/><rect width="9.383" height="9.6" x="4.309" y="1165.2" class="st9"/><text x="4.31" y="1172.4" class="st8">No</text></g><g id="shape1030-381" transform="translate(418.5,-652.5)"><title>Process.1030</title><desc>Contributor updates code PR based on feedback</desc><rect width="72" height="54" x="0" y="1134" class="st16"/><text x="2.94" y="1153.8" class="st2">Contributor updates <tspan x="7.27" class="st6" dy="1.2em">code PR based on </tspan><tspan x="21.17" class="st6" dy="1.2em">feedback</tspan></text></g><g id="shape1033-386" transform="translate(873,-652.1)"><title>Dynamic connector.1033</title><path d="M9 1188 L9 1205.31" class="st3"/></g><g id="shape1032-391" transform="translate(840.375,-544.5)"><title>Decision.1032</title><desc>Has the code PR been merged as experimental?</desc><path d="M0 1146.38 L41.62 1104.75 L83.25 1146.38 L41.62 1188 L0 1146.38 Z" class="st18"/><text x="29.32" y="1134.37" class="st2">Has the <tspan x="19.5" class="st6" dy="1.2em">code PR been </tspan><tspan x="24.69" class="st6" dy="1.2em">merged as </tspan><tspan x="18.18" class="st6" dy="1.2em">experimental?</tspan></text></g><g id="shape1034-397" transform="translate(840.375,-586.125)"><title>Dynamic connector.1034</title><desc>No</desc><path d="M0 1188 L-18 1188 L-18 1252.12 L-151.12 1252.12 A3 3 -180 0 0 -157.12 1252.12 L-385.87 1252.12 L-385.87 1225.41" class="st3"/><rect width="9.383" height="9.6" x="-182.441" y="1247.33" class="st9"/><text x="-182.44" y="1254.53" class="st8">No</text></g><g id="shape1036-404" transform="translate(873,-544.5)"><title>Dynamic connector.1036</title><desc>Yes</desc><path d="M9 1188 L9 1207.96" class="st3"/><rect width="11.008" height="9.6" x="3.496" y="1196.7" class="st9"/><text x="3.5" y="1203.9" class="st8">Yes</text></g><g id="shape1035-411" transform="translate(846,-409.5)"><title>Decision.1035</title><desc>Does the Committee believe the experimental feature has had e...</desc><path d="M0 1134 L36 1080 L72 1134 L36 1188 L0 1134 Z" class="st18"/><text x="21.54" y="1107.6" class="st2">Does the <tspan x="17.79" class="st6" dy="1.2em">Committee </tspan><tspan x="17.95" class="st6" dy="1.2em">believe the </tspan><tspan x="14.41" class="st6" dy="1.2em">experimental </tspan><tspan x="10.54" class="st6" dy="1.2em">feature has had </tspan><tspan x="11.01" class="st6" dy="1.2em">enough time to </tspan><tspan x="26.32" class="st6" dy="1.2em">bake?</tspan></text></g><g id="shape1037-420" transform="translate(873,-409.5)"><title>Dynamic connector.1037</title><desc>Yes</desc><path d="M9 1188 L9 1204.58" class="st3"/><rect width="11.008" height="9.6" x="3.496" y="1195.01" class="st9"/><text x="3.5" y="1202.21" class="st8">Yes</text></g><g id="shape1038-427" transform="translate(686.25,-559.125)"><title>Dynamic connector.1038</title><path d="M0 1188 L0 1291.5 L-168.19 1291.5 L-168.19 1302.46" class="st3"/></g><g id="shape1040-432" transform="translate(693,-810.4)"><title>Dynamic connector.1040</title><path d="M0 1179 L33.46 1179" class="st3"/></g><g id="shape1039-437" transform="translate(733.5,-766.156)"><title>Decision.1039</title><desc>Does the Committee think the intent of the RFC is reasonable ...</desc><path d="M0 1134.76 L40.5 1081.51 L81 1134.76 L40.5 1188 L0 1134.76 Z" class="st18"/><text x="26.04" y="1117.96" class="st2">Does the <tspan x="13.11" class="st6" dy="1.2em">Committee think </tspan><tspan x="13.8" class="st6" dy="1.2em">the intent of the </tspan><tspan x="12.06" class="st6" dy="1.2em">RFC is reasonable </tspan><tspan x="24.89" class="st6" dy="1.2em">to pursue</tspan></text></g><g id="shape1041-444" transform="translate(814.5,-810.4)"><title>Dynamic connector.1041</title><desc>Yes</desc><path d="M0 1179 L21.93 1179" class="st3"/><rect width="11.008" height="9.6" x="8.981" y="1174.2" class="st7"/><text x="8.98" y="1181.4" class="st8">Yes</text></g><g id="shape1043-451" transform="translate(765,-766.156)"><title>Dynamic connector.1043</title><desc>No</desc><path d="M9 1188 L9 1240.62" class="st3"/><rect width="9.383" height="9.6" x="4.309" y="1213.03" class="st9"/><text x="4.31" y="1220.23" class="st8">No</text></g><g id="shape1042-458" transform="translate(738,-679.5)"><title>Start/End.1042</title><desc>Process stops</desc><path d="M13.5 1188 L58.5 1188 A13.5 13.5 -180 0 0 58.5 1161 L13.5 1161 A13.5 13.5 -180 1 0 13.5 1188 Z" class="st13"/><text x="14.04" y="1176.9" class="st2">Process stops</text></g></g></svg>