<?xml version="1.0" encoding="UTF-8" standalone="no"?><svg xmlns="http://www.w3.org/2000/svg" xmlns:xlink="http://www.w3.org/1999/xlink" contentScriptType="application/ecmascript" contentStyleType="text/css" height="463px" preserveAspectRatio="none" style="width:1239px;height:463px;" version="1.1" viewBox="0 0 1239 463" width="1239px" zoomAndPan="magnify"><defs><filter height="300%" id="f1q5jgw9h9s18l" width="300%" x="-1" y="-1"><feGaussianBlur result="blurOut" stdDeviation="2.0"/><feColorMatrix in="blurOut" result="blurOut2" type="matrix" values="0 0 0 0 0 0 0 0 0 0 0 0 0 0 0 0 0 0 .4 0"/><feOffset dx="4.0" dy="4.0" in="blurOut2" result="blurOut3"/><feBlend in="SourceGraphic" in2="blurOut3" mode="normal"/></filter></defs><g><!--cluster Linux Builds--><polygon fill="#FFFFFF" filter="url(#f1q5jgw9h9s18l)" points="529,185,624,185,631,207.4883,968,207.4883,968,256,529,256,529,185" style="stroke: #000000; stroke-width: 1.5;"/><line style="stroke: #000000; stroke-width: 1.5;" x1="529" x2="631" y1="207.4883" y2="207.4883"/><text fill="#000000" font-family="sans-serif" font-size="14" font-weight="bold" lengthAdjust="spacingAndGlyphs" textLength="89" x="533" y="200.5352">Linux Builds</text><!--cluster WinBuilds--><polygon fill="#FFFFFF" filter="url(#f1q5jgw9h9s18l)" points="136,89,257,89,264,111.4883,665,111.4883,665,160,136,160,136,89" style="stroke: #000000; stroke-width: 1.5;"/><line style="stroke: #000000; stroke-width: 1.5;" x1="136" x2="264" y1="111.4883" y2="111.4883"/><text fill="#000000" font-family="sans-serif" font-size="14" font-weight="bold" lengthAdjust="spacingAndGlyphs" textLength="115" x="140" y="104.5352">Windows Builds</text><!--cluster Linux Package Scanning and Upload--><polygon fill="#FFFFFF" filter="url(#f1q5jgw9h9s18l)" points="436,281,699,281,706,303.4883,875,303.4883,875,352,436,352,436,281" style="stroke: #000000; stroke-width: 1.5;"/><line style="stroke: #000000; stroke-width: 1.5;" x1="436" x2="706" y1="303.4883" y2="303.4883"/><text fill="#000000" font-family="sans-serif" font-size="14" font-weight="bold" lengthAdjust="spacingAndGlyphs" textLength="257" x="440" y="296.5352">Linux Package Scanning and Upload</text><!--cluster Package Signing and Upload--><polygon fill="#FFFFFF" filter="url(#f1q5jgw9h9s18l)" points="980,185,1189,185,1196,207.4883,1199,207.4883,1199,256,980,256,980,185" style="stroke: #000000; stroke-width: 1.5;"/><line style="stroke: #000000; stroke-width: 1.5;" x1="980" x2="1196" y1="207.4883" y2="207.4883"/><text fill="#000000" font-family="sans-serif" font-size="14" font-weight="bold" lengthAdjust="spacingAndGlyphs" textLength="203" x="984" y="200.5352">Package Signing and Upload</text><!--cluster Create & Upload FxDependent DotNet SDK--><polygon fill="#FFFFFF" filter="url(#f1q5jgw9h9s18l)" points="883,281,1193,281,1200,303.4883,1203,303.4883,1203,352,883,352,883,281" style="stroke: #000000; stroke-width: 1.5;"/><line style="stroke: #000000; stroke-width: 1.5;" x1="883" x2="1200" y1="303.4883" y2="303.4883"/><text fill="#000000" font-family="sans-serif" font-size="14" font-weight="bold" lengthAdjust="spacingAndGlyphs" textLength="304" x="887" y="296.5352">Create &amp; Upload FxDependent DotNet SDK</text><!--entity BuildDEB--><rect fill="#FEFECE" filter="url(#f1q5jgw9h9s18l)" height="36.4883" style="stroke: #A80036; stroke-width: 1.5;" width="46" x="636" y="212"/><text fill="#000000" font-family="sans-serif" font-size="14" lengthAdjust="spacingAndGlyphs" textLength="26" x="646" y="235.5352">DEB</text><!--entity BuildRPM--><rect fill="#FEFECE" filter="url(#f1q5jgw9h9s18l)" height="36.4883" style="stroke: #A80036; stroke-width: 1.5;" width="49" x="717.5" y="212"/><text fill="#000000" font-family="sans-serif" font-size="14" lengthAdjust="spacingAndGlyphs" textLength="29" x="727.5" y="235.5352">RPM</text><!--entity BuildAlpine--><rect fill="#FEFECE" filter="url(#f1q5jgw9h9s18l)" height="36.4883" style="stroke: #A80036; stroke-width: 1.5;" width="64" x="537" y="212"/><text fill="#000000" font-family="sans-serif" font-size="14" lengthAdjust="spacingAndGlyphs" textLength="44" x="547" y="235.5352">Alpine</text><!--entity BuildLinuxFx--><rect fill="#FEFECE" filter="url(#f1q5jgw9h9s18l)" height="36.4883" style="stroke: #A80036; stroke-width: 1.5;" width="158" x="802" y="212"/><text fill="#000000" font-family="sans-serif" font-size="14" lengthAdjust="spacingAndGlyphs" textLength="138" x="812" y="235.5352">Linux-FxDependent</text><!--entity BuildWinX64--><rect fill="#FEFECE" filter="url(#f1q5jgw9h9s18l)" height="36.4883" style="stroke: #A80036; stroke-width: 1.5;" width="47" x="226.5" y="116"/><text fill="#000000" font-family="sans-serif" font-size="14" lengthAdjust="spacingAndGlyphs" textLength="27" x="236.5" y="139.5352">x64</text><!--entity BuildWinX86--><rect fill="#FEFECE" filter="url(#f1q5jgw9h9s18l)" height="36.4883" style="stroke: #A80036; stroke-width: 1.5;" width="47" x="144.5" y="116"/><text fill="#000000" font-family="sans-serif" font-size="14" lengthAdjust="spacingAndGlyphs" textLength="27" x="154.5" y="139.5352">x86</text><!--entity BuildWinArm32--><rect fill="#FEFECE" filter="url(#f1q5jgw9h9s18l)" height="36.4883" style="stroke: #A80036; stroke-width: 1.5;" width="65" x="556.5" y="116"/><text fill="#000000" font-family="sans-serif" font-size="14" lengthAdjust="spacingAndGlyphs" textLength="45" x="566.5" y="139.5352">arm32</text><!--entity BuildWinArm64--><rect fill="#FEFECE" filter="url(#f1q5jgw9h9s18l)" height="36.4883" style="stroke: #A80036; stroke-width: 1.5;" width="65" x="456.5" y="116"/><text fill="#000000" font-family="sans-serif" font-size="14" lengthAdjust="spacingAndGlyphs" textLength="45" x="466.5" y="139.5352">arm64</text><!--entity BuildWinFx--><rect fill="#FEFECE" filter="url(#f1q5jgw9h9s18l)" height="36.4883" style="stroke: #A80036; stroke-width: 1.5;" width="112" x="309" y="116"/><text fill="#000000" font-family="sans-serif" font-size="14" lengthAdjust="spacingAndGlyphs" textLength="92" x="319" y="139.5352">FxDependent</text><!--entity UploadDEB--><rect fill="#FEFECE" filter="url(#f1q5jgw9h9s18l)" height="36.4883" style="stroke: #A80036; stroke-width: 1.5;" width="46" x="543" y="308"/><text fill="#000000" font-family="sans-serif" font-size="14" lengthAdjust="spacingAndGlyphs" textLength="26" x="553" y="331.5352">DEB</text><!--entity UploadRPM--><rect fill="#FEFECE" filter="url(#f1q5jgw9h9s18l)" height="36.4883" style="stroke: #A80036; stroke-width: 1.5;" width="49" x="624.5" y="308"/><text fill="#000000" font-family="sans-serif" font-size="14" lengthAdjust="spacingAndGlyphs" textLength="29" x="634.5" y="331.5352">RPM</text><!--entity UploadAlpine--><rect fill="#FEFECE" filter="url(#f1q5jgw9h9s18l)" height="36.4883" style="stroke: #A80036; stroke-width: 1.5;" width="64" x="444" y="308"/><text fill="#000000" font-family="sans-serif" font-size="14" lengthAdjust="spacingAndGlyphs" textLength="44" x="454" y="331.5352">Alpine</text><!--entity UploadLinuxFx--><rect fill="#FEFECE" filter="url(#f1q5jgw9h9s18l)" height="36.4883" style="stroke: #A80036; stroke-width: 1.5;" width="158" x="709" y="308"/><text fill="#000000" font-family="sans-serif" font-size="14" lengthAdjust="spacingAndGlyphs" textLength="138" x="719" y="331.5352">Linux-FxDependent</text><!--entity SignMac--><rect fill="#FEFECE" filter="url(#f1q5jgw9h9s18l)" height="36.4883" style="stroke: #A80036; stroke-width: 1.5;" width="67" x="1115.5" y="212"/><text fill="#000000" font-family="sans-serif" font-size="14" lengthAdjust="spacingAndGlyphs" textLength="47" x="1125.5" y="235.5352">macOS</text><!--entity SignWin--><rect fill="#FEFECE" filter="url(#f1q5jgw9h9s18l)" height="36.4883" style="stroke: #A80036; stroke-width: 1.5;" width="81" x="995.5" y="212"/><text fill="#000000" font-family="sans-serif" font-size="14" lengthAdjust="spacingAndGlyphs" textLength="61" x="1005.5" y="235.5352">Windows</text><!--entity BuildLinuxFxSdk--><rect fill="#FEFECE" filter="url(#f1q5jgw9h9s18l)" height="36.4883" style="stroke: #A80036; stroke-width: 1.5;" width="58" x="902" y="308"/><text fill="#000000" font-family="sans-serif" font-size="14" lengthAdjust="spacingAndGlyphs" textLength="38" x="912" y="331.5352">Linux</text><!--entity BuildWinFxSdk--><rect fill="#FEFECE" filter="url(#f1q5jgw9h9s18l)" height="36.4883" style="stroke: #A80036; stroke-width: 1.5;" width="81" x="995.5" y="308"/><text fill="#000000" font-family="sans-serif" font-size="14" lengthAdjust="spacingAndGlyphs" textLength="61" x="1005.5" y="331.5352">Windows</text><!--entity BuildMac--><rect fill="#FEFECE" filter="url(#f1q5jgw9h9s18l)" height="36.4883" style="stroke: #A80036; stroke-width: 1.5;" width="105" x="1055.5" y="116"/><text fill="#000000" font-family="sans-serif" font-size="14" lengthAdjust="spacingAndGlyphs" textLength="85" x="1065.5" y="139.5352">macOS Build</text><!--entity BuildCG--><rect fill="#FEFECE" filter="url(#f1q5jgw9h9s18l)" height="36.4883" style="stroke: #A80036; stroke-width: 1.5;" width="184" x="6" y="308"/><text fill="#000000" font-family="sans-serif" font-size="14" lengthAdjust="spacingAndGlyphs" textLength="164" x="16" y="331.5352">ComponentRegistration</text><!--entity Compliance--><rect fill="#FEFECE" filter="url(#f1q5jgw9h9s18l)" height="36.4883" style="stroke: #A80036; stroke-width: 1.5;" width="101" x="249.5" y="212"/><text fill="#000000" font-family="sans-serif" font-size="14" lengthAdjust="spacingAndGlyphs" textLength="81" x="259.5" y="235.5352">Compliance</text><!--entity Finish--><ellipse cx="649" cy="420" fill="#FEFECE" filter="url(#f1q5jgw9h9s18l)" rx="12" ry="12" style="stroke: #A80036; stroke-width: 2.0;"/><polygon fill="#A80036" points="645,408,651,403,649,408,651,413,645,408" style="stroke: #A80036; stroke-width: 1.0;"/><text fill="#000000" font-family="sans-serif" font-size="14" lengthAdjust="spacingAndGlyphs" textLength="41" x="628.5" y="449.5352">Finish</text><!--entity Start--><ellipse cx="589" cy="24" fill="#FEFECE" filter="url(#f1q5jgw9h9s18l)" rx="12" ry="12" style="stroke: #A80036; stroke-width: 2.0;"/><polygon fill="#A80036" points="585,12,591,7,589,12,591,17,585,12" style="stroke: #A80036; stroke-width: 1.0;"/><text fill="#000000" font-family="sans-serif" font-size="14" lengthAdjust="spacingAndGlyphs" textLength="32" x="573" y="53.5352">Start</text><!--link BuildDEB to UploadDEB--><path d="M639.9732,248.162 C630.0178,257.7895 617.7061,269.8928 607,281 C599.9449,288.3194 592.4033,296.4914 585.7368,303.8419 " fill="none" id="BuildDEB-UploadDEB" style="stroke: #A80036; stroke-width: 1.0;"/><polygon fill="#A80036" points="582.1319,307.8305,591.1342,303.8357,585.4846,304.1211,585.1992,298.4715,582.1319,307.8305" style="stroke: #A80036; stroke-width: 1.0;"/><!--link BuildRPM to UploadRPM--><path d="M723.8912,248.3571 C714.3696,258.038 702.5208,270.1302 692,281 C684.7713,288.4685 676.9042,296.6775 669.8989,304.0162 " fill="none" id="BuildRPM-UploadRPM" style="stroke: #A80036; stroke-width: 1.0;"/><polygon fill="#A80036" points="666.1053,307.9936,675.2115,304.2418,669.5563,304.3755,669.4226,298.7202,666.1053,307.9936" style="stroke: #A80036; stroke-width: 1.0;"/><!--link BuildLinuxFx to UploadLinuxFx--><path d="M863.5074,248.0569 C848.1474,263.9124 825.7566,287.0255 809.3456,303.9658 " fill="none" id="BuildLinuxFx-UploadLinuxFx" style="stroke: #A80036; stroke-width: 1.0;"/><polygon fill="#A80036" points="805.7303,307.6977,814.8654,304.0166,809.2092,304.1065,809.1194,298.4503,805.7303,307.6977" style="stroke: #A80036; stroke-width: 1.0;"/><!--link BuildAlpine to UploadAlpine--><path d="M551.5074,248.0569 C536.1474,263.9124 513.7566,287.0255 497.3456,303.9658 " fill="none" id="BuildAlpine-UploadAlpine" style="stroke: #A80036; stroke-width: 1.0;"/><polygon fill="#A80036" points="493.7303,307.6977,502.8654,304.0166,497.2092,304.1065,497.1194,298.4503,493.7303,307.6977" style="stroke: #A80036; stroke-width: 1.0;"/><!--link BuildMac to SignMac--><path d="M1115.7118,152.0569 C1122.3127,167.5126 1131.8589,189.8647 1139.0375,206.6731 " fill="none" id="BuildMac-SignMac" style="stroke: #A80036; stroke-width: 1.0;"/><polygon fill="#A80036" points="1141.1834,211.6977,1141.3267,201.8499,1139.2194,207.0996,1133.9697,204.9923,1141.1834,211.6977" style="stroke: #A80036; stroke-width: 1.0;"/><!--link WinBuilds to SignWin--><path d="M665.2011,134.7723 C665.5768,134.8084 665.9644,134.8457 666.3638,134.8842 C667.9613,135.0382 669.7474,135.2117 671.7093,135.4042 C679.5572,136.1741 690.2202,137.2475 702.8986,138.5918 C728.2554,141.2803 761.6736,145.0525 796.7543,149.6472 C866.9158,158.8368 943.7277,171.3168 976,185 C989.3346,190.6538 1002.4091,199.8902 1012.9319,208.5285 " fill="none" id="WinBuilds-SignWin" style="stroke: #A80036; stroke-width: 1.0;"/><polygon fill="#A80036" points="1016.9822,211.9272,1012.6591,203.0778,1013.152,208.7132,1007.5167,209.2061,1016.9822,211.9272" style="stroke: #A80036; stroke-width: 1.0;"/><!--link BuildWinX86 to Compliance--><path d="M191.599,151.1629 C213.6592,167.2067 246.6794,191.2214 270.4762,208.5282 " fill="none" id="BuildWinX86-Compliance" style="stroke: #A80036; stroke-width: 1.0;"/><polygon fill="#A80036" points="274.8076,211.6782,269.8816,203.1497,270.7639,208.7374,265.1763,209.6196,274.8076,211.6782" style="stroke: #A80036; stroke-width: 1.0;"/><!--link BuildWinX64 to Compliance--><path d="M259.4046,152.0569 C267.5239,167.6459 279.2972,190.2506 288.0763,207.1065 " fill="none" id="BuildWinX64-Compliance" style="stroke: #A80036; stroke-width: 1.0;"/><polygon fill="#A80036" points="290.4676,211.6977,289.8578,201.8677,288.1579,207.2631,282.7625,205.5633,290.4676,211.6977" style="stroke: #A80036; stroke-width: 1.0;"/><!--link BuildWinFx to Compliance--><path d="M352.774,152.0569 C342.1287,167.7791 326.6517,190.6375 315.209,207.5375 " fill="none" id="BuildWinFx-Compliance" style="stroke: #A80036; stroke-width: 1.0;"/><polygon fill="#A80036" points="312.3922,211.6977,320.7503,206.4879,315.1955,207.5574,314.1259,202.0026,312.3922,211.6977" style="stroke: #A80036; stroke-width: 1.0;"/><!--link BuildLinuxFx to BuildLinuxFxSdk--><path d="M890.4046,248.0569 C898.5239,263.6459 910.2972,286.2506 919.0763,303.1065 " fill="none" id="BuildLinuxFx-BuildLinuxFxSdk" style="stroke: #A80036; stroke-width: 1.0;"/><polygon fill="#A80036" points="921.4676,307.6977,920.8578,297.8677,919.1579,303.2631,913.7625,301.5633,921.4676,307.6977" style="stroke: #A80036; stroke-width: 1.0;"/><!--link SignWin to BuildWinFxSdk--><path d="M1036,248.0569 C1036,263.5126 1036,285.8647 1036,302.6731 " fill="none" id="SignWin-BuildWinFxSdk" style="stroke: #A80036; stroke-width: 1.0;"/><polygon fill="#A80036" points="1036,307.6977,1040,298.6977,1036,302.6977,1032,298.6977,1036,307.6977" style="stroke: #A80036; stroke-width: 1.0;"/><!--link Compliance to Finish--><path d="M314.6615,248.2823 C336.6845,274.639 380.7845,323.2909 428,352 C495.2555,392.8943 587.4927,415.4534 628.2253,423.9819 " fill="none" id="Compliance-Finish" style="stroke: #A80036; stroke-width: 1.0; stroke-dasharray: 1.0,3.0;"/><!--link UploadAlpine to Finish--><path d="M506.5307,344.0008 C541.4513,364.5898 597.6995,397.7534 628.0191,415.6297 " fill="none" id="UploadAlpine-Finish" style="stroke: #A80036; stroke-width: 1.0; stroke-dasharray: 1.0,3.0;"/><!--link UploadDEB to Finish--><path d="M580.8387,344.2356 C594.361,360.8532 614.4323,385.5192 629.2956,403.785 " fill="none" id="UploadDEB-Finish" style="stroke: #A80036; stroke-width: 1.0; stroke-dasharray: 1.0,3.0;"/><!--link UploadRPM to Finish--><path d="M649,344.2356 C649,360.8532 649,385.5192 649,403.785 " fill="none" id="UploadRPM-Finish" style="stroke: #A80036; stroke-width: 1.0; stroke-dasharray: 1.0,3.0;"/><!--link UploadLinuxFx to Finish--><path d="M763.4696,344.0008 C736.8148,363.5603 694.6949,394.4685 669.6631,412.8371 " fill="none" id="UploadLinuxFx-Finish" style="stroke: #A80036; stroke-width: 1.0; stroke-dasharray: 1.0,3.0;"/><!--link SignMac to Finish--><path d="M1178.7577,248.1981 C1189.7769,256.6671 1201.0322,267.8056 1207,281 C1220.0043,309.7514 1227.753,328.2289 1207,352 C1170.7914,393.4746 766.3013,420.8023 669.6513,426.769 " fill="none" id="SignMac-Finish" style="stroke: #A80036; stroke-width: 1.0; stroke-dasharray: 1.0,3.0;"/><!--link BuildCG to Finish--><path d="M190.225,343.0725 C322.2661,367.5157 557.1017,410.988 628.1004,424.1311 " fill="none" id="BuildCG-Finish" style="stroke: #A80036; stroke-width: 1.0; stroke-dasharray: 1.0,3.0;"/><!--link BuildLinuxFxSdk to Finish--><path d="M901.9738,342.8178 C895.8115,346.0763 889.271,349.3099 883,352 C806.6497,384.7522 711.241,411.6069 669.8065,422.6196 " fill="none" id="BuildLinuxFxSdk-Finish" style="stroke: #A80036; stroke-width: 1.0; stroke-dasharray: 1.0,3.0;"/><!--link BuildWinFxSdk to Finish--><path d="M998.6728,344.0068 C991.8845,346.9142 984.799,349.715 978,352 C864.3635,390.1909 722.3355,415.8635 669.7903,424.6471 " fill="none" id="BuildWinFxSdk-Finish" style="stroke: #A80036; stroke-width: 1.0; stroke-dasharray: 1.0,3.0;"/><!--link Start to BuildDEB--><path d="M605.1915,34.555 C631.3424,39.6499 682.1488,53.7813 704,89 C728.7911,128.957 695.1436,183.8392 673.9381,211.8901 " fill="none" id="Start-BuildDEB" style="stroke: #A80036; stroke-width: 1.0; stroke-dasharray: 1.0,3.0;"/><!--link Start to BuildRPM--><path d="M605.4616,32.9734 C636.5216,35.7876 703.3936,46.709 734,89 C760.5934,125.7458 752.9289,183.0172 746.6319,211.9584 " fill="none" id="Start-BuildRPM" style="stroke: #A80036; stroke-width: 1.0; stroke-dasharray: 1.0,3.0;"/><!--link Start to BuildAlpine--><path d="M605.262,37.5941 C625.3815,45.5001 658.7237,62.0596 673,89 C687.7756,116.8825 689.9914,133.4097 673,160 C658.7592,182.2858 641.0757,170.4356 619,185 C607.3023,192.7176 595.5848,203.0876 586.4365,211.9277 " fill="none" id="Start-BuildAlpine" style="stroke: #A80036; stroke-width: 1.0; stroke-dasharray: 1.0,3.0;"/><!--link Start to BuildLinuxFx--><path d="M605.0538,33.8854 C638.2892,38.4343 715.9519,52.4659 769,89 C816.8891,121.9811 854.3134,181.4695 871.1992,211.5362 " fill="none" id="Start-BuildLinuxFx" style="stroke: #A80036; stroke-width: 1.0; stroke-dasharray: 1.0,3.0;"/><!--link Start to BuildMac--><path d="M605.275,33.8769 C656.3175,39.9125 817.6698,60.1256 949,89 C984.8646,96.8852 1024.6146,108.1352 1055.3984,117.4139 " fill="none" id="Start-BuildMac" style="stroke: #A80036; stroke-width: 1.0; stroke-dasharray: 1.0,3.0;"/><!--link Start to BuildWinX64--><path d="M572.7699,33.7743 C518.1285,39.9525 341.5179,61.6426 292,89 C280.4011,95.4081 270.1846,106.1662 262.7327,115.5568 " fill="none" id="Start-BuildWinX64" style="stroke: #A80036; stroke-width: 1.0; stroke-dasharray: 1.0,3.0;"/><!--link Start to BuildWinX86--><path d="M572.8475,32.986 C508.911,37.1057 273.8806,54.3615 209,89 C197.2525,95.2717 187.1368,106.2709 179.8923,115.8247 " fill="none" id="Start-BuildWinX86" style="stroke: #A80036; stroke-width: 1.0; stroke-dasharray: 1.0,3.0;"/><!--link Start to BuildWinFx--><path d="M572.8313,37.0592 C544.8919,46.0382 486.0512,65.9952 439,89 C422.9254,96.8594 405.8053,107.1356 392.085,115.8834 " fill="none" id="Start-BuildWinFx" style="stroke: #A80036; stroke-width: 1.0; stroke-dasharray: 1.0,3.0;"/><!--link Start to BuildWinArm32--><path d="M589,56.1726 C589,74.4352 589,99.1139 589,115.7442 " fill="none" id="Start-BuildWinArm32" style="stroke: #A80036; stroke-width: 1.0; stroke-dasharray: 1.0,3.0;"/><!--link Start to BuildWinArm64--><path d="M572.9333,48.3881 C554.8243,66.8592 525.4712,96.7994 506.7124,115.9333 " fill="none" id="Start-BuildWinArm64" style="stroke: #A80036; stroke-width: 1.0; stroke-dasharray: 1.0,3.0;"/><!--link Start to BuildCG--><path d="M572.8205,32.8394 C494.8461,37.0363 160.2652,56.828 128,89 C68.234,148.5934 84.5296,263.2031 93.7269,307.7046 " fill="none" id="Start-BuildCG" style="stroke: #A80036; stroke-width: 1.0; stroke-dasharray: 1.0,3.0;"/><!--
@startuml

folder "Linux Builds" {
    agent "DEB"  as BuildDEB
    agent "RPM"  as BuildRPM
    agent "Alpine"  as BuildAlpine
    agent "Linux-FxDependent"  as BuildLinuxFx

}

agent "macOS Build"  as BuildMac

folder "Windows Builds" as WinBuilds {
    agent "x64"  as BuildWinX64
    agent "x86"  as BuildWinX86
    agent "arm32"  as BuildWinArm32
    agent "arm64"  as BuildWinArm64
    agent "FxDependent"  as BuildWinFx
}

agent "ComponentRegistration"  as BuildCG

folder "Linux Package Scanning and Upload" {
    agent "DEB"  as UploadDEB
    agent "RPM"  as UploadRPM
    agent "Alpine"  as UploadAlpine
    agent "Linux-FxDependent"  as UploadLinuxFx
}

folder "Package Signing and Upload" {
    agent "macOS"  as SignMac

    agent "Windows"  as SignWin
}


agent "Compliance"  as Compliance

folder "Create & Upload FxDependent DotNet SDK" {
    agent "Linux" as BuildLinuxFxSdk
    agent "Windows" as BuildWinFxSdk
}

control "Finish"  as Finish
control "Start" as Start

BuildDEB -down-> UploadDEB
BuildRPM -down-> UploadRPM
BuildLinuxFx -down-> UploadLinuxFx
BuildAlpine -down-> UploadAlpine

BuildMac -down-> SignMac

WinBuilds -down-> SignWin

BuildWinX86 -down-> Compliance
BuildWinX64 -down-> Compliance
BuildWinFx -down-> Compliance

BuildLinuxFx -down-> BuildLinuxFxSdk
SignWin -down-> BuildWinFxSdk

Compliance ~~ Finish
UploadAlpine ~~ Finish
UploadDEB ~~ Finish
UploadRPM ~~ Finish
UploadLinuxFx ~~ Finish
SignMac ~~ Finish
BuildCG ~~ Finish
BuildLinuxFxSdk ~~ Finish
BuildWinFxSdk ~~ Finish

Start ~~ BuildDEB
Start ~~ BuildRPM
Start ~~ BuildAlpine
Start ~~ BuildLinuxFx
Start ~~ BuildMac
Start ~~ BuildWinX64
Start ~~ BuildWinX86
Start ~~ BuildWinFx
Start ~~ BuildWinArm32
Start ~~ BuildWinArm64
Start ~~ BuildCG

@enduml

PlantUML version 1.2019.00(Sun Jan 13 07:46:42 PST 2019)
(GPL source distribution)
Java Runtime: OpenJDK Runtime Environment
JVM: OpenJDK 64-Bit Server VM
Java Version: 11.0.2+9
Operating System: Mac OS X
OS Version: 10.14.3
Default Encoding: UTF-8
Language: en
Country: US
--></g></svg>