<svg xmlns="http://www.w3.org/2000/svg" xmlns:xlink="http://www.w3.org/1999/xlink" width="1693" height="560" contentScriptType="application/ecmascript" contentStyleType="text/css" style="width:1693px;height:560px" preserveAspectRatio="none" version="1.1" viewBox="0 0 1693 560" zoomAndPan="magnify"><defs><filter id="f1l08wivdvpjam" width="300%" height="300%" x="-1" y="-1"><feGaussianBlur result="blurOut" stdDeviation="2"/><feColorMatrix in="blurOut" result="blurOut2" type="matrix" values="0 0 0 0 0 0 0 0 0 0 0 0 0 0 0 0 0 0 .4 0"/><feOffset dx="4" dy="4" in="blurOut2" result="blurOut3"/><feBlend in="SourceGraphic" in2="blurOut3" mode="normal"/></filter></defs><g><polygon fill="#FFF" points="1198 228 1290 228 1297 251.609 1671 251.609 1671 334 1198 334 1198 228" filter="url(#f1l08wivdvpjam)" style="stroke:#000;stroke-width:1.5"/><line style="stroke:#000;stroke-width:1.5" x1="1198" x2="1297" y1="251.609" y2="251.609"/><text x="1202" y="244.533" fill="#000" font-family="sans-serif" font-size="14" font-weight="bold" lengthAdjust="spacingAndGlyphs" textLength="86">Linux Builds</text><polygon fill="#FFF" points="570 82 687 82 694 105.609 1087 105.609 1087 188 570 188 570 82" filter="url(#f1l08wivdvpjam)" style="stroke:#000;stroke-width:1.5"/><line style="stroke:#000;stroke-width:1.5" x1="570" x2="694" y1="105.609" y2="105.609"/><text x="574" y="98.533" fill="#000" font-family="sans-serif" font-size="14" font-weight="bold" lengthAdjust="spacingAndGlyphs" textLength="111">Windows Builds</text><polygon fill="#FFF" points="1225 366 1484 366 1491 389.609 1663 389.609 1663 456 1225 456 1225 366" filter="url(#f1l08wivdvpjam)" style="stroke:#000;stroke-width:1.5"/><line style="stroke:#000;stroke-width:1.5" x1="1225" x2="1491" y1="389.609" y2="389.609"/><text x="1229" y="382.533" fill="#000" font-family="sans-serif" font-size="14" font-weight="bold" lengthAdjust="spacingAndGlyphs" textLength="253">Linux Package Scanning and Upload</text><polygon fill="#FFF" points="904 228 1109 228 1116 251.609 1148 251.609 1148 334 904 334 904 228" filter="url(#f1l08wivdvpjam)" style="stroke:#000;stroke-width:1.5"/><line style="stroke:#000;stroke-width:1.5" x1="904" x2="1116" y1="251.609" y2="251.609"/><text x="908" y="244.533" fill="#000" font-family="sans-serif" font-size="14" font-weight="bold" lengthAdjust="spacingAndGlyphs" textLength="199">Package Signing and Upload</text><polygon fill="#FFF" points="30 82 168 82 175 105.609 313 105.609 313 334 30 334 30 82" filter="url(#f1l08wivdvpjam)" style="stroke:#000;stroke-width:1.5"/><line style="stroke:#000;stroke-width:1.5" x1="30" x2="175" y1="105.609" y2="105.609"/><text x="34" y="98.533" fill="#000" font-family="sans-serif" font-size="14" font-weight="bold" lengthAdjust="spacingAndGlyphs" textLength="132">Build Test Artifacts</text><rect style="stroke:#a80036;stroke-width:1.5" width="48" height="37.609" x="1241" y="272" fill="#FEFECE" filter="url(#f1l08wivdvpjam)"/><text x="1251" y="296.533" fill="#000" font-family="sans-serif" font-size="14" lengthAdjust="spacingAndGlyphs" textLength="28">DEB</text><rect style="stroke:#a80036;stroke-width:1.5" width="50" height="37.609" x="1324" y="272" fill="#FEFECE" filter="url(#f1l08wivdvpjam)"/><text x="1334" y="296.533" fill="#000" font-family="sans-serif" font-size="14" lengthAdjust="spacingAndGlyphs" textLength="30">RPM</text><rect style="stroke:#a80036;stroke-width:1.5" width="59" height="37.609" x="1409.5" y="272" fill="#FEFECE" filter="url(#f1l08wivdvpjam)"/><text x="1419.5" y="296.533" fill="#000" font-family="sans-serif" font-size="14" lengthAdjust="spacingAndGlyphs" textLength="39">Alpine</text><rect style="stroke:#a80036;stroke-width:1.5" width="143" height="37.609" x="1503.5" y="272" fill="#FEFECE" filter="url(#f1l08wivdvpjam)"/><text x="1513.5" y="296.533" fill="#000" font-family="sans-serif" font-size="14" lengthAdjust="spacingAndGlyphs" textLength="123">Linux-FxDependent</text><rect style="stroke:#a80036;stroke-width:1.5" width="42" height="37.609" x="1002" y="126" fill="#FEFECE" filter="url(#f1l08wivdvpjam)"/><text x="1012" y="150.533" fill="#000" font-family="sans-serif" font-size="14" lengthAdjust="spacingAndGlyphs" textLength="22">x64</text><rect style="stroke:#a80036;stroke-width:1.5" width="42" height="37.609" x="925" y="126" fill="#FEFECE" filter="url(#f1l08wivdvpjam)"/><text x="935" y="150.533" fill="#000" font-family="sans-serif" font-size="14" lengthAdjust="spacingAndGlyphs" textLength="22">x86</text><rect style="stroke:#a80036;stroke-width:1.5" width="60" height="37.609" x="830" y="126" fill="#FEFECE" filter="url(#f1l08wivdvpjam)"/><text x="840" y="150.533" fill="#000" font-family="sans-serif" font-size="14" lengthAdjust="spacingAndGlyphs" textLength="40">arm32</text><rect style="stroke:#a80036;stroke-width:1.5" width="60" height="37.609" x="735" y="126" fill="#FEFECE" filter="url(#f1l08wivdvpjam)"/><text x="745" y="150.533" fill="#000" font-family="sans-serif" font-size="14" lengthAdjust="spacingAndGlyphs" textLength="40">arm64</text><rect style="stroke:#a80036;stroke-width:1.5" width="105" height="37.609" x="594.5" y="126" fill="#FEFECE" filter="url(#f1l08wivdvpjam)"/><text x="604.5" y="150.533" fill="#000" font-family="sans-serif" font-size="14" lengthAdjust="spacingAndGlyphs" textLength="85">FxDependent</text><rect style="stroke:#a80036;stroke-width:1.5" width="48" height="37.609" x="1241" y="402" fill="#FEFECE" filter="url(#f1l08wivdvpjam)"/><text x="1251" y="426.533" fill="#000" font-family="sans-serif" font-size="14" lengthAdjust="spacingAndGlyphs" textLength="28">DEB</text><rect style="stroke:#a80036;stroke-width:1.5" width="50" height="37.609" x="1324" y="402" fill="#FEFECE" filter="url(#f1l08wivdvpjam)"/><text x="1334" y="426.533" fill="#000" font-family="sans-serif" font-size="14" lengthAdjust="spacingAndGlyphs" textLength="30">RPM</text><rect style="stroke:#a80036;stroke-width:1.5" width="59" height="37.609" x="1409.5" y="402" fill="#FEFECE" filter="url(#f1l08wivdvpjam)"/><text x="1419.5" y="426.533" fill="#000" font-family="sans-serif" font-size="14" lengthAdjust="spacingAndGlyphs" textLength="39">Alpine</text><rect style="stroke:#a80036;stroke-width:1.5" width="143" height="37.609" x="1503.5" y="402" fill="#FEFECE" filter="url(#f1l08wivdvpjam)"/><text x="1513.5" y="426.533" fill="#000" font-family="sans-serif" font-size="14" lengthAdjust="spacingAndGlyphs" textLength="123">Linux-FxDependent</text><rect style="stroke:#a80036;stroke-width:1.5" width="66" height="37.609" x="1039" y="272" fill="#FEFECE" filter="url(#f1l08wivdvpjam)"/><text x="1049" y="296.533" fill="#000" font-family="sans-serif" font-size="14" lengthAdjust="spacingAndGlyphs" textLength="46">macOS</text><rect style="stroke:#a80036;stroke-width:1.5" width="76" height="37.609" x="928" y="272" fill="#FEFECE" filter="url(#f1l08wivdvpjam)"/><text x="938" y="296.533" fill="#000" font-family="sans-serif" font-size="14" lengthAdjust="spacingAndGlyphs" textLength="56">Windows</text><rect style="stroke:#a80036;stroke-width:1.5" width="76" height="37.609" x="60" y="126" fill="#FEFECE" filter="url(#f1l08wivdvpjam)"/><text x="70" y="150.533" fill="#000" font-family="sans-serif" font-size="14" lengthAdjust="spacingAndGlyphs" textLength="56">Windows</text><rect style="stroke:#a80036;stroke-width:1.5" width="53" height="37.609" x="171.5" y="126" fill="#FEFECE" filter="url(#f1l08wivdvpjam)"/><text x="181.5" y="150.533" fill="#000" font-family="sans-serif" font-size="14" lengthAdjust="spacingAndGlyphs" textLength="33">Linux</text><rect style="stroke:#a80036;stroke-width:1.5" width="88" height="37.609" x="54" y="272" fill="#FEFECE" filter="url(#f1l08wivdvpjam)"/><text x="64" y="296.533" fill="#000" font-family="sans-serif" font-size="14" lengthAdjust="spacingAndGlyphs" textLength="68">Linux-ARM</text><rect style="stroke:#a80036;stroke-width:1.5" width="104" height="37.609" x="177" y="272" fill="#FEFECE" filter="url(#f1l08wivdvpjam)"/><text x="187" y="296.533" fill="#000" font-family="sans-serif" font-size="14" lengthAdjust="spacingAndGlyphs" textLength="84">Linux-ARM64</text><rect style="stroke:#a80036;stroke-width:1.5" width="101" height="37.609" x="1114.5" y="126" fill="#FEFECE" filter="url(#f1l08wivdvpjam)"/><text x="1124.5" y="150.533" fill="#000" font-family="sans-serif" font-size="14" lengthAdjust="spacingAndGlyphs" textLength="81">macOS Build</text><rect style="stroke:#a80036;stroke-width:1.5" width="161" height="37.609" x="387.5" y="402" fill="#FEFECE" filter="url(#f1l08wivdvpjam)"/><text x="397.5" y="426.533" fill="#000" font-family="sans-serif" font-size="14" lengthAdjust="spacingAndGlyphs" textLength="141">Upload build metadata</text><rect style="stroke:#a80036;stroke-width:1.5" width="169" height="37.609" x="583.5" y="402" fill="#FEFECE" filter="url(#f1l08wivdvpjam)"/><text x="593.5" y="426.533" fill="#000" font-family="sans-serif" font-size="14" lengthAdjust="spacingAndGlyphs" textLength="149">ComponentRegistration</text><rect style="stroke:#a80036;stroke-width:1.5" width="94" height="37.609" x="777" y="272" fill="#FEFECE" filter="url(#f1l08wivdvpjam)"/><text x="787" y="296.533" fill="#000" font-family="sans-serif" font-size="14" lengthAdjust="spacingAndGlyphs" textLength="74">Compliance</text><rect style="stroke:#a80036;stroke-width:1.5" width="276" height="37.609" x="930" y="402" fill="#FEFECE" filter="url(#f1l08wivdvpjam)"/><text x="940" y="426.533" fill="#000" font-family="sans-serif" font-size="14" lengthAdjust="spacingAndGlyphs" textLength="256">Create SDK and Global Tool and Upload</text><ellipse cx="972" cy="516" fill="#FEFECE" filter="url(#f1l08wivdvpjam)" rx="12" ry="12" style="stroke:#a80036;stroke-width:2"/><polygon fill="#A80036" points="968 504 974 499 972 504 974 509 968 504" style="stroke:#a80036;stroke-width:1"/><text x="953" y="546.533" fill="#000" font-family="sans-serif" font-size="14" lengthAdjust="spacingAndGlyphs" textLength="38">Finish</text><ellipse cx="946" cy="24" fill="#FEFECE" filter="url(#f1l08wivdvpjam)" rx="12" ry="12" style="stroke:#a80036;stroke-width:2"/><polygon fill="#A80036" points="942 12 948 7 946 12 948 17 942 12" style="stroke:#a80036;stroke-width:1"/><text x="931" y="54.533" fill="#000" font-family="sans-serif" font-size="14" lengthAdjust="spacingAndGlyphs" textLength="30">Start</text><path id="BuildDEB-UploadDEB" fill="none" d="M1265,310.068 C1265,332.714 1265,371.578 1265,396.511" style="stroke:#a80036;stroke-width:1"/><polygon fill="#A80036" points="1265 401.61 1269 392.61 1265 396.61 1261 392.61 1265 401.61" style="stroke:#a80036;stroke-width:1"/><path id="BuildRPM-UploadRPM" fill="none" d="M1349,310.068 C1349,332.714 1349,371.578 1349,396.511" style="stroke:#a80036;stroke-width:1"/><polygon fill="#A80036" points="1349 401.61 1353 392.61 1349 396.61 1345 392.61 1349 401.61" style="stroke:#a80036;stroke-width:1"/><path id="BuildLinuxFx-UploadLinuxFx" fill="none" d="M1575,310.068 C1575,332.714 1575,371.578 1575,396.511" style="stroke:#a80036;stroke-width:1"/><polygon fill="#A80036" points="1575 401.61 1579 392.61 1575 396.61 1571 392.61 1575 401.61" style="stroke:#a80036;stroke-width:1"/><path id="BuildAlpine-UploadAlpine" fill="none" d="M1439,310.068 C1439,332.714 1439,371.578 1439,396.511" style="stroke:#a80036;stroke-width:1"/><polygon fill="#A80036" points="1439 401.61 1443 392.61 1439 396.61 1435 392.61 1439 401.61" style="stroke:#a80036;stroke-width:1"/><path id="BuildMac-SignMac" fill="none" d="M1147.44,164.036 C1135.64,176.76 1120.25,194.578 1109,212 C1097.65,229.574 1087.68,251.168 1080.96,267.177" style="stroke:#a80036;stroke-width:1"/><polygon fill="#A80036" points="1078.98 271.955 1086.123 265.175 1080.896 267.337 1078.734 262.109 1078.98 271.955" style="stroke:#a80036;stroke-width:1"/><path id="WinBuilds-SignWin" fill="none" d="M1071.1227,188.1926 C1071.0799,188.2871 1071.037,188.3816 1070.9938,188.4759 C1070.9074,188.6645 1070.8201,188.8527 1070.7319,189.0404 C1070.5554,189.4159 1070.3752,189.7896 1070.1912,190.1613 C1069.8231,190.9047 1069.4397,191.6401 1069.0405,192.3656 C1068.242,193.8167 1067.3799,195.2288 1066.4491,196.588 C1064.5875,199.3065 1062.4513,201.8138 1060,204 C1046.79,215.777 1035.81,202.311 1021,212 C1000.596,225.353 985.476,249.13 976.307,266.933" style="stroke:#a80036;stroke-width:1"/><polygon fill="#A80036" points="973.879 271.783 981.485 265.526 976.117 267.312 974.331 261.945 973.879 271.783" style="stroke:#a80036;stroke-width:1"/><path id="BuildWinX86-Compliance" fill="none" d="M935,164.085 C927.58,175.828 917.298,191.261 907,204 C888.324,227.104 864.577,251.264 847.273,268.073" style="stroke:#a80036;stroke-width:1"/><polygon fill="#A80036" points="843.462 271.757 852.714 268.38 847.058 268.283 847.155 262.627 843.462 271.757" style="stroke:#a80036;stroke-width:1"/><path id="BuildWinX64-Compliance" fill="none" d="M1015.85,164.114 C1009.56,177.486 999.048,194.883 984,204 C956.463,220.684 941.426,198.932 912,212 C883.726,224.557 858.09,249.579 841.876,267.909" style="stroke:#a80036;stroke-width:1"/><polygon fill="#A80036" points="838.362 271.945 847.289 267.784 841.645 268.174 841.256 262.531 838.362 271.945" style="stroke:#a80036;stroke-width:1"/><path id="BuildWinFx-Compliance" fill="none" d="M668.688,164.11 C682.479,175.592 700.737,190.728 717,204 C744.291,226.271 775.735,251.493 797.44,268.834" style="stroke:#a80036;stroke-width:1"/><polygon fill="#A80036" points="801.377 271.977 796.842 263.235 797.47 268.856 791.849 269.485 801.377 271.977" style="stroke:#a80036;stroke-width:1"/><path id="PkgSignUpload-BuildNuGet" fill="none" d="M1128.0529,334.0996 C1128.015,334.199 1127.9771,334.2984 1127.939,334.3978 C1127.863,334.5965 1127.7865,334.7952 1127.7098,334.9938 C1127.5562,335.391 1127.4012,335.788 1127.2448,336.1844 C1126.6191,337.7703 1125.9706,339.349 1125.2994,340.9108 C1123.957,344.0343 1122.5238,347.09 1121,350 C1111.97,367.256 1098.75,384.726 1087.77,397.897" style="stroke:#a80036;stroke-width:1"/><polygon fill="#A80036" points="1084.44 401.841 1093.305 397.55 1087.668 398.022 1087.195 392.385 1084.44 401.841" style="stroke:#a80036;stroke-width:1"/><path id="LinuxBuilds-BuildNuGet" fill="none" d="M1197.9782,302.4489 C1197.9236,302.5184 1197.8687,302.5882 1197.8136,302.6583 C1197.5931,302.9385 1197.3689,303.223 1197.1411,303.5117 C1196.6855,304.0889 1196.2153,304.6826 1195.7313,305.2915 C1193.7955,307.7271 1191.6391,310.4055 1189.3088,313.2465 C1179.9875,324.6105 1167.885,338.5755 1156,350 C1137.71,367.585 1115.3,385.359 1097.68,398.597" style="stroke:#a80036;stroke-width:1"/><polygon fill="#A80036" points="1093.31 401.862 1102.917 399.691 1097.319 398.874 1098.136 393.276 1093.31 401.862" style="stroke:#a80036;stroke-width:1"/><path id="Compliance-Finish" fill="none" d="M826.637,310.083 C832.268,343.487 848.092,415.843 885,464 C903.081,487.5915 933.118,505.3521 952.738,515.2143" style="stroke:#a80036;stroke-width:1;stroke-dasharray:1,3"/><path id="UploadAlpine-Finish" fill="none" d="M1422.98,440.271 C1414.38,448.879 1403.08,458.4543 1391,464 C1317.88,497.5828 1063.23,517.6171 991.145,522.7068" style="stroke:#a80036;stroke-width:1;stroke-dasharray:1,3"/><path id="UploadDEB-Finish" fill="none" d="M1250.8,440.277 C1243.37,448.672 1233.62,458.0596 1223,464 C1144.6,507.8556 1035.04,519.8199 991.222,522.9464" style="stroke:#a80036;stroke-width:1;stroke-dasharray:1,3"/><path id="UploadRPM-Finish" fill="none" d="M1334.91,440.111 C1327.28,448.678 1317.13,458.2653 1306,464 C1197.06,520.1182 1044.66,524.6537 991.334,524.3816" style="stroke:#a80036;stroke-width:1;stroke-dasharray:1,3"/><path id="UploadLinuxFx-Finish" fill="none" d="M1543.02,440.193 C1526.5,448.781 1505.71,458.3623 1486,464 C1298.56,517.6086 1059.57,523.4451 991.102,523.9793" style="stroke:#a80036;stroke-width:1;stroke-dasharray:1,3"/><path id="SignMac-Finish" fill="none" d="M1061.55,310.096 C1052.65,323.645 1038.53,341.285 1021,350 C999.252,360.813 928.533,340.209 912,358 C879.93,392.51 893.971,420.475 912,464 C920.231,483.8706 938.589,500.5917 952.845,511.2926" style="stroke:#a80036;stroke-width:1;stroke-dasharray:1,3"/><path id="BuildCG-Finish" fill="none" d="M714.381,440.056 C734.463,447.702 758.297,456.5462 780,464 C842.756,485.5534 918.12,508.164 952.809,518.39" style="stroke:#a80036;stroke-width:1;stroke-dasharray:1,3"/><path id="BuildNuGet-Finish" fill="none" d="M1050.84,440.236 C1034.12,457.9993 1008.74,484.9597 991.324,503.4681" style="stroke:#a80036;stroke-width:1;stroke-dasharray:1,3"/><path id="TestArtifacts-Finish" fill="none" d="M313.0986,250.1395 C313.1559,250.6792 313.2135,251.2198 313.2715,251.7614 C313.3875,252.8445 313.5049,253.9315 313.6238,255.0222 C313.8616,257.2034 314.1053,259.3992 314.355,261.6076 C315.3538,270.4413 316.4487,279.4776 317.647,288.5995 C327.2335,361.5745 343.438,440.0245 370,464 C414.344,504.0257 855.296,520.2962 952.927,523.4229" style="stroke:#a80036;stroke-width:1;stroke-dasharray:1,3"/><path id="BuildMetadata-Finish" fill="none" d="M503.949,440.057 C522.139,448.504 544.805,458.0014 566,464 C711.002,505.0383 893.53,519.2208 952.606,522.9114" style="stroke:#a80036;stroke-width:1;stroke-dasharray:1,3"/><path id="Start-BuildDEB" fill="none" d="M962.193,34.666 C1019.95,37.193 1213.43,47.023 1233,66 C1290.11,121.375 1276.89,229.303 1268.87,271.995" style="stroke:#a80036;stroke-width:1;stroke-dasharray:1,3"/><path id="Start-BuildRPM" fill="none" d="M962.101,34.499 C1025.55,36.604 1256.07,45.608 1281,66 C1344.86,118.238 1350.2,228.481 1349.67,271.889" style="stroke:#a80036;stroke-width:1;stroke-dasharray:1,3"/><path id="Start-BuildAlpine" fill="none" d="M962.398,34.353 C1032.99,36.004 1308.81,43.837 1340,66 C1410.53,116.121 1431.49,228.103 1437.12,271.926" style="stroke:#a80036;stroke-width:1;stroke-dasharray:1,3"/><path id="Start-BuildLinuxFx" fill="none" d="M962.16,34.324 C1039.32,35.978 1368.17,44.259 1408,66 C1494.86,113.411 1549.33,227.503 1567.88,271.897" style="stroke:#a80036;stroke-width:1;stroke-dasharray:1,3"/><path id="Start-BuildMac" fill="none" d="M962.387,34.274 C991.143,35.428 1051.74,40.916 1095,66 C1120.34,80.695 1141.5,107.757 1153.7,125.819" style="stroke:#a80036;stroke-width:1;stroke-dasharray:1,3"/><path id="Start-BuildWinX64" fill="none" d="M962.109,45.192 C969.426,50.834 977.809,58.141 984,66 C998.523,84.434 1009.76,109.139 1016.36,125.765" style="stroke:#a80036;stroke-width:1;stroke-dasharray:1,3"/><path id="Start-BuildWinX86" fill="none" d="M946,58.14 C946,78.504 946,107.214 946,125.717" style="stroke:#a80036;stroke-width:1;stroke-dasharray:1,3"/><path id="Start-BuildWinFx" fill="none" d="M929.752,34.828 C883.849,37.392 754.12,46.243 717,66 C690.98,79.849 669.86,107.406 657.858,125.775" style="stroke:#a80036;stroke-width:1;stroke-dasharray:1,3"/><path id="Start-BuildWinArm32" fill="none" d="M929.728,45.348 C922.276,51.024 913.645,58.315 907,66 C890.971,84.536 877.122,109.221 868.69,125.813" style="stroke:#a80036;stroke-width:1;stroke-dasharray:1,3"/><path id="Start-BuildWinArm64" fill="none" d="M929.912,33.967 C902.962,34.692 848.102,39.597 812,66 C791.454,81.026 778.162,108.003 771.125,125.956" style="stroke:#a80036;stroke-width:1;stroke-dasharray:1,3"/><path id="Start-BuildCG" fill="none" d="M929.983,34.15 C862.298,34.945 602.107,39.706 578,66 C486.721,165.56 609.641,344.512 653.509,401.819" style="stroke:#a80036;stroke-width:1;stroke-dasharray:1,3"/><path id="Start-TestArtifacts" fill="none" d="M929.91,33.95 C853.529,33.871 527.245,35.363 431,66 C400.111,75.8325 369.105,94.8815 345.58,111.6926 C333.8175,120.0982 323.9253,127.9443 316.853,133.7991 C315.969,134.531 315.129,135.2317 314.3349,135.8985 C313.9379,136.2319 313.5524,136.5569 313.1785,136.873" style="stroke:#a80036;stroke-width:1;stroke-dasharray:1,3"/><path id="Start-BuildMetadata" fill="none" d="M929.862,34.136 C857.808,34.889 567.731,39.558 538,66 C437.822,155.098 456.214,342.607 464.945,401.736" style="stroke:#a80036;stroke-width:1;stroke-dasharray:1,3"/></g></svg>