<svg xmlns="http://www.w3.org/2000/svg" xmlns:xlink="http://www.w3.org/1999/xlink" id="Layer_1" width="128" height="128" x="0" y="0" enable-background="new 0 0 128 128" version="1.1" viewBox="0 0 128 128" xml:space="preserve"><g id="_x31_28_2_"><path fill="#EC008C" fill-rule="evenodd" d="M8.027,109c-1.634,0-3.047-0.638-3.978-1.798 c-0.952-1.184-1.279-2.814-0.896-4.47l17.986-77.911C21.892,21.557,25.056,19,28.342,19h89.623c1.634,0,3.047,0.638,3.978,1.798 c0.952,1.184,1.279,2.814,0.896,4.47l-17.986,77.911C104.1,106.443,100.936,109,97.65,109H8.027z" clip-rule="evenodd"/><path fill="#00A3C9" fill-rule="evenodd" d="M28.632,20h88.873c2.769,0,4.497,2.259,3.859,5.045 l-17.835,77.911c-0.638,2.786-3.399,5.045-6.168,5.045H8.487c-2.769,0-4.497-2.258-3.859-5.045l17.835-77.911 C23.102,22.259,25.863,20,28.632,20z" clip-rule="evenodd"/><path fill="#461466" d="M38.069,71.113c-0.055-0.238,0.148-0.59,0.463-0.8c4.256-2.841,8.538-7.807,12.726-14.759 c4.058-6.736,9.946-9.873,18.528-9.873c4.122,0,8.294,0.717,11.975,1.35l0.706,0.121c2.428,0.416,4.837,0.626,7.158,0.626 c0.001,0,0.001,0,0.002,0c11.024,0,20.824-4.653,29.775-14.162l1.962-8.572c0.638-2.786-1.09-5.045-3.859-5.045H28.632 c-2.769,0-5.531,2.259-6.168,5.045L4.628,102.955C3.991,105.742,5.718,108,8.487,108h37.144c0-5.988-1.404-13.127-3.816-22.165 C40.656,81.488,39.341,76.56,38.069,71.113z"/><path fill="#EC008C" d="M120.704,24.561c-7.628,6.201-22.885,14.635-39.993,7.489C72.742,28.72,25.764,9.43,16.905,49.117 c-4.535,20.316,14.965,32.246,18.074,58.539h4.087c-0.027-0.255-0.057-0.504-0.081-0.769c-2.685-29.493-19.428-37.922-11.5-57.655 c5.386-13.407,19.118-16.376,26.378-16.837c10.508-0.667,24.746,5.048,35.283,5.903c14.087,1.144,23.433-4.805,31.559-12.746 V24.561z"/><path fill="#2C5591" fill-rule="evenodd" d="M76.825,66.436 c-0.366,0.743-1.126,1.563-2.47,2.514L34.871,97.534c-2.156,1.579-5.25,0.993-6.911-1.309c-1.661-2.302-1.26-5.447,0.896-7.026 l35.605-25.99v-0.534L42.09,38.686c-1.825-1.957-1.635-5.121,0.424-7.068c2.059-1.947,5.207-1.939,7.032,0.018L76.39,60.421 C77.914,62.055,78.027,64.53,76.825,66.436z" clip-rule="evenodd" opacity=".8"/><path fill="#FFF" fill-rule="evenodd" d="M75.841,65.444c-0.366,0.743-1.126,1.563-2.47,2.514 L33.887,96.542c-2.156,1.579-5.25,0.993-6.911-1.309c-1.661-2.302-1.26-5.447,0.896-7.026l35.605-25.99v-0.534l-22.371-23.99 c-1.825-1.957-1.635-5.121,0.424-7.068c2.059-1.947,5.207-1.939,7.032,0.018l26.844,28.785 C76.929,61.063,77.043,63.538,75.841,65.444z" clip-rule="evenodd"/><path fill="#2C5591" fill-rule="evenodd" d="M62.966,87.316h21.473 c2.497,0,4.521,2.11,4.521,4.713c0,2.603-2.024,4.713-4.521,4.713H62.966c-2.497,0-4.52-2.11-4.52-4.713 C58.446,89.426,60.47,87.316,62.966,87.316z" clip-rule="evenodd" opacity=".8"/><path fill="#FFF" fill-rule="evenodd" d="M61.982,86.324h21.473c2.497,0,4.521,2.11,4.521,4.713 c0,2.603-2.024,4.713-4.521,4.713H61.982c-2.497,0-4.52-2.11-4.52-4.713C57.462,88.434,59.485,86.324,61.982,86.324z" clip-rule="evenodd"/></g></svg>