<svg xmlns="http://www.w3.org/2000/svg" xmlns:xlink="http://www.w3.org/1999/xlink" id="Layer_1" width="128" height="128" x="0" y="0" enable-background="new 0 0 128 128" version="1.1" viewBox="0 0 128 128" xml:space="preserve"><path fill="#59B4D9" d="M111.761,56.531c0-10.772-4.692-20.482-12.18-27.29c-6.78-6.165-15.851-9.948-25.838-10.004v-0.003	c-0.037,0-0.074,0.001-0.111,0.001c-0.037,0-0.074-0.001-0.111-0.001v0.003c-21.017,0.117-38.018,16.768-38.018,37.294	c0,5.451,0.865,10.734,1.07,16.113c0.002-0.03,0.004-0.051,0.004-0.051s-0.001,0.021-0.004,0.051	c0.007,0.176,0.019,0.351,0.024,0.526c0.102,3.41,0.259,6.825,0.572,10.223c1.357,9.026,5.379,21.891,16.887,31.289	c5.455,4.455,12.313,8.737,19.356,8.755c0.036,0,0.073,0,0.109,0c0,0,0.111,0,0.222,0c0.039,0,0.078,0,0.116,0	c7.037-0.018,13.891-4.295,19.343-8.745c11.477-9.366,15.512-22.178,16.883-31.203c0.319-3.43,0.479-6.877,0.581-10.319	C110.833,67.609,111.761,62.16,111.761,56.531z"/><path fill="#1E1E1E" d="M73.412,125.5c-6.326-0.016-13.083-3.031-20.661-9.22	c-11.989-9.791-16.2-23.121-17.621-32.579l-0.009-0.058l-0.005-0.059c-0.278-3.012-0.457-6.204-0.58-10.351	c-0.003-0.084-0.026-0.572-0.026-0.572c-0.088-2.246-0.299-4.54-0.502-6.759c-0.279-3.037-0.567-6.177-0.567-9.37	c0-20.907,16.873-38.131,38.018-39.294v-0.062l4.347-0.003v0.064c9.383,0.515,18.252,4.194,25.164,10.479	c8.169,7.428,12.855,17.931,12.855,28.816c0,3.191-0.29,6.329-0.57,9.363c-0.223,2.409-0.452,4.9-0.525,7.338	c-0.125,4.195-0.307,7.418-0.589,10.449l-0.006,0.059l-0.009,0.059c-1.433,9.433-5.653,22.726-17.618,32.491	c-7.573,6.181-14.325,9.193-20.642,9.21H73.412z" opacity=".75"/><path fill="#59B4D9" d="M111.761,56.531c0-10.772-4.692-20.482-12.18-27.29c-6.78-6.165-15.851-9.948-25.838-10.004v-0.003	c-0.037,0-0.074,0.001-0.111,0.001c-0.037,0-0.074-0.001-0.111-0.001v0.003c-21.017,0.117-38.018,16.768-38.018,37.294	c0,5.451,0.865,10.734,1.07,16.113c0.002-0.03,0.004-0.051,0.004-0.051s-0.001,0.021-0.004,0.051	c0.007,0.176,0.019,0.351,0.024,0.526c0.102,3.41,0.259,6.825,0.572,10.223c1.357,9.026,5.379,21.891,16.887,31.289	c5.455,4.455,12.313,8.737,19.356,8.755c0.036,0,0.073,0,0.109,0c0,0,0.111,0,0.222,0c0.039,0,0.078,0,0.116,0	c7.037-0.018,13.891-4.295,19.343-8.745c11.477-9.366,15.512-22.178,16.883-31.203c0.319-3.43,0.479-6.877,0.581-10.319	C110.833,67.609,111.761,62.16,111.761,56.531z"/><path fill="#FFF" d="M37.367,48.443c-0.316,1.347-0.56,2.719-0.718,4.117c-0.019,0.178-0.04,0.355-0.056,0.533	c-0.025,0.255-0.041,0.511-0.06,0.767c-0.029,0.415-0.059,0.83-0.075,1.25l48.838,26.924L48.298,109.02	c1.359,1.597,2.771,3.093,4.462,4.561l46.094-31.24L37.367,48.443z"/><path fill="#68217A" d="M95.418,55.49c5.443,0,12.739,0.878,15.802,10l0-0.001c0.274-2.964,0.541-5.935,0.541-8.958	c0-10.772-4.692-20.482-12.18-27.29C100.201,31.338,101.971,48.94,95.418,55.49z" opacity=".8"/><path fill="#1E1E1E" d="M95.418,55.49c5.443,0,12.739,0.878,15.802,10l0-0.001c0.274-2.964,0.541-5.935,0.541-8.958	c0-10.772-4.692-20.482-12.18-27.29C100.201,31.338,101.971,48.94,95.418,55.49z" opacity=".2"/><path fill="#68217A" d="M90.17,7.782C78.76-0.976,58.834-0.402,44.754,8.414C35.62,14.133,25.477,12.409,22.2,24.107	c-0.617,2.202,0.261,10.129-3.104,15.755S6.33,50.065,5.344,59.903c-1.569,15.653,8.079,27.143,12.373,31.709	c5.206,5.537,7.521,5.459,5.395,13.034c-1.056,3.762-1.895,7.636-1.895,11.564c0,7.993,0.607,9.043,7.205,9.043	c11.121,0,17.71-0.471,21.245-14.692c-8.183-8.796-11.328-19.402-12.496-27.167c-0.313-3.399-0.471-6.813-0.572-10.223	c-0.005-0.176-0.017-0.351-0.024-0.526c-0.002-0.055-0.006-0.11-0.009-0.165c0.004,0.038,0.009,0.075,0.012,0.114l8.776-10.934	c4.18-5.208,11.087-6.453,17.759-6.146h0c12.294,0,27.745-3.755,35.233-17.736C106.189,23.129,97.252,13.219,90.17,7.782z"/><path fill="#1E1E1E" d="M90.17,7.782C78.76-0.976,58.834-0.402,44.754,8.414C35.62,14.133,25.477,12.409,22.2,24.107	c-0.617,2.202,0.261,10.129-3.104,15.755S6.33,50.065,5.344,59.903c-1.569,15.653,8.079,27.143,12.373,31.709	c5.206,5.537,7.521,5.459,5.395,13.034c-1.056,3.762-1.895,7.636-1.895,11.564c0,7.993,0.607,9.043,7.205,9.043	c11.121,0,17.71-0.471,21.245-14.692c-8.183-8.796-11.328-19.402-12.496-27.167c-0.313-3.399-0.471-6.813-0.572-10.223	c-0.005-0.176-0.017-0.351-0.024-0.526c-0.002-0.055-0.006-0.11-0.009-0.165c0.004,0.038,0.009,0.075,0.012,0.114l8.776-10.934	c4.18-5.208,11.087-6.453,17.759-6.146h0c12.294,0,27.745-3.755,35.233-17.736C106.189,23.129,97.252,13.219,90.17,7.782z" opacity=".3"/><path fill="#59B4D9" d="M90.789,91.68c-2.305,0-4.367-0.453-6.128-1.347c-3.642-1.848-5.905-5.251-5.905-8.883v-1.383l1.107-0.828	c0.054-0.04,6.373-4.452,13.166-7.266c6.205-2.57,13.39-4.183,13.693-4.25l4.099-0.912l-0.787,4.125	c-0.056,0.293-1.352,6.82-6.195,10.534c-1.706,5.828-5.409,9.379-10.511,10.04C92.457,91.622,91.603,91.68,90.789,91.68	L90.789,91.68z"/><path fill="#68217A" d="M81.516,81.45c0,0,6.061-4.231,12.569-6.926c6.054-2.507,13.236-4.106,13.236-4.106s-1.227,6.429-5.89,9.367	L81.516,81.45z"/><path fill="#1E1E1E" d="M81.516,81.45c0,0,6.061-4.231,12.569-6.926c6.054-2.507,13.236-4.106,13.236-4.106	s-1.227,6.429-5.89,9.367L81.516,81.45z" opacity=".4"/><path fill="#FFF" d="M92.971,88.772c5.655-0.733,8.541-5.803,9.121-13.318c0,0-4.082,0.48-10.861,2.602	c-4.77,1.493-9.715,3.394-9.715,3.394c0,2.705,1.832,5.121,4.393,6.421C88.066,88.965,90.613,89.078,92.971,88.772z"/><path fill="#68217A" d="M65.745,81.45c0,0-6.061-4.231-12.569-6.926c-6.054-2.507-13.236-4.106-13.236-4.106s1.227,6.429,5.89,9.367	L65.745,81.45z"/><path fill="#1E1E1E" d="M65.745,81.45c0,0-6.061-4.231-12.569-6.926c-6.054-2.507-13.236-4.106-13.236-4.106	s1.227,6.429,5.89,9.367L65.745,81.45z" opacity=".4"/><path fill="#FFF" d="M54.29,88.772c-5.655-0.733-8.541-5.803-9.121-13.318c0,0,4.082,0.48,10.861,2.602	c4.77,1.493,9.715,3.394,9.715,3.394c0,2.705-1.832,5.121-4.393,6.421C59.195,88.965,56.648,89.078,54.29,88.772z"/><path fill="#FFF" d="M103.869,102.068H81.516v6.27h17.947C101.171,106.309,102.627,104.201,103.869,102.068z"/><path fill="#EC008C" d="M29.596,107.671c-0.236,7.214,3.282,11.828,7.445,14.201c-3.154-3.248-4.298-6.559-4.598-10.266	c-0.446-5.499,4.26-5.388,3.049-15.364C34.15,85.193,21.27,71.336,27.273,58.588c4.025-8.547,13.882-8.104,18.661-8.404	c6.918-0.435,13.689,1.507,20.636,1.102c10.592-0.617,25.215-11.439,29.54-18.066c-6.228,6.496-20.171,18.266-36.388,14.146	c-8.651-2.198-17.725-3.594-26.377-0.861c-8.566,2.706-13.504,9.593-13.483,18.577c0.028,12.027,7.256,15.566,10.87,26.635	C34.035,101.835,29.739,103.299,29.596,107.671z"/><path fill="#EC008C" d="M28.084,38.708c5.91-4.71,12.752-3.908,16.365-2.635c5.23,1.842,6.561,4.502,13.934,7.263	c7.949,2.976,17.003,2.296,31.201-5.913c0,0-18.846,11.869-33.069,1.776c-5.823-4.132-6.996-7.107-14.223-7.799	C35.139,30.714,31.282,34.152,28.084,38.708z"/><path fill="#EC008C" d="M64.671,12.632c0,0,30.747-9.182,34.183,14.978C98.854,27.611,98.097,10.833,64.671,12.632z"/><rect id="_x3C_Slice_x3E__7_" width="128" height="128" fill="none"/></svg>