<svg xmlns="http://www.w3.org/2000/svg" xmlns:svg="http://www.w3.org/2000/svg" id="svg2" width="1056" height="816" version="1.1" viewBox="0 0 1056 816" xml:space="preserve"><metadata id="metadata8"/><defs id="defs6"><clipPath id="clipPath18" clipPathUnits="userSpaceOnUse"><path id="path16" d="M 0,612 H 792 V 0 H 0 Z"/></clipPath><clipPath id="clipPath106" clipPathUnits="userSpaceOnUse"><path id="path104" d="m 455.241,397.254 -42.29,-28.417 c -1.251,-0.84 -1.583,-2.534 -0.743,-3.784 v 0 l 4.821,-7.173 c 0.839,-1.251 2.533,-1.584 3.783,-0.744 v 0 l 42.291,28.418 c 1.25,0.839 1.582,2.534 0.743,3.784 v 0 l -4.821,7.173 c -0.526,0.784 -1.388,1.207 -2.266,1.207 v 0 c -0.523,0 -1.052,-0.15 -1.518,-0.464"/></clipPath><clipPath id="clipPath134" clipPathUnits="userSpaceOnUse"><path id="path132" d="M 0,612 H 792 V 0 H 0 Z"/></clipPath></defs><g id="g10" transform="matrix(1.3333333,0,0,-1.3333333,0,816)"><g id="g14" clip-path="url(#clipPath18)"><g id="g20" transform="translate(423.243,435.3002)"><path id="path22" d="m 0,0 c -0.234,-1.788 -0.313,-3.7 0.926,-5.107 1.2,-1.363 3.215,-1.628 4.72,-2.646 2.198,-1.487 2.348,-4.666 2.819,-7.088 0.647,-3.336 1.295,-6.67 1.943,-10.005 0.451,-2.325 0.457,-6.652 3.071,-7.752 0.615,-0.259 1.307,-0.233 1.973,-0.19 4.102,0.264 8.163,1.027 12.11,2.162 3.71,1.067 7.457,2.33 11.321,1.179 4.537,-1.353 8.575,-4.659 10.499,-9.022 2.258,-5.117 2.111,-12.364 -2.031,-16.518 -0.73,-0.732 -1.586,-1.388 -2.026,-2.323 -0.678,-1.442 -0.2,-3.058 -0.182,-4.572 0.017,-1.47 -0.35,-2.959 -0.904,-4.314 -1.155,-2.823 -3.247,-5.157 -5.509,-7.151 -3.751,-3.307 -7.592,-6.511 -11.519,-9.608 -3.045,-2.401 -6.114,-5.092 -9.969,-6.055 -3.751,-1.183 -7.791,-1.365 -11.636,-0.543 -0.888,0.189 -3.394,1.241 -3.413,-0.477 -0.006,-0.586 0.37,-1.082 0.678,-1.548 5.961,-8.996 14.27,-16.392 22.017,-23.808 14.263,-13.654 29.316,-26.749 40.829,-42.908 0.284,-0.399 0.566,-0.8 0.846,-1.203 2.994,-4.317 5.539,-8.594 7.781,-13.076 l 2.588,-6.254 c 1.826,-4.41 -2.15,-9.019 -6.781,-7.861 l -9.171,2.293 c -9.387,2.821 -17.973,4.742 -26.232,5.866 -1.047,0.143 -2.122,0.287 -3.22,0.428 -2.59,0.333 -4.561,-2.274 -3.526,-4.67 l 21.874,-50.614 14.465,-19.494 c 1.243,-1.59 2.013,-3.477 2.229,-5.481 0.417,-3.841 -1.26,-7.704 -4.527,-10.013 -1.891,-1.337 -4.196,-1.961 -6.512,-1.961 H 23.425 c -4.247,0 -8.1,2.487 -9.849,6.357 l -0.342,0.757 -4.938,20.139 -0.065,0.2 -20.137,51.269 -1.379,3.158 c -1.095,2.505 -4.29,3.333 -6.409,1.608 -2.832,-2.305 -5.191,-5.007 -7.112,-8.13 -6.403,-10.414 -5.459,-23.018 -4.533,-34.678 0.158,-1.991 0.288,-4.118 -0.694,-5.857 -1.744,-3.089 -6.3,-3.769 -7.879,-6.945 -2.263,-4.551 -0.701,-11.254 -0.467,-16.157 0.146,-3.045 -0.975,-6.052 -3.075,-8.255 -2.1,-2.203 -5.05,-3.466 -8.093,-3.466 h -31.227 c -4.616,0 -8.76,2.737 -10.493,7.118 -1.055,2.672 -0.942,5.667 0.09,8.347 l 2.116,5.498 h 0.072 c 3.404,8.848 5.385,18.18 5.871,27.648 l 0.865,16.885 c 0.476,9.275 -0.606,18.54 -2.901,27.539 -4.74,18.583 -5.083,40.221 -1.006,64.544 0.645,3.85 1.41,7.679 2.259,11.489 0.395,1.778 0.772,2.784 -0.147,4.433 -0.726,1.305 -1.799,2.408 -3.003,3.28 -1.696,1.227 -3.662,2.025 -5.648,2.686 -2.454,0.815 -5.018,1.458 -7.171,2.89 -3.211,2.136 -3.572,5.517 -4.417,8.966 -0.622,2.543 -1.246,5.085 -1.869,7.627 -0.473,1.928 -1.516,3.669 -2.993,4.995 l -14.622,13.123 c -7.379,6.624 -8.176,18.175 -1.777,25.751 0.03,0.036 0.312,0.373 0.312,0.373 l 0.164,0.172 c 1.948,2.148 4.411,3.826 7.128,4.856 6.412,2.432 12.972,4.494 19.231,7.318 3.154,1.424 6.295,3.016 9.143,4.994 2.139,1.487 4.718,2.892 6.129,5.169 1.642,2.653 0.753,5.612 0.283,8.469 -0.584,3.552 -0.71,7.178 -0.22,10.75 0.772,5.612 2.922,11.333 7.222,15.198 0.569,0.511 1.181,1.009 1.527,1.692 0.232,0.455 0.327,0.965 0.421,1.467 0.398,2.135 0.56,4.57 1.41,6.552 0.841,1.959 2.171,3.83 3.573,5.425 3.304,3.757 7.648,6.551 12.15,8.659 0.333,0.156 0.667,0.308 1.002,0.461 4.082,1.856 10.331,4.069 16.919,4.069 6.932,0 12.912,-2.442 17.292,-7.064 1.762,-1.86 3.108,-4.075 4.003,-6.473 1.248,-3.344 0.722,-7.575 3.061,-10.452 1.075,-1.323 2.65,-2.116 4.099,-3.014 4.151,-2.576 7.658,-6.399 9.974,-10.698 C -1.07,17.339 0.074,14.013 0.563,10.559 0.996,7.503 0.621,4.419 0.197,1.385 0.135,0.94 0.062,0.474 0,0" style="fill:#fff;fill-opacity:1;fill-rule:nonzero;stroke:none"/></g><g id="g28" transform="translate(397.6248,371.9206)"><path id="path30" d="m 0,0 3.42,-19.982 c 2.797,2.916 3.269,5.373 3.269,5.373 L -0.17,0.371" style="fill:#242859;fill-opacity:1;fill-rule:nonzero;stroke:none"/></g><g id="g32" transform="translate(482.4383,270.6743)"><path id="path34" d="m 0,0 c -7.458,10.755 -16.655,19.85 -26.297,29.299 -13.046,12.786 -27.579,24.448 -38.011,39.499 -8.978,12.954 -13.14,28.055 -15.256,43.552 -0.852,6.237 -0.03,17.375 -1.698,23.456 -2.009,7.325 -5.824,17.486 -10.97,23.165 -6.01,-0.301 -12.205,-0.051 -18.267,-0.051 2.283,-1.895 5.215,-3.494 8.98,-4.517 -3.765,1.023 -6.697,2.622 -8.98,4.517 h -6.69 l -2.336,-16.044 c -1.419,-10.208 -2.692,-20.404 -4.216,-30.395 -0.954,-6.257 -2.415,-12.54 -4.072,-18.661 -3.889,-14.37 -8.173,-28.736 -10.638,-43.437 -4.551,-27.146 -4.52,-57.57 9.298,-82.324 0.575,-1.031 1.173,-2.05 1.791,-3.056 3.015,-4.905 6.516,-9.868 10.648,-13.902 2.005,-1.957 4.627,-4.3 6.846,-6.414 0.941,-0.898 10.194,-7.318 10.194,-7.318 -1.226,12.674 -0.82,25.845 6.034,36.994 9.038,14.702 25.068,20.629 41.569,22.18 9.565,0.899 19.387,-0.237 28.866,-1.528 9.351,-1.274 18.591,-3.454 27.625,-6.17 l 2.708,-0.819 C 5.001,-7.722 2.607,-3.76 0,0" style="fill:#141a25;fill-opacity:1;fill-rule:nonzero;stroke:none"/></g><g id="g36" transform="translate(381.162,363.6682)"><path id="path38" d="m 0,0 -17.306,-0.293 c -11.162,-11.149 -11.794,-31.184 -12.562,-39.72 -2.35,-26.083 -1.546,-51.965 -0.578,-78.06 0.103,-2.806 2.243,-28.717 0.523,-29.231 l 19.512,5.832 4.643,63.092 z" style="fill:#242859;fill-opacity:1;fill-rule:nonzero;stroke:none"/></g><g id="g40" transform="translate(350.8563,245.2038)"><path id="path42" d="M 0,0 9.032,-0.427 9.064,52.764 -0.697,61.57 C -0.972,55.383 -1.102,49.201 -1.127,43.02 -1.078,29.519 -0.801,16.356 -0.141,2.448 -0.122,2.042 -0.074,1.181 0,0" style="fill:#396bbc;fill-opacity:1;fill-rule:nonzero;stroke:none"/></g><g id="g44" transform="translate(351.5077,215.6113)"><path id="path46" d="M 0,0 -0.538,1.799 C -0.756,1.734 -0.87,1.595 -0.896,1.547 c 0.137,0.257 0.559,1.757 0.234,10.261 -0.198,5.184 -0.588,10.944 -0.846,14.756 -0.118,1.748 -0.203,3.01 -0.222,3.532 -1.032,27.794 -1.7,52.862 0.581,78.179 0.053,0.6 0.107,1.25 0.165,1.946 0.767,9.282 2.194,26.561 13.633,38 l 1.328,-1.328 C 3.024,135.941 1.635,119.109 0.888,110.066 0.829,109.366 0.775,108.71 0.721,108.106 -1.549,82.899 -0.883,57.895 0.146,30.166 0.164,29.672 0.249,28.422 0.366,26.691 2.042,1.894 1.319,0.394 0,0" style="fill:#2b3582;fill-opacity:1;fill-rule:nonzero;stroke:none"/></g><g id="g48" transform="translate(376.9002,304.8054)"><path id="path50" d="M 0,0 2.733,36.711 -9.261,58.716 h -3.783 l -3.968,-42.13 z" style="fill:#396bbc;fill-opacity:1;fill-rule:nonzero;stroke:none"/></g><g id="g52" transform="translate(445.9588,237.8317)"><path id="path54" d="m 0,0 c -6.829,0.014 -15.725,-0.348 -22.554,-0.335 l -42.529,103.974 24.336,7.697 z" style="fill:#1c2649;fill-opacity:1;fill-rule:nonzero;stroke:none"/></g><g id="g56" transform="translate(404.6024,320.2001)"><path id="path58" d="M 0,0 -4.209,21.514 -21.672,13.047 -8.729,-15.395 Z" style="fill:#235094;fill-opacity:1;fill-rule:nonzero;stroke:none"/></g><g id="g60" transform="translate(302.3338,393.3449)"><path id="path62" d="m 0,0 -0.192,0.507 c -1.622,4.281 0.551,9.111 4.833,10.734 l 44.005,16.683 c 4.28,1.622 9.11,-0.552 10.733,-4.833 l 0.192,-0.507 C 61.194,18.303 59.02,13.473 54.739,11.851 L 10.734,-4.832 C 6.453,-6.455 1.623,-4.281 0,0" style="fill:#141a25;fill-opacity:1;fill-rule:nonzero;stroke:none"/></g><g id="g64" transform="translate(329.3788,403.7802)"><path id="path66" d="M 0,0 -2.959,8.245 7.905,12.39 10.864,4.146 Z" style="fill:#242859;fill-opacity:1;fill-rule:nonzero;stroke:none"/></g><g id="g68" transform="translate(432.1551,361.3427)"><path id="path70" d="m 0,0 0.508,0.19 c 4.289,1.6 6.489,6.419 4.888,10.708 L -11.055,54.99 c -1.6,4.289 -6.419,6.489 -10.708,4.888 l -0.508,-0.189 C -26.561,58.088 -28.76,53.27 -27.16,48.981 L -10.708,4.889 C -9.108,0.6 -4.289,-1.6 0,0" style="fill:#141a25;fill-opacity:1;fill-rule:nonzero;stroke:none"/></g><g id="g72" transform="translate(419.5321,368.9941)"><path id="path74" d="m 0,0 c 0,-8.174 6.324,-14.8 14.124,-14.8 7.801,0 14.125,6.626 14.125,14.8 0,8.174 -6.324,14.8 -14.125,14.8 C 6.324,14.8 0,8.174 0,0" style="fill:#d3d2d2;fill-opacity:1;fill-rule:nonzero;stroke:none"/></g><g id="g76" transform="translate(419.5409,368.6508)"><path id="path78" d="m 0,0 c 0.175,-8.015 6.425,-14.457 14.116,-14.457 7.691,0 13.941,6.442 14.115,14.457 z" style="fill:#a7a5a6;fill-opacity:1;fill-rule:nonzero;stroke:none"/></g><g id="g80" transform="translate(433.3348,383.6259)"><path id="path82" d="m 0,0 1.167,-1.668 c 1.299,-1.855 3.88,-2.311 5.735,-1.012 l 6.394,4.476 c 1.855,1.299 2.31,3.88 1.013,5.735 l -1.168,1.668 c -1.299,1.855 -3.88,2.311 -5.735,1.012 L 1.012,5.735 C -0.844,4.436 -1.299,1.855 0,0" style="fill:#3684b1;fill-opacity:1;fill-rule:nonzero;stroke:none"/></g><g id="g84" transform="translate(440.7713,393.8586)"><path id="path86" d="M 0,0 C 1.839,1.287 4.396,0.836 5.682,-1.002 L 6.894,-2.733 C 8.18,-4.571 7.729,-7.128 5.891,-8.414 l -4.81,-3.368 -5.875,8.426 z" style="fill:#141a25;fill-opacity:1;fill-rule:nonzero;stroke:none"/></g><g id="g88" transform="translate(415.3387,358.1713)"><path id="path90" d="M 0,0 1.028,0.691 -2.47,5.898 -3.499,5.207 C -4.16,4.762 -4.336,3.866 -3.892,3.205 l 1.89,-2.812 C -1.558,-0.269 -0.662,-0.444 0,0" style="fill:#fbc827;fill-opacity:1;fill-rule:nonzero;stroke:none"/></g><g id="g92" transform="translate(463.6629,385.9296)"><path id="path94" d="m 0,0 -43.41,-29.169 c -0.941,-0.632 -2.217,-0.382 -2.849,0.559 l -5.572,8.293 c -0.632,0.941 -0.382,2.216 0.559,2.848 L -7.862,11.7 c 0.941,0.633 2.216,0.383 2.848,-0.559 L 0.559,2.849 C 1.191,1.908 0.94,0.632 0,0" style="fill:#662272;fill-opacity:1;fill-rule:nonzero;stroke:none"/></g><g id="g96" transform="translate(463.1854,390.3215)"><path id="path98" d="M 0,0 1.028,0.691 C 1.689,1.136 1.865,2.032 1.421,2.693 L -0.468,5.505 C -0.912,6.167 -1.809,6.342 -2.47,5.898 L -3.499,5.207 Z" style="fill:#fbc827;fill-opacity:1;fill-rule:nonzero;stroke:none"/></g></g><g id="g100"><g id="g102" clip-path="url(#clipPath106)"><g id="g108" transform="translate(458.3045,390.5622)"><path style="fill:#a81890;fill-opacity:1;fill-rule:nonzero;stroke:none" id="path110" d="m 0,0 c -0.261,0 -0.516,-0.08 -0.733,-0.233 -0.282,-0.197 -0.47,-0.491 -0.53,-0.829 -0.059,-0.338 0.017,-0.679 0.213,-0.96 0.406,-0.581 1.21,-0.722 1.79,-0.316 0.58,0.406 0.722,1.209 0.316,1.789 C 0.859,-0.267 0.564,-0.08 0.227,-0.02 0.151,-0.007 0.075,0 0,0 m 0.007,-3.509 c -0.702,0 -1.394,0.331 -1.825,0.948 -0.341,0.487 -0.472,1.077 -0.37,1.662 0.104,0.585 0.429,1.095 0.916,1.435 0.487,0.341 1.077,0.472 1.662,0.369 C 0.975,0.802 1.484,0.477 1.825,-0.01 2.528,-1.015 2.283,-2.404 1.278,-3.107 0.892,-3.378 0.446,-3.509 0.007,-3.509"/></g><g id="g112" transform="translate(457.3016,390.2446)"><path style="fill:#a81890;fill-opacity:1;fill-rule:nonzero;stroke:none" id="path114" d="m 0,0 c -0.147,0 -0.294,0.07 -0.385,0.201 l -2.358,3.38 C -2.798,3.66 -2.827,3.753 -2.827,3.849 v 4.609 c 0,0.26 0.21,0.47 0.47,0.47 0.258,0 0.468,-0.21 0.468,-0.47 V 3.997 L 0.385,0.738 C 0.533,0.525 0.481,0.233 0.269,0.084 0.187,0.027 0.093,0 0,0"/></g><g id="g116" transform="translate(424.0116,358.8168)"><path style="fill:#a81890;fill-opacity:1;fill-rule:nonzero;stroke:none" id="path118" d="m 0,0 c -0.149,0 -0.297,0.072 -0.388,0.205 l -4.718,6.933 c -0.147,0.215 -0.091,0.507 0.124,0.653 0.213,0.146 0.505,0.09 0.652,-0.124 L 0.388,0.734 C 0.534,0.519 0.479,0.227 0.264,0.081 0.184,0.026 0.092,0 0,0"/></g><g id="g120" transform="translate(418.284,368.9421)"><path style="fill:#a81890;fill-opacity:1;fill-rule:nonzero;stroke:none" id="path122" d="m 0,0 c -0.261,0 -0.516,-0.08 -0.734,-0.233 -0.282,-0.197 -0.469,-0.491 -0.529,-0.829 -0.059,-0.338 0.016,-0.679 0.213,-0.96 0.197,-0.281 0.491,-0.469 0.829,-0.529 0.338,-0.059 0.68,0.016 0.961,0.213 0.281,0.197 0.469,0.491 0.529,0.829 0.059,0.338 -0.017,0.679 -0.213,0.96 C 0.858,-0.267 0.564,-0.08 0.227,-0.02 0.15,-0.007 0.075,0 0,0 m 0.008,-3.51 c -0.13,0 -0.261,0.011 -0.392,0.034 -0.585,0.104 -1.095,0.429 -1.434,0.915 -0.341,0.487 -0.472,1.077 -0.37,1.662 0.104,0.585 0.429,1.095 0.916,1.435 0.486,0.341 1.076,0.472 1.662,0.369 C 0.975,0.802 1.484,0.477 1.825,-0.01 2.165,-0.497 2.296,-1.087 2.193,-1.672 2.09,-2.257 1.765,-2.767 1.278,-3.107 0.9,-3.372 0.46,-3.51 0.008,-3.51"/></g><g id="g124" transform="translate(448.8729,387.8539)"><path style="fill:#a81890;fill-opacity:1;fill-rule:nonzero;stroke:none" id="path126" d="M 0,0 C 0.009,-0.001 0.018,-0.003 0.025,-0.005 0.02,-0.004 0.011,-0.002 0,0 m 9.057,-6.247 c -0.152,0 -0.3,0.073 -0.39,0.207 l -3.604,5.348 c -4.939,-0.299 -5.172,-0.245 -5.25,-0.228 -0.251,0.059 -0.409,0.311 -0.35,0.563 0.056,0.242 0.287,0.397 0.53,0.358 C 0.35,-0.023 3.412,0.147 5.274,0.261 5.44,0.272 5.6,0.193 5.692,0.055 l 3.753,-5.57 C 9.59,-5.73 9.533,-6.021 9.318,-6.167 9.238,-6.221 9.146,-6.247 9.057,-6.247"/></g></g></g><g id="g128"><g id="g130" clip-path="url(#clipPath134)"><g id="g136" transform="translate(424.3651,376.5478)"><path style="fill:#56c0ef;fill-opacity:1;fill-rule:nonzero;stroke:none" id="path138" d="m 0,0 20.08,13.534 c 1.909,1.287 4.524,0.777 5.811,-1.132 l 8.497,-12.607 c 1.287,-1.909 0.777,-4.524 -1.132,-5.811 L 13.176,-19.55 c -1.909,-1.286 -4.525,-0.777 -5.812,1.132 L -1.132,-5.811 C -2.419,-3.902 -1.909,-1.287 0,0"/></g><g id="g140" transform="translate(449.1581,376.6989)"><path style="fill:#235094;fill-opacity:1;fill-rule:nonzero;stroke:none" id="path142" d="M 0,0 -7.839,11.271 -7.376,11.593 0.463,0.322 Z"/></g><g id="g144" transform="translate(442.1532,371.3935)"><path style="fill:#235094;fill-opacity:1;fill-rule:nonzero;stroke:none" id="path146" d="M 0,0 -8.155,11.641 -7.693,11.964 0.461,0.323 Z"/></g><g id="g148" transform="translate(434.2733,367.0019)"><path style="fill:#235094;fill-opacity:1;fill-rule:nonzero;stroke:none" id="path150" d="M 0,0 -7.68,11.043 -7.218,11.365 0.463,0.322 Z"/></g><g id="g152" transform="translate(452.37,385.8129)"><path style="fill:#141a25;fill-opacity:1;fill-rule:nonzero;stroke:none" id="path154" d="M 0,0 6.414,-9.516 C 7.684,-11.4 7.181,-13.98 5.297,-15.25 l -20.172,-13.595 c -1.884,-1.27 -4.465,-0.768 -5.734,1.116 l -6.756,10.024 c 2.257,0.447 7.766,1.992 15.434,7.16 C -4.539,-5.564 -1.249,-1.729 0,0"/></g><g id="g156" transform="translate(454.328,370.5182)"><path style="fill:#56c0ef;fill-opacity:1;fill-rule:nonzero;stroke:none" id="path158" d="m 0,0 0.911,-1.592 -15.943,-10.745 -1.139,1.987 c -0.811,1.417 -0.391,3.221 0.963,4.133 L -4.447,1.036 C -2.945,2.048 -0.9,1.572 0,0"/></g><g id="g160" transform="translate(303.3026,400.9081)"><path style="fill:#141a25;fill-opacity:1;fill-rule:nonzero;stroke:none" id="path162" d="M 0,0 0.362,0.404 C 3.42,3.811 8.709,4.096 12.116,1.039 L 47.14,-30.396 c 3.407,-3.057 3.692,-8.347 0.634,-11.754 l -0.362,-0.403 c -3.058,-3.407 -8.347,-3.693 -11.754,-0.635 L 0.635,-11.754 C -2.772,-8.696 -3.058,-3.407 0,0"/></g><g id="g164" transform="translate(314.618,394.1545)"><path style="fill:#242859;fill-opacity:1;fill-rule:nonzero;stroke:none" id="path166" d="m 0,0 -7.377,-8.662 2.823,-2.363 7.484,8.604 z"/></g><g id="g168" transform="translate(318.0243,391.3215)"><path style="fill:#242859;fill-opacity:1;fill-rule:nonzero;stroke:none" id="path170" d="m 0,0 -7.377,-8.662 2.822,-2.363 7.484,8.604 z"/></g><g id="g172" transform="translate(321.4295,388.4885)"><path style="fill:#242859;fill-opacity:1;fill-rule:nonzero;stroke:none" id="path174" d="m 0,0 -7.377,-8.662 2.823,-2.363 7.484,8.604 z"/></g><g id="g176" transform="translate(324.8358,385.6555)"><path style="fill:#242859;fill-opacity:1;fill-rule:nonzero;stroke:none" id="path178" d="m 0,0 -7.377,-8.662 2.822,-2.363 7.484,8.604 z"/></g><g id="g180" transform="translate(328.2411,382.8222)"><path style="fill:#242859;fill-opacity:1;fill-rule:nonzero;stroke:none" id="path182" d="m 0,0 -7.377,-8.662 2.822,-2.363 7.484,8.604 z"/></g><g id="g184" transform="translate(338.1317,357.6608)"><path style="fill:#2b3582;fill-opacity:1;fill-rule:nonzero;stroke:none" id="path186" d="m 0,0 -34.62,31.072 c -3.795,3.406 -4.205,9.347 -0.913,13.244 0.048,0.058 0.101,0.121 0.156,0.184 0.007,0.008 0.019,0.022 0.032,0.037 0.01,0.011 0.023,0.024 0.035,0.037 1.001,1.12 2.283,2 3.696,2.536 L 6.907,61.714 7.572,59.958 -30.949,45.354 c -1.149,-0.435 -2.148,-1.122 -2.97,-2.041 l -0.047,-0.052 c -0.044,-0.05 -0.086,-0.1 -0.128,-0.151 -2.648,-3.135 -2.319,-7.906 0.729,-10.641 L 1.255,1.397 Z"/></g><g id="g188" transform="translate(343.1688,376.2343)"><path style="fill:#3684b1;fill-opacity:1;fill-rule:nonzero;stroke:none" id="path190" d="m 0,0 v 0 c 0.569,2.458 3.178,3.972 5.797,3.365 l 8.102,-1.878 c 2.62,-0.607 4.296,-3.114 3.726,-5.572 -0.569,-2.457 -3.178,-3.972 -5.797,-3.365 L 3.726,-5.572 C 1.106,-4.965 -0.569,-2.458 0,0"/></g><g id="g192" transform="translate(355.8534,378.0031)"><path style="fill:#141a25;fill-opacity:1;fill-rule:nonzero;stroke:none" id="path194" d="m 0,0 -6.888,1.596 c -2.619,0.607 -5.227,-0.907 -5.797,-3.365 -0.569,-2.457 1.107,-4.965 3.726,-5.572 l 8.103,-1.878 c 0.261,-0.06 0.523,-0.099 0.783,-0.118 C 0.93,-6.137 0.364,-1.962 0,0"/></g><g id="g196" transform="translate(362.993,363.8207)"><path style="fill:#141a25;fill-opacity:1;fill-rule:nonzero;stroke:none" id="path198" d="m 0,0 -12.983,-16.892 c -1.359,-1.768 -3.839,-2.141 -5.539,-0.834 l -12.66,9.729 c -1.7,1.308 -1.977,3.8 -0.619,5.568 l 12.985,16.892 c 1.358,1.767 3.837,2.141 5.538,0.834 L -0.619,5.567 C 1.081,4.26 1.358,1.767 0,0"/></g><g id="g200" transform="translate(338.9032,358.5795)"><path style="fill:#56c0ef;fill-opacity:1;fill-rule:nonzero;stroke:none" id="path202" d="m 0,0 9.904,12.804 c 0.364,0.47 1.039,0.558 1.51,0.196 l 4.429,-3.404 c 0.472,-0.364 0.56,-1.043 0.195,-1.515 L 6.135,-4.723 C 5.771,-5.194 5.096,-5.281 4.624,-4.919 L 0.196,-1.515 C -0.277,-1.151 -0.365,-0.472 0,0"/></g><g id="g204" transform="translate(348.6581,383.903)"><path style="fill:#d3d2d2;fill-opacity:1;fill-rule:nonzero;stroke:none" id="path206" d="m 0,0 -14.482,1.209 -11.706,-13.394 4.041,-16.486 z"/></g><g id="g208" transform="translate(322.4696,371.7177)"><path style="fill:#a7a5a6;fill-opacity:1;fill-rule:nonzero;stroke:none" id="path210" d="M 0,0 4.041,-16.486 8.318,-10.963 1.99,2.278 Z"/></g><g id="g212" transform="translate(417.2157,252.6284)"><path style="fill:#161f39;fill-opacity:1;fill-rule:nonzero;stroke:none" id="path214" d="m 0,0 22.92,-57.56 4.914,-20.041 c 0.292,-0.646 0.936,-1.062 1.645,-1.062 h 32.402 c 1.532,0 2.368,1.789 1.384,2.964 L 48.082,-55.238 20.98,7.475 Z"/></g><g id="g216" transform="translate(395.4002,426.3378)"><path style="fill:#141a25;fill-opacity:1;fill-rule:nonzero;stroke:none" id="path218" d="M 0,0 C 0,0 16.968,1.362 26.405,-4.855 L 7.428,-23.406 -3.344,-6.843 Z"/></g><g id="g220" transform="translate(339.9442,421.4826)"><path style="fill:#141a25;fill-opacity:1;fill-rule:nonzero;stroke:none" id="path222" d="M 0,0 18.978,-18.551 29.749,-1.988 26.404,4.855 C 26.404,4.855 9.438,6.217 0,0"/></g><g id="g224" transform="translate(420.159,419.8732)"><path style="fill:#242859;fill-opacity:1;fill-rule:nonzero;stroke:none" id="path226" d="m 0,0 c -0.094,0.06 -9.514,5.938 -25.961,3.721 l -0.101,0.744 c 8.741,1.178 15.479,0.067 19.593,-1.072 4.476,-1.24 6.935,-2.778 7.033,-2.841 z"/></g><g id="g228" transform="translate(341.5916,419.8723)"><path style="fill:#242859;fill-opacity:1;fill-rule:nonzero;stroke:none" id="path230" d="m 0,0 -0.561,0.548 c 0.099,0.063 2.553,1.606 7.029,2.846 4.114,1.139 10.852,2.25 19.592,1.072 L 25.96,3.722 C 9.514,5.939 0.094,0.06 0,0"/></g><g id="g232" transform="translate(377.0086,426.4643)"><path style="fill:#4072c1;fill-opacity:1;fill-rule:nonzero;stroke:none" id="path234" d="m 0,0 h -6.879 l -13.382,-13.54 c -2.313,-2.587 -2.552,-6.422 -0.58,-9.277 l 24.707,-35.75 24.707,35.75 c 1.973,2.855 1.734,6.69 -0.58,9.277 L 14.611,0 H 0"/></g><g id="g236" transform="translate(394.7567,345.4658)"><path style="fill:#396bbc;fill-opacity:1;fill-rule:nonzero;stroke:none" id="path238" d="m 0,0 6.485,51.902 c 0,0 -8.628,3.226 -20.08,3.226 -11.452,0 -20.654,-3.226 -20.654,-3.226 l 2.967,-19.879 3.308,-31.898 c 0.97,-6.986 6.944,-12.343 13.996,-12.343 C -6.973,-12.218 -1.024,-6.93 0,0"/></g><path style="fill:#242859;fill-opacity:1;fill-rule:nonzero;stroke:none" id="path240" d="m 381.346,365.743 h -0.939 v 58.792 h 0.939 z"/><g id="g242" transform="translate(406.6229,421.9111)"><path style="fill:#242859;fill-opacity:1;fill-rule:nonzero;stroke:none" id="path244" d="m 0,0 4.952,-2.219 -4.51,-8.307 8.951,0.062 -13.142,-28.423 -3.559,25.646 z"/></g><g id="g246" transform="translate(355.1815,421.9286)"><path style="fill:#242859;fill-opacity:1;fill-rule:nonzero;stroke:none" id="path248" d="m 0,0 -4.991,-2.236 4.509,-8.308 -8.951,0.062 12.934,-28.422 3.767,25.645 z"/></g><g id="g250" transform="translate(359.9608,380.0143)"><path style="fill:#2b3582;fill-opacity:1;fill-rule:nonzero;stroke:none" id="path252" d="m 0,0 -14.641,32.382 8.788,-0.062 -3.94,7.327 7.239,3.338 0.786,-1.705 -5.425,-2.502 4.494,-8.357 -9.023,0.062 L 1.711,0.774 Z"/></g><g id="g254" transform="translate(412.3797,451.9328)"><path style="fill:#d3d2d2;fill-opacity:1;fill-rule:nonzero;stroke:none" id="path256" d="m 0,0 c -0.088,0.156 -0.179,0.312 -0.271,0.466 -4.532,7.61 -13.223,9.699 -22.666,9.699 h -8.523 v -34.389 l 7.701,-1.411 10.772,-18.241 12.291,21.39 C 3.65,-15.578 3.998,-7.083 0,0"/></g><g id="g258" transform="translate(375.3504,425.7204)"><path style="fill:#d3d2d2;fill-opacity:1;fill-rule:nonzero;stroke:none" id="path260" d="m 0,0 5.569,1.988 v 34.389 h -8.523 c -9.443,0 -18.135,-2.089 -22.666,-9.698 -1.199,-2.014 -1.852,-4.153 -2.371,-6.348 -1.298,-5.487 -0.185,-11.221 2.753,-16.145 L -12.857,-17.101 -2.119,0.577 0,0"/></g><g id="g262" transform="translate(374.8768,438.5949)"><path style="fill:#a7a5a6;fill-opacity:1;fill-rule:nonzero;stroke:none" id="path264" d="m 0,0 c -5.031,-3.999 -10.32,-7.671 -15.517,-11.451 -1.727,-1.257 -3.68,-2.569 -5.448,-3.771 l 8.581,-14.753 10.487,18.036 2.529,-0.771 5.568,1.988 V 5.216 C 4.182,3.421 2.115,1.681 0,0"/></g><g id="g266" transform="translate(373.1873,426.4643)"><path style="fill:#4072c1;fill-opacity:1;fill-rule:nonzero;stroke:none" id="path268" d="M 0,0 H 3.821 C 2.398,0.637 1.131,1.371 0,2.173 Z"/></g><g id="g270" transform="translate(388.577,442.9208)"><path style="fill:#4072c1;fill-opacity:1;fill-rule:nonzero;stroke:none" id="path272" d="m 0,0 h -15.39 v -14.283 c 1.131,-0.803 2.399,-1.536 3.822,-2.174 H 0 Z"/></g><g id="g274" transform="translate(381.3465,412.1288)"><path style="fill:#235094;fill-opacity:1;fill-rule:nonzero;stroke:none" id="path276" d="m 0,0 1.613,13.24 2.071,18.486 c 0.007,0.069 -0.039,0.13 -0.1,0.13 h -4.055 -4.054 c -0.061,0 -0.108,-0.061 -0.1,-0.13 L -2.6,13.636 -2.555,13.24 -0.944,0 Z"/></g><g id="g278" transform="translate(398.3221,363.4638)"><path style="fill:#396bbc;fill-opacity:1;fill-rule:nonzero;stroke:none" id="path280" d="m 0,0 6.688,-14.609 c 0,0 -5.934,-15.607 -24.06,-15.607 V 0 h 13.173 z"/></g><g id="g282" transform="translate(373.9032,176.2519)"><path style="fill:#1c2649;fill-opacity:1;fill-rule:nonzero;stroke:none" id="path284" d="M 0,0 -0.995,20.532 -0.95,75.893 -24.511,80.806 -27.567,21.139 -35.44,0.677 c -0.55,-1.428 0.503,-2.963 2.035,-2.963 H -2.178 C -0.933,-2.286 0.06,-1.244 0,0"/></g><g id="g286" transform="translate(354.2186,193.3937)"><path style="fill:#2b3582;fill-opacity:1;fill-rule:nonzero;stroke:none" id="path288" d="m 0,0 -0.751,0.336 2.27,62.006 0.746,-0.156 z"/></g><g id="g290" transform="translate(358.3319,191.5195)"><path style="fill:#2b3582;fill-opacity:1;fill-rule:nonzero;stroke:none" id="path292" d="M 0,0 -12.132,5.52 -11.976,6.274 0.042,0.806 14.576,5.661 14.595,4.875 Z"/></g><g id="g294" transform="translate(364.825,193.6967)"><path style="fill:#2b3582;fill-opacity:1;fill-rule:nonzero;stroke:none" id="path296" d="m 0,0 -0.751,-0.243 1.62,60.205 0.747,-0.156 z"/></g><g id="g298" transform="translate(429.8104,257.1157)"><path style="fill:#396bbc;fill-opacity:1;fill-rule:nonzero;stroke:none" id="path300" d="M 0,0 8.386,2.988 -10.149,52.571 -14.564,39.426 Z"/></g><g id="g302" transform="translate(412.3797,451.9328)"><path style="fill:#d3d2d2;fill-opacity:1;fill-rule:nonzero;stroke:none" id="path304" d="m 0,0 c -0.088,0.156 -0.179,0.312 -0.271,0.466 -4.532,7.61 -13.223,9.699 -22.666,9.699 H -31.46 V 6.288 c 8.566,-0.15 20.688,-2.099 26.746,-11.068 5.621,-8.322 1.534,-20.708 -2.644,-29.3 l 6.662,11.594 C 3.65,-15.578 3.998,-7.083 0,0"/></g><g id="g306" transform="translate(411.6834,429.4467)"><path style="fill:#a7a5a6;fill-opacity:1;fill-rule:nonzero;stroke:none" id="path308" d="M 0,0 C 0.646,1.026 1.201,2.087 1.669,3.173 1.996,4.001 2.283,4.786 2.534,5.531 4.039,10.475 3.777,15.775 1.651,20.58 1.961,19.855 1.557,17.839 1.479,17.09 1.349,15.846 1.133,14.612 0.838,13.397 0.247,10.965 -0.664,8.612 -1.852,6.409 -2.581,5.055 -3.414,3.786 -4.334,2.595 c -3.371,-4.364 -7.906,-7.677 -12.8,-10.312 -0.816,-0.44 -1.644,-0.863 -2.446,-1.33 l 7.289,-12.343 z"/></g><g id="g310" transform="translate(356.118,466.539)"><path style="fill:#662272;fill-opacity:1;fill-rule:nonzero;stroke:none" id="path312" d="m 0,0 c 0.023,-1.469 0.04,-2.933 -0.705,-4.247 -0.651,-1.151 -1.76,-1.971 -2.83,-2.705 -2.719,-1.865 -4.681,-4.319 -5.27,-7.613 -0.484,-2.708 -0.053,-5.56 1.215,-8.001 1.42,-2.734 4.184,-4.147 6.229,-6.321 2.478,-2.636 4.119,-6.853 3.106,-10.461 -0.502,-1.791 -0.815,-3.64 -0.683,-5.506 0.187,-2.652 1.396,-5.217 3.331,-7.038 1.269,-1.195 2.708,-1.999 3.705,-3.481 0.816,-1.212 1.355,-2.583 1.811,-3.963 0.216,-0.654 0.452,-1.299 0.68,-1.95 0.059,-0.168 0.45,-0.907 0.378,-1.078 l 1.598,3.58 c 0.086,0.191 0.162,0.387 0.228,0.586 0.27,0.815 0.368,1.684 0.289,2.539 -0.082,0.877 -0.409,1.683 -0.643,2.524 -0.156,0.56 -0.318,1.155 -0.303,1.741 0.006,0.248 0.05,0.497 0.168,0.715 0.45,0.826 1.539,0.848 2.124,1.544 0.805,0.958 0.501,2.119 0.404,3.249 -0.105,1.228 0.309,2.443 0.971,3.485 l 1.109,1.795 c -0.012,0.009 -1.35,1.053 -1.35,1.053 -8.926,7.646 -7.943,19.722 -7.943,19.722 0,0 -0.983,-12.076 7.943,-19.722 L 37.617,0.81 c 0,0 0.652,1.166 0.652,1.167 2.084,3.729 1.414,8.553 -1.51,11.638 -6.288,6.635 -16.596,4.34 -23.953,0.993 C 7.896,12.376 1.816,8.824 0.256,3.255 -0.038,2.206 -0.018,1.101 0,0"/></g><g id="g314" transform="translate(398.7108,441.2377)"><path style="fill:#56c0ef;fill-opacity:1;fill-rule:nonzero;stroke:none" id="path316" d="M 0,0 C -0.011,-0.111 -0.022,-0.223 -0.034,-0.334 -0.022,-0.223 -0.011,-0.111 0,0"/></g><g id="g318" transform="translate(398.5829,440.0888)"><path style="fill:#56c0ef;fill-opacity:1;fill-rule:nonzero;stroke:none" id="path320" d="M 0,0 C -0.007,-0.056 -0.013,-0.111 -0.021,-0.167 -0.013,-0.111 -0.007,-0.056 0,0"/></g><g id="g322" transform="translate(399.535,454.3557)"><path style="fill:#56c0ef;fill-opacity:1;fill-rule:nonzero;stroke:none" id="path324" d="m 0,0 c 0,5.129 -2.234,9.752 -5.8,12.994 -3.228,2.935 -7.547,4.736 -12.303,4.763 v 10e-4 c -0.017,0 -0.035,0 -0.052,0 -0.018,0 -0.035,0 -0.053,0 V 17.757 C -28.215,17.701 -36.31,9.773 -36.31,0 c 0,-2.595 0.413,-5.111 0.51,-7.672 10e-4,0.014 0.002,0.024 0.002,0.024 0,0 -10e-4,-0.01 -0.002,-0.024 0.003,-0.084 0.009,-0.167 0.012,-0.251 0.048,-1.623 0.123,-3.249 0.272,-4.867 0.646,-4.298 2.561,-10.423 8.04,-14.898 2.598,-2.121 5.863,-3.286 9.216,-3.295 h 0.052 0.105 c 0.019,0 0.038,0 0.056,0.001 3.351,0.008 6.614,1.171 9.21,3.289 5.465,4.46 7.386,10.56 8.039,14.857 0.152,1.633 0.228,3.274 0.277,4.913 C -0.442,-5.275 0,-2.68 0,0"/></g><g id="g326" transform="translate(363.7079,458.4308)"><path style="fill:#fff;fill-opacity:1;fill-rule:nonzero;stroke:none" id="path328" d="m 0,0 v 0 c -0.242,-1.029 -0.397,-2.091 -0.455,-3.179 l 25.36,-13.039 -21.397,-9.894 c 0.508,-0.859 1.089,-1.709 1.753,-2.536 l 26.565,12.284 z"/></g><g id="g330" transform="translate(390.8172,462.7675)"><path style="fill:#662272;fill-opacity:1;fill-rule:nonzero;stroke:none" id="path332" d="M 0,0 2.918,4.582 C 2.315,5.123 -0.354,9.878 -0.354,9.878 l -10.81,1.53 -2.933,-1.118 c -10.055,0 -14.155,-2.183 -14.155,-11.991 v -6.85 c 0,-2.639 0.932,-4.884 1.172,-7.509 l 4.179,5.206 c 1.99,2.48 5.278,3.073 8.455,2.927 5.853,0 11.301,2.989 14.446,7.927"/></g><g id="g334" transform="translate(389.5487,437.6201)"><path style="fill:#56c0ef;fill-opacity:1;fill-rule:nonzero;stroke:none" id="path336" d="m 0,0 c -1.098,0 -2.079,0.216 -2.918,0.642 -1.734,0.879 -2.811,2.5 -2.811,4.229 v 0.658 l 0.527,0.395 c 0.025,0.019 3.034,2.119 6.268,3.459 2.955,1.223 6.375,1.992 6.52,2.023 L 9.538,11.841 9.163,9.877 C 9.137,9.738 8.519,6.63 6.213,4.861 5.4,2.086 3.638,0.396 1.208,0.081 0.794,0.027 0.388,0 0,0"/></g><g id="g338" transform="translate(385.1336,442.4909)"><path style="fill:#2f172e;fill-opacity:1;fill-rule:nonzero;stroke:none" id="path340" d="m 0,0 c 0,0 2.886,2.014 5.984,3.298 2.883,1.193 6.303,1.955 6.303,1.955 0,0 -0.585,-3.061 -2.805,-4.461 z"/></g><g id="g342" transform="translate(390.5877,439.0046)"><path style="fill:#fff;fill-opacity:1;fill-rule:nonzero;stroke:none" id="path344" d="m 0,0 c 2.692,0.349 4.066,2.763 4.343,6.341 0,0 -1.944,-0.228 -5.171,-1.239 C -3.1,4.391 -5.454,3.487 -5.454,3.487 -5.454,2.198 -4.582,1.048 -3.362,0.429 -2.335,-0.092 -1.123,-0.146 0,0"/></g><g id="g346" transform="translate(377.6239,442.4909)"><path style="fill:#2f172e;fill-opacity:1;fill-rule:nonzero;stroke:none" id="path348" d="m 0,0 c 0,0 -2.886,2.014 -5.983,3.298 -2.883,1.193 -6.303,1.955 -6.303,1.955 0,0 0.584,-3.061 2.805,-4.461 z"/></g><g id="g350" transform="translate(372.1707,439.0046)"><path style="fill:#fff;fill-opacity:1;fill-rule:nonzero;stroke:none" id="path352" d="m 0,0 c -2.693,0.349 -4.067,2.763 -4.343,6.341 0,0 1.944,-0.228 5.171,-1.239 C 3.1,4.391 5.453,3.487 5.453,3.487 5.453,2.198 4.581,1.048 3.361,0.429 2.335,-0.092 1.122,-0.146 0,0"/></g><g id="g354" transform="translate(385.1336,432.674)"><path style="fill:#fff;fill-opacity:1;fill-rule:nonzero;stroke:none" id="path356" d="m 0,0 v -2.985 h 8.582 c 0.787,0.969 1.46,1.972 2.035,2.985 z"/></g><g id="g358" transform="translate(393.7352,467.3493)"><path style="fill:#7f3387;fill-opacity:1;fill-rule:nonzero;stroke:none" id="path360" d="m 0,0 c 0.295,-0.999 1.138,-9.379 -1.982,-12.498 2.591,0 6.065,-0.418 7.524,-4.761 0.258,1.433 0.475,4.762 0.528,6.15 C 6.223,-7.195 4.146,-3.026 0,0"/></g><g id="g362" transform="translate(456.9207,192.3564)"><path style="fill:#242859;fill-opacity:1;fill-rule:nonzero;stroke:none" id="path364" d="M 0,0 -16.689,2.319 -16.945,3.113 -0.143,0.778 8.228,5.381 8.603,4.73 Z"/></g><g id="g366" transform="translate(448.7147,193.6811)"><path style="fill:#242859;fill-opacity:1;fill-rule:nonzero;stroke:none" id="path368" d="M 0,0 -25.885,60.947 -25.177,61.2 0.691,0.294 Z"/></g><g id="g370" transform="translate(460.6131,194.9133)"><path style="fill:#242859;fill-opacity:1;fill-rule:nonzero;stroke:none" id="path372" d="m 0,0 -28.539,63.009 0.711,0.253 L 0.685,0.31 Z"/></g><g id="g374" transform="translate(480.4803,176.9294)"><path style="fill:#141a25;fill-opacity:1;fill-rule:nonzero;stroke:none" id="path376" d="m 0,0 h -35.896 l 0.465,-1.902 c 0.292,-0.646 0.936,-1.062 1.646,-1.062 H -1.384 C 0.148,-2.964 0.984,-1.175 0,0"/></g><g id="g378" transform="translate(444.368,238.038)"><path style="fill:#242859;fill-opacity:1;fill-rule:nonzero;stroke:none" id="path380" d="m 0,0 -15.26,-6.427 -4.098,9.732 15.259,6.427 z"/></g><g id="g382" transform="translate(451.4588,221.3906)"><path style="fill:#242859;fill-opacity:1;fill-rule:nonzero;stroke:none" id="path384" d="m 0,0 -15.26,-6.427 -4.098,9.733 15.259,6.426 z"/></g><g id="g386" transform="translate(363.8553,363.5217)"><path style="fill:#1c2649;fill-opacity:1;fill-rule:nonzero;stroke:none" id="path388" d="m 0,0 17.019,-7.438 17.446,7.38 V 10.474 L 17.017,3.161 0,10.474 Z"/></g><g id="g390" transform="translate(372.0252,359.9506)"><path style="fill:#141a25;fill-opacity:1;fill-rule:nonzero;stroke:none" id="path392" d="m 0,0 v 10.534 l 8.848,-3.802 8.848,3.709 V -0.124 L 8.845,-3.867 Z"/></g><g id="g394" transform="translate(380.8719,360.1503)"><path style="fill:#fff;fill-opacity:1;fill-rule:nonzero;stroke:none" id="path396" d="M 0,0 5.083,2.24 V 8.662 L 0.001,6.532 -5.08,8.715 V 2.268 Z"/></g><g id="g398" transform="translate(398.3202,363.4638)"><path style="fill:#242859;fill-opacity:1;fill-rule:nonzero;stroke:none" id="path400" d="m 0,0 2.071,-21.75 c 3.297,3.669 4.821,7.454 4.821,7.454 z"/></g><g id="g402" transform="translate(368.5887,228.987)"><path style="fill:#2b3582;fill-opacity:1;fill-rule:nonzero;stroke:none" id="path404" d="M 0,0 -17.765,0.649 -17.34,12.269 0.425,11.62 Z"/></g><g id="g406" transform="translate(367.9315,210.9843)"><path style="fill:#2b3582;fill-opacity:1;fill-rule:nonzero;stroke:none" id="path408" d="M 0,0 -17.765,0.648 -17.34,12.269 0.425,11.62 Z"/></g><g id="g410" transform="translate(338.3905,176.9294)"><path style="fill:#141a25;fill-opacity:1;fill-rule:nonzero;stroke:none" id="path412" d="m 0,0 v 0 c -0.55,-1.428 0.505,-2.964 2.035,-2.964 h 31.228 c 1.246,0 2.238,1.042 2.177,2.287 L 35.408,0 Z"/></g><g id="g414" transform="translate(422.287,395.0361)"><path style="fill:#242859;fill-opacity:1;fill-rule:nonzero;stroke:none" id="path416" d="M 0,0 -4.182,11.288 1.693,13.464 5.875,2.177 Z"/></g><g id="g418" transform="translate(393.7352,467.3493)"><path style="fill:#a81890;fill-opacity:1;fill-rule:nonzero;stroke:none" id="path420" d="m 0,0 c 0,0 -0.972,17.176 -18.294,12.998 0,0 14.289,0.294 18.294,-12.998"/></g><g id="g422" transform="translate(377.4598,473.446)"><path style="fill:#a81890;fill-opacity:1;fill-rule:nonzero;stroke:none" id="path424" d="m 0,0 c 0,0 9.029,5.555 16.275,-6.097 0,0 -4.116,4.994 -16.275,6.097"/></g><g id="g426" transform="translate(359.5057,388.4282)"><path style="fill:#141a25;fill-opacity:1;fill-rule:nonzero;stroke:none" id="path428" d="m 0,0 -1.191,-7.63 0.348,-1.394 4,0.669 -0.626,4.068 z"/></g><g id="g430" transform="translate(360.8495,422.3071)"><path style="fill:#a81890;fill-opacity:1;fill-rule:nonzero;stroke:none" id="path432" d="m 0,0 c -0.001,-0.113 0.001,-0.227 0.004,-0.34 0.067,-2.281 1.122,-4.637 3.104,-5.766 -1.055,1.141 -1.614,2.684 -1.753,4.232 -0.191,2.132 0.492,4.125 0.804,6.204 0.32,2.121 0.453,4.286 0.251,6.425 -0.497,5.276 -4.087,10.246 -3.057,15.648 0.389,2.046 1.315,3.992 2.671,5.574 1.495,1.741 3.48,2.514 5.755,2.657 3.294,0.207 6.534,-0.906 9.825,-0.525 5.701,0.661 11.469,4.097 15.282,10.933 0,0 -9.817,-10.681 -18.979,-8.629 C 9.76,37.342 5.468,38.124 1.348,36.823 -2.73,35.534 -5.081,32.255 -5.071,27.978 -5.059,22.251 -1.802,17.415 -0.115,12.134 0.662,9.701 1.062,7.27 0.649,4.73 0.395,3.157 0.009,1.589 0,0"/></g></g></g></g></svg>