<?xml version="1.0" encoding="UTF-8" standalone="no"?>
<!DOCTYPE svg PUBLIC "-//W3C//DTD SVG 1.1//EN" "http://www.w3.org/Graphics/SVG/1.1/DTD/svg11.dtd">
<svg width="100%" height="100%" viewBox="0 0 1024 1280" version="1.1" xmlns="http://www.w3.org/2000/svg" xmlns:xlink="http://www.w3.org/1999/xlink" xml:space="preserve" xmlns:serif="http://www.serif.com/" style="fill-rule:evenodd;clip-rule:evenodd;stroke-linecap:round;stroke-linejoin:round;stroke-miterlimit:1.5;">
    <g transform="matrix(1,0,0,1,-0.175727,-0.226972)">
        <g>
            <g>
                <g>
                    <g transform="matrix(1,0,0,1,0.175727,0.226972)">
                        <path d="M408.087,548.093L384.427,626.705L348.59,627.358C348.59,627.358 349.984,647.571 348.501,650.265C341.773,662.491 291.011,683.982 288.777,680.837C291.078,685.383 322.823,704.757 353.963,714.948C374.857,721.786 402.931,721.87 403.253,721.079C403.253,721.079 383.342,774.323 382.923,785.907C382.43,799.502 382.889,889.734 382.889,889.734C380.192,937.882 384.884,979.837 400.111,1012.96C400.111,1012.96 454.175,983.782 461.093,981.361C474.133,976.799 575.122,942.953 632.544,922.604C692.771,901.262 839.204,880.751 856.363,887.129C857.478,884.392 795.214,842.358 781.746,837.086C769.78,832.402 693.835,786.203 693.835,786.203C693.835,786.203 640.528,722.263 636.397,710.488C632.267,698.713 610.781,674.625 610.781,674.625L612.379,667.411L606.782,666.83L619.729,641.418L667.98,676.612L668.606,680.22L671.197,680.412L668.459,689.687C700.641,702.039 718.035,725.396 720.943,758.497C720.943,758.497 767.889,722.855 762.616,679.922C757.437,637.757 706.706,561.319 705.442,560.22C704.179,559.121 709.311,556.18 709.311,556.18C709.311,556.18 705.101,549.468 690.196,548.362C675.29,547.257 408.087,548.093 408.087,548.093Z" style="fill:rgb(89,85,106);stroke:black;stroke-width:2.5px;"/>
                    </g>
                    <g transform="matrix(1,0,0,1,0.175727,0.226972)">
                        <path d="M638.593,838.971L634.138,921.77C741.442,893.782 813.013,885.932 856.807,885.788C771.391,854.844 719.176,890.81 638.593,838.971Z" style="fill:rgb(77,73,94);"/>
                        <path d="M638.326,838.956L633.727,921.748C633.72,921.879 633.776,922.006 633.878,922.089C633.98,922.173 634.115,922.202 634.242,922.169C686.686,908.564 730.593,899.77 766.887,894.298C783.374,891.812 798.29,890.012 811.723,888.764C829.199,887.14 844.163,886.447 856.809,886.403C857.108,886.402 857.362,886.187 857.413,885.893C857.465,885.599 857.297,885.311 857.017,885.209C828.149,874.789 803.072,871.973 779.412,870.853C752.522,869.581 727.472,870.498 700.755,864.82C681.401,860.706 661.17,853.135 638.727,838.762L638.326,838.956ZM638.837,839.423L634.579,921.229C686.79,907.554 730.524,898.654 766.709,893.126C783.217,890.604 798.155,888.783 811.608,887.527C827.542,886.038 841.395,885.343 853.312,885.199C825.968,875.71 802.013,873.04 779.361,871.903C752.429,870.551 727.333,871.368 700.593,865.578C681.297,861.4 661.146,853.78 638.837,839.423Z"/>
                    </g>
                    <g transform="matrix(1,0,0,1,0.175727,0.226972)">
                        <path d="M620.012,640.968C645.562,596.821 673.963,570.04 705.019,559.435" style="fill:none;stroke:black;stroke-width:2.5px;"/>
                    </g>
                    <g transform="matrix(1,0,0,1,0.175727,0.226972)">
                        <path d="M655.687,666.007C654.678,665.931 698.757,653.682 710.082,654.884C720.716,656.013 712.669,663.794 712.669,663.794L686.837,673.287L671.682,679.603L669.798,679.036L669.14,676.274L655.687,666.007Z" style="fill:rgb(82,78,99);"/>
                    </g>
                    <g transform="matrix(1,0,0,1,0.175727,0.226972)">
                        <path d="M627.107,568.145L629.25,573.846C630.701,574.61 691.344,572.42 696.728,550.521C696.889,549.869 683.854,549.088 678.12,550.244C670.384,551.803 627.107,568.145 627.107,568.145Z" style="fill:rgb(82,78,99);stroke:black;stroke-opacity:0;stroke-width:2.25px;"/>
                    </g>
                    <g>
                        <g transform="matrix(1,0,0,1,0.175727,0.226972)">
                            <path d="M670.255,680.208C670.642,679.566 671.922,677.958 673.487,676.061C676.796,672.049 681.332,666.803 681.658,666.427C681.851,666.218 681.838,665.891 681.629,665.698C681.42,665.504 681.093,665.517 680.9,665.726C680.549,666.08 675.656,671.023 672.074,674.813C670.282,676.71 668.823,678.331 668.368,678.983C668.03,679.504 668.178,680.201 668.699,680.539C669.22,680.877 669.917,680.729 670.255,680.208Z"/>
                        </g>
                        <g transform="matrix(1,0,0,1,0.175727,0.226972)">
                            <path d="M714.05,664.481C713.992,664.496 713.9,664.521 713.816,664.547C713.164,664.749 711.803,665.243 709.953,665.943C699.793,669.785 674.899,679.819 672.237,682.056C671.756,682.449 671.047,682.378 670.654,681.898C670.261,681.417 670.332,680.708 670.812,680.315C672.972,678.595 688.971,672.351 700.891,667.973C706.099,666.06 710.517,664.498 712.622,663.821C713.243,663.622 713.671,663.497 713.872,663.457C714.684,663.295 714.663,664.06 714.528,664.256C714.418,664.418 714.232,664.498 714.05,664.481ZM713.6,663.84L713.6,663.842L713.6,663.84ZM713.613,663.796L713.61,663.805L713.613,663.796Z"/>
                        </g>
                    </g>
                    <g transform="matrix(1,0,0,1,0.175727,0.226972)">
                        <path d="M638.651,838.921C711.72,889.809 820.664,859.474 856.567,886.525" style="fill:none;stroke:black;stroke-width:2.5px;"/>
                    </g>
                    <g transform="matrix(1,0,0,1,0.175727,0.226972)">
                        <path d="M611.557,654.782L596.824,682.624L603.143,688.448L614.33,680.414L609.97,675.079L611.604,668.078L605.503,667.289L611.557,654.782Z" style="fill:rgb(77,73,94);"/>
                    </g>
                    <g transform="matrix(1,0,0,1,0.175727,0.226972)">
                        <path d="M388.631,855.96C388.631,855.96 392.341,909.186 459.273,981.862C452.732,954.863 397.928,835.532 405.37,776.376C397.486,804.933 391.128,832.146 388.631,855.96Z" style="fill:rgb(77,73,94);"/>
                    </g>
                    <g transform="matrix(1,0,0,1,0.175727,0.226972)">
                        <path d="M382.861,884.383C386.271,849.64 395.746,809.865 406.534,775.525" style="fill:none;stroke:black;stroke-width:2.5px;"/>
                    </g>
                </g>
                <g transform="matrix(1,0,0,1,0.175727,0.226972)">
                    <g>
                        <path d="M377.017,628.737L415.281,644.266C411.707,635.643 408.378,626.815 405.507,617.606L391.171,609.372L384.646,627.572L377.017,628.737Z" style="fill:rgb(82,78,99);"/>
                        <path d="M361.117,628.261L390.123,628.941L393.49,628.699L406.317,634.222L394.967,627.343L389.746,627.032L386.435,623.85L384.277,627.316L361.117,628.261Z" style="fill:rgb(80,59,67);"/>
                        <g transform="matrix(0.984186,0,0,0.991659,6.36909,6.02502)">
                            <path d="M402.752,722.299L427.03,668.044" style="fill:none;stroke:black;stroke-width:2.53px;"/>
                        </g>
                    </g>
                </g>
                <g transform="matrix(1,0,0,1,0.175727,0.226972)">
                    <path d="M349.268,628.156C346.098,625.628 342.167,623.508 337.543,621.76L337.284,628.674C328.026,639.482 315.141,647.471 300.177,653.844C282.752,650.007 266.425,643.793 252.154,633.128L252.169,623.625L245.419,629.987C245.217,644.29 245.71,658.717 248.134,673.493C255.167,679.567 269.486,682.701 288.937,681.005C317.628,673.833 336.723,662.801 349.252,649.13L349.268,628.156Z" style="fill:rgb(214,214,214);stroke:black;stroke-width:2.25px;"/>
                    <path d="M268.053,679.43L257.828,638.694L250.609,632.644L251.386,625.436L246.403,630.002C246.258,643.929 246.933,658.86 249.478,673.69C255.793,676.637 261.312,679.509 268.053,679.43Z" style="fill:rgb(202,202,202);"/>
                    <path d="M263.95,642.025C265.122,648.029 266.758,653.885 268.997,659.551C270.591,660.587 271.98,660.486 273.143,659.136L269.242,644.734L263.95,642.025Z" style="fill:rgb(205,205,205);"/>
                </g>
                <g transform="matrix(1,0,0,1,0.175727,0.226972)">
                    <path d="M642.295,710.524C647.903,702.564 654.674,695.258 662.608,688.606C699.918,697.438 720.529,725.423 722.526,774.904L688.636,787.243L684.119,783.354L687.232,780.096L689.772,781.927C686.611,747.729 674.328,723.286 649.528,709.028L642.295,710.524Z" style="fill:rgb(214,214,214);stroke:black;stroke-width:2.25px;"/>
                    <path d="M689.615,771.718L720.701,764.126L721.485,774.111L689.023,786.248L686.624,784.453L688.122,781.445C690.163,782.732 691.51,782.672 691.093,780.188L689.615,771.718Z" style="fill:rgb(199,199,199);stroke:black;stroke-opacity:0;stroke-width:2.25px;"/>
                    <path d="M687.732,762.093L688.746,767.076L720.084,759.738L719.154,753.624L687.732,762.093Z" style="fill:rgb(200,200,200);fill-opacity:0.83;stroke:black;stroke-opacity:0;stroke-width:2.25px;"/>
                </g>
                <g>
                    <g>
                        <g transform="matrix(1,0,0,1,0.175727,0.226972)">
                            <path d="M733.589,677.87C744.365,682.53 753.555,689.049 761.864,697.406C761.864,697.406 759.662,710.118 753.74,720.336C742.442,739.833 730.355,750.812 721.502,758.54C719.537,743.097 715.33,728.938 706.869,717.662L733.589,677.87Z" style="fill:rgb(86,90,156);stroke:black;stroke-width:2.25px;"/>
                        </g>
                        <g transform="matrix(1,0,0,1,0.175727,0.226972)">
                            <path d="M732.802,746.449L736.249,742.669C729.053,730.014 722.772,719.558 713.599,709.529L711.227,713.269C719.127,722.276 725.318,732.822 732.802,746.449Z" style="fill:rgb(88,86,118);"/>
                        </g>
                        <g transform="matrix(1,0,0,1,0.175727,0.226972)">
                            <path d="M746.398,729.811L748.967,725.996C739.315,716.802 730.016,708.316 719.934,700.207L717.58,703.736C727.049,712.111 736.245,720.458 746.398,729.811Z" style="fill:rgb(88,86,118);"/>
                        </g>
                        <g transform="matrix(1,0,0,1,0.175727,0.226972)">
                            <path d="M756.333,712.252L758.027,707.732C748.444,699.124 739.342,692.296 728.684,687.155L726.365,690.608C737.186,696.935 746.556,704.177 756.333,712.252Z" style="fill:rgb(88,86,118);stroke:black;stroke-opacity:0;stroke-width:2.25px;"/>
                        </g>
                    </g>
                    <g transform="matrix(1,0,0,1,0.175727,0.226972)">
                        <path d="M718.401,580.744L673.266,607.126C673.266,607.126 691.19,641.885 694.419,641.947C697.648,642.009 743.53,627.32 743.53,627.32L718.401,580.744Z" style="fill:rgb(86,90,156);stroke:black;stroke-width:2.25px;"/>
                    </g>
                    <g>
                        <g transform="matrix(1,0,0,1,0.175727,0.226972)">
                            <path d="M376.123,719.056L395.07,675.96C395.07,675.96 385.94,669.3 364.605,666.947C343.27,664.593 336.474,661.717 336.474,661.717C336.474,661.717 303.336,681.191 290.455,680.643C278.117,680.118 348.288,719.073 376.123,719.056Z" style="fill:rgb(86,90,156);stroke:black;stroke-width:2.25px;"/>
                        </g>
                        <g transform="matrix(1,0,0,1,0.175727,0.226972)">
                            <path d="M348.801,711.69L353.397,713.302C367.39,697.036 375.822,684.702 382.357,671.688L378.361,670.666C369.391,686.285 360.125,698.577 348.801,711.69Z" style="fill:rgb(88,86,118);stroke:black;stroke-opacity:0;stroke-width:2.25px;"/>
                        </g>
                        <g transform="matrix(1,0,0,1,0.175727,0.226972)">
                            <path d="M298.554,687.627L304.439,691.129C321.065,687.158 341.893,670.39 344.048,664.974C339.418,663.837 340.308,664.074 340.308,664.074C340.308,664.074 315.941,684.478 298.554,687.627Z" style="fill:rgb(88,86,118);stroke:black;stroke-opacity:0;stroke-width:2.25px;"/>
                        </g>
                        <g transform="matrix(1,0,0,1,0.175727,0.226972)">
                            <path d="M324.356,701.576L329.822,703.942C343.49,694.003 354.309,683.205 365.249,668.208L359.816,667.476C352.312,677.93 341.307,688.067 324.356,701.576Z" style="fill:rgb(89,85,106);stroke:black;stroke-opacity:0;stroke-width:2.25px;"/>
                        </g>
                    </g>
                    <g transform="matrix(1,0,0,1,0.175727,0.226972)">
                        <path d="M404.237,561.373L391.019,604.303L404.499,608.983L404.238,604.667C406.323,600.607 422.19,592.656 427.295,590.927L411.33,579.258L422.813,566.544L404.237,561.373Z" style="fill:rgb(86,90,156);stroke:black;stroke-width:2.25px;"/>
                    </g>
                </g>
                <g>
                    <g transform="matrix(1,0,0,1,0.175727,0.226972)">
                        <path d="M417.822,549.382C417.976,548.565 439.536,565.818 439.656,566.54C439.74,567.05 440.659,583.371 440.659,583.371C439.898,582.807 459.625,564.366 462.617,563.865C450.988,550.809 417.822,549.382 417.822,549.382Z" style="fill:rgb(194,194,194);stroke:black;stroke-width:2.25px;"/>
                    </g>
                    <g transform="matrix(1,0,0,1,0.175727,0.226972)">
                        <path d="M637.566,482.556C638.995,481.89 611.195,476.561 605.14,502.26C593.278,497.909 586.026,501.965 582.085,512.06C566.171,511.349 551.525,518.953 543.196,534.214C534.866,549.475 535.646,557.194 535.646,557.194L559.264,605.252L565.776,589.012L677.295,549.071L690.181,547.903C690.181,547.903 692.922,543.525 701.288,538.374C709.654,533.224 716.652,522.424 719.873,515.921C723.951,507.689 720.981,496.206 719.585,497.156C722.123,493.412 720.273,482.345 712.94,479.069C719.917,438.825 672.739,432.733 661.318,438.13C661.318,438.13 659.95,433.563 651.704,458.441C647.079,472.393 637.566,482.556 637.566,482.556Z" style="fill:rgb(214,214,214);stroke:black;stroke-width:2.5px;"/>
                    </g>
                    <g transform="matrix(1,0,0,1,0.175727,0.226972)">
                        <path d="M552.784,589.435C552.784,589.435 560.242,564.107 570.398,556.928C580.36,549.884 587.97,546.841 603.854,548.738C619.27,550.579 696.474,522.743 700.514,514.563C704.944,505.593 717.795,485.522 718.228,486.275C720.684,490.543 720.156,498.956 718.949,497.82C721.803,497.489 723.332,514.406 713.605,524.68C709.865,528.63 706.619,533.697 702.008,536.666C697.467,539.59 693.334,542.835 689.561,547.111L678.035,548.163L565.601,587.732L559.706,606.102L552.784,589.435Z" style="fill:rgb(194,194,194);"/>
                        <path d="M566.316,588.427L560.553,606.374C560.439,606.73 560.115,606.976 559.743,606.992C559.37,607.007 559.026,606.789 558.883,606.444L551.965,589.776L552.168,589.776C552.11,589.588 552.101,589.38 552.144,589.185L552.144,589.247C552.144,589.247 555.441,577.998 560.646,568.321C563.318,563.354 566.502,558.809 569.983,556.34C575.461,552.456 580.245,549.774 586.041,548.427C590.936,547.289 596.558,547.103 603.945,547.975C611.303,548.844 632.808,542.844 653.625,535.526C668.477,530.305 682.975,524.396 691.759,519.753C694.324,518.397 696.395,517.154 697.832,516.069C698.794,515.342 699.46,514.72 699.728,514.175C702.646,508.257 709.204,497.529 713.49,491.076C715.087,488.672 716.377,486.855 717.053,486.076C717.437,485.633 717.769,485.443 717.918,485.399C718.449,485.243 718.789,485.454 719.004,485.828C720.409,488.269 720.912,491.988 720.856,494.699C720.83,495.942 720.684,496.979 720.475,497.609L720.458,497.658C720.754,498.014 721.033,498.522 721.26,499.173C721.966,501.198 722.279,504.807 721.713,508.948C720.985,514.277 718.813,520.492 714.262,525.301C711.65,528.061 709.277,531.364 706.516,534.12C705.272,535.362 703.95,536.494 702.499,537.429C700.229,538.89 698.063,540.433 695.993,542.148C693.986,543.812 692.07,545.638 690.241,547.711C690.088,547.885 689.874,547.994 689.644,548.015L678.23,549.056L566.316,588.427ZM717.967,487.787C717.662,488.182 717.286,488.701 716.851,489.318C712.944,494.867 704.672,508.131 701.299,514.951C701.033,515.487 700.513,516.109 699.736,516.78C698.259,518.055 695.79,519.593 692.569,521.288C683.723,525.945 669.128,531.871 654.174,537.093C633.057,544.467 611.219,550.4 603.762,549.501C596.592,548.635 591.132,548.785 586.376,549.876C580.759,551.166 576.129,553.768 570.813,557.515C567.474,559.869 564.446,564.237 561.875,568.985C556.709,578.525 553.424,589.624 553.424,589.624L553.635,589.624C553.692,589.477 553.681,589.321 553.603,589.18L553.603,589.095L559.598,603.523L564.751,587.459C564.836,587.193 565.041,586.982 565.305,586.889L677.734,547.308C677.805,547.283 677.878,547.267 677.953,547.26L689.122,546.241C690.942,544.205 692.845,542.401 694.835,540.751C696.96,538.989 699.186,537.404 701.517,535.903C702.861,535.038 704.083,533.986 705.236,532.837C707.986,530.094 710.348,526.805 712.949,524.058C716.44,520.373 718.426,515.8 719.412,511.525C720.468,506.943 720.38,502.703 719.719,500.268C719.563,499.694 719.381,499.232 719.164,498.917C719.147,498.893 719.126,498.866 719.104,498.841C718.854,498.83 718.595,498.72 718.333,498.474C718.079,498.235 717.987,497.87 718.096,497.538C718.202,497.22 718.475,496.988 718.804,496.935L718.813,496.903C719.278,495.188 719.214,490.849 717.967,487.787Z" style="fill-opacity:0;"/>
                    </g>
                    <g transform="matrix(1,0,0,1,0.471716,1.74602)">
                        <path d="M638.011,480.93C638.011,480.93 647.032,486.401 648.696,486.553C650.401,486.71 655.073,485.485 656.36,485.972C657.931,486.566 664.655,480.135 663.888,472.984C663.587,470.175 662.566,464.597 661.131,462.442C659.407,459.852 667.79,463.876 669.795,462.883C671.8,461.889 674.281,458.795 672.439,455.904C670.212,452.408 666.294,449.729 661.971,450.681C657.712,451.619 657.386,455.933 658.54,458.15C659.693,460.368 659.044,459.602 655.862,459.687C652.681,459.772 651.294,459.913 651.973,459.828C652.992,459.701 639.676,480.86 638.011,480.93Z" style="fill:rgb(194,194,194);"/>
                    </g>
                    <g transform="matrix(1,0,0,1,0.233481,1.43379)">
                        <path d="M650.762,487.691C651.452,487.564 652.918,486.812 654.887,486.542C655.4,486.472 655.94,486.437 656.507,486.477C656.858,486.502 657.22,486.545 657.577,486.646C657.997,486.764 658.409,486.951 658.814,487.185C659.069,487.332 659.305,487.507 659.543,487.706C660.081,488.157 660.502,488.718 660.962,489.387C661.379,489.776 662.032,489.753 662.421,489.337C662.81,488.92 662.788,488.267 662.371,487.878C661.643,487.45 660.983,487.144 660.289,486.887C659.802,486.706 659.347,486.551 658.884,486.42C658.485,486.307 658.097,486.211 657.717,486.115C657.317,486.016 656.932,485.914 656.551,485.832C655.701,485.648 654.9,485.554 654.146,485.504C652.549,485.397 651.284,485.516 650.694,485.442C650.073,485.461 649.585,485.98 649.604,486.601C649.622,487.221 650.142,487.71 650.762,487.691Z"/>
                    </g>
                    <g transform="matrix(1,0,0,1,-0.46689,0.993228)">
                        <path d="M636.521,482.856C639.25,482.994 643.418,484.451 646.197,487.097" style="fill:none;stroke:black;stroke-width:2.25px;"/>
                    </g>
                </g>
            </g>
            <g transform="matrix(1,0,0,1,0.175727,0.226972)">
                <path d="M475.308,1036.06L466.095,1037.99L473.248,1059.11L478.996,1059.72L494.694,1130.28L489.861,1132.71L491.216,1139.26L464.542,1160.24C452.07,1157.91 441.814,1158.35 434.917,1162.96C434.583,1180.89 436.222,1195.38 440.54,1205.19C474.172,1206.59 507.788,1207.89 540.622,1203.68C580.017,1206.09 625.083,1205.12 674.324,1201.66C676.924,1183.02 676.352,1165.92 672.533,1150.41L644.493,1151.72L620.899,1130.22L623.861,1056.77L627.566,1057.7C629.339,1049.49 627.725,1040.12 627.477,1031.54L529.504,1034.69L528.531,1038.16L516.416,1040.96L473.111,1041.11L475.797,1038.52L475.308,1036.06Z" style="fill:rgb(79,83,140);stroke:black;stroke-width:2.5px;"/>
                <path d="M622.408,1057.39L595.21,1062.79C593.44,1065.07 593.33,1067.57 595.041,1070.3L621.75,1073.89L622.408,1057.39Z" style="fill:rgb(58,61,118);stroke:black;stroke-opacity:0;stroke-width:0.95px;"/>
                <path d="M621.139,1131.62L571.602,1135.44C566.593,1140.73 565.515,1145.75 570.976,1150.33L623.629,1151.07L626.504,1148.99L633.764,1149.3L636.551,1146.13L621.139,1131.62Z" style="fill:rgb(58,61,118);stroke:black;stroke-opacity:0;stroke-width:0.95px;"/>
                <path d="M480.546,1061.24L498.558,1060.47C501.79,1062.91 502.691,1066.17 500.845,1070.39L483.205,1072.93L480.546,1061.24Z" style="fill:rgb(59,62,120);"/>
                <path d="M476.762,1152.18C493.354,1152.19 508.792,1151.02 523.813,1149.44C530.352,1142.63 529.265,1137.3 522.601,1133.05L490.701,1133.25L491.747,1139.88C491.747,1139.88 475.933,1152.82 476.762,1152.18Z" style="fill:rgb(58,61,118);"/>
                <g>
                    <path d="M482.389,1041.61L491.72,1075.51" style="fill:none;stroke:black;stroke-width:2.5px;"/>
                    <path d="M496.66,1099.91L498.816,1116.12" style="fill:none;stroke:black;stroke-width:2.5px;"/>
                    <path d="M516.612,1099.78L519.042,1116.96" style="fill:none;stroke:black;stroke-width:2.5px;"/>
                    <path d="M507.31,1041.33L513.555,1075.4" style="fill:none;stroke:black;stroke-width:2.5px;"/>
                    <path d="M500.48,1137.68L473.03,1156.22L473.689,1163L524.627,1158.33L537.339,1176.49" style="fill:none;stroke:black;stroke-width:2.5px;"/>
                    <path d="M502.559,1160.53L519.207,1144.55L518.072,1138.34" style="fill:none;stroke:black;stroke-width:2.5px;"/>
                    <path d="M576.85,1033.48L576.266,1076.14" style="fill:none;stroke:black;stroke-width:2.5px;"/>
                    <path d="M576.249,1100.44L577.102,1118.49" style="fill:none;stroke:black;stroke-width:2.5px;"/>
                    <path d="M601.874,1117.97L601.627,1099.2" style="fill:none;stroke:black;stroke-width:2.5px;"/>
                    <path d="M601.452,1076.02L603.178,1032.35" style="fill:none;stroke:black;stroke-width:2.5px;"/>
                    <path d="M537.578,1176.32C549.462,1168.8 561.314,1163.72 572.961,1158.28C590.248,1159.55 607.683,1162.39 625.425,1165.37L638.866,1146.41" style="fill:none;stroke:black;stroke-width:2.5px;"/>
                    <path d="M604.601,1140.45L632.628,1154.85" style="fill:none;stroke:black;stroke-width:2.5px;"/>
                    <path d="M578.933,1142.41L600.318,1161.23" style="fill:none;stroke:black;stroke-width:2.5px;"/>
                    <path d="M529.241,1035.54C528.782,1043.01 528.79,1050.4 529.638,1057.65L540.62,1057.94" style="fill:none;stroke:black;stroke-width:2.5px;"/>
                    <path d="M534.667,1058.37C535.15,1100.96 535.668,1143.62 537.372,1188.81C538.788,1191.05 539.876,1193.72 540.316,1197.22L539.97,1203.18" style="fill:none;stroke:black;stroke-width:2.5px;"/>
                </g>
                <path d="M488.193,1075.72C490.03,1086.16 491.897,1094.62 494.183,1099.67L527.29,1099.9C527.939,1093.68 528.291,1083.73 528.455,1074.29L488.193,1075.72Z" style="fill:rgb(111,120,202);stroke:black;stroke-width:2.5px;"/>
                <path d="M494.841,1117.22C496.348,1123.91 498.146,1130.6 500.397,1137.27L526.995,1138.31C527.538,1133.84 527.315,1125.83 527.034,1117.01L494.841,1117.22Z" style="fill:rgb(111,120,202);stroke:black;stroke-width:2.5px;"/>
                <path d="M568.868,1119.32C568.038,1126.99 567.576,1134.81 569.175,1142.74L611.611,1139.96L608.937,1117.7L568.868,1119.32Z" style="fill:rgb(111,120,202);stroke:black;stroke-width:2.5px;"/>
                <path d="M567.237,1076.33C567.116,1083.66 567.9,1092.03 568.856,1100.5C583.118,1099.78 597.667,1100 611.383,1097.91L612.701,1076.04L567.237,1076.33Z" style="fill:rgb(111,120,202);stroke:black;stroke-width:2.5px;"/>
            </g>
            <g>
                <g transform="matrix(1,0,0,1,0.175727,0.226972)">
                    <path d="M413.94,748.809C410.404,760.917 403.515,777.016 404.864,795.021C408.899,848.872 426.297,886.553 459.821,980.598L472.058,1019.39L475.419,1038.5L473.339,1040.96L515.991,1040.65L528.424,1038.15L529.276,1034.6L536.797,1034.04L619.745,1031.77C621.71,995.246 629.403,958.684 634.13,922.684C636.501,895.746 638.592,868.593 638.403,838.638C632.142,834.202 626.461,828.14 621.175,820.966L608.883,818.063C596.299,793.179 586.138,766.849 584.253,737.014L413.94,748.809Z" style="fill:rgb(97,100,140);stroke:black;stroke-width:2.5px;"/>
                </g>
                <g transform="matrix(1,0,0,1,0.175727,0.226972)">
                    <path d="M437.824,920.034L467.113,940.275C469.067,962.847 474.845,988.468 482.122,1015.29L471.821,1018.76C461.814,986.421 450.242,953.409 437.824,920.034Z" style="fill:rgb(124,134,216);stroke:black;stroke-width:2.5px;"/>
                </g>
                <g transform="matrix(1,0,0,1,0.175727,0.226972)">
                    <path d="M589.867,1007.92L621.682,1006.99C627.675,967.931 633.298,929.356 636.747,893.617L596.801,926.843C596.801,926.843 588.491,1007.13 589.867,1007.92Z" style="fill:rgb(124,134,216);stroke:black;stroke-width:2.5px;"/>
                </g>
                <g transform="matrix(1,0,0,1,0.175727,0.226972)">
                    <path d="M440.201,761.124C444.828,779.998 450.516,797.523 458.547,812.554L465.707,893.593C482.645,900.135 500.767,904.94 517.419,911.286L525.576,917.559L569.112,891.351C564.09,859.516 558.348,830.308 552.07,803.392L568.952,744.284L475.543,779.902L440.201,761.124Z" style="fill:rgb(124,134,216);stroke:black;stroke-width:2.5px;"/>
                </g>
                <g transform="matrix(1,0,0,1,0.175727,0.226972)">
                    <path d="M484.833,815.466L521.286,857.491L519.733,819.471C519.733,819.471 484.387,815.864 484.833,815.466Z" style="fill:rgb(108,112,171);"/>
                </g>
                <g transform="matrix(1,0,0,1,0.175727,0.226972)">
                    <path d="M538.279,1033.11C527.072,963.925 521.741,892.502 520.075,819.686L478.199,814.671" style="fill:none;stroke:black;stroke-width:2.5px;"/>
                </g>
            </g>
            <g transform="matrix(1,0,0,1,0.175727,0.226972)">
                <path d="M649.448,709.718C625.673,713.963 604.667,719.807 585.961,728.777C582.072,750.125 592.231,781.431 609.084,817.483L652.797,823.974L665.073,807.591L656.33,803.007L685.59,783.615L687.839,779.323L689.984,781.244C683.816,746.507 671.975,722.718 649.448,709.718Z" style="fill:rgb(106,84,94);"/>
                <path d="M658.783,802.881L665.653,806.484C665.978,806.654 666.211,806.958 666.292,807.315C666.373,807.672 666.293,808.047 666.073,808.34L653.797,824.723C653.522,825.091 653.067,825.278 652.613,825.21L608.901,818.72L607.952,818.013C599.093,799.061 592.08,781.414 587.965,765.827C584.181,751.49 582.851,738.874 584.732,728.553C584.803,728.159 585.06,727.824 585.421,727.65C595.202,722.96 605.607,719.118 616.704,715.91C626.939,712.953 637.763,710.535 649.229,708.488L650.073,708.635C660.207,714.484 668.22,722.474 674.545,732.626C682.466,745.337 687.74,761.458 691.214,781.025C691.308,781.55 691.058,782.077 690.592,782.336C690.126,782.595 689.547,782.531 689.15,782.175L688.201,781.325L686.697,784.195C686.599,784.382 686.456,784.541 686.28,784.657L658.783,802.881ZM649.217,711.03C638.009,713.043 627.419,715.416 617.398,718.312C606.658,721.416 596.573,725.12 587.082,729.628C585.422,739.532 586.784,751.558 590.382,765.188C594.42,780.485 601.278,797.776 609.934,816.346L652.243,822.628L663.192,808.016L655.75,804.114C655.358,803.909 655.105,803.512 655.082,803.071C655.059,802.63 655.271,802.209 655.64,801.965L684.632,782.751L686.731,778.743C686.91,778.402 687.237,778.162 687.616,778.093C687.79,778.062 687.966,778.068 688.133,778.109C684.729,760.406 679.741,745.691 672.424,733.948C666.404,724.287 658.807,716.651 649.217,711.03Z"/>
                <path d="M628.573,819.568L652.064,822.51C656.979,817.264 660.783,812.953 663.715,807.552L655.118,802.977L642.373,808.485L640.431,813.192L628.573,819.568Z" style="fill:rgb(145,214,240);"/>
                <path d="M644.072,807.667L650.825,813.889L658.634,804.922L655.099,802.849L644.072,807.667Z" style="fill:rgb(128,144,206);"/>
                <path d="M642.914,807.735L651.749,816.091C651.974,816.328 652.35,816.338 652.587,816.113C652.824,815.888 652.834,815.512 652.609,815.275L644.727,806.014C644.253,805.514 643.461,805.493 642.96,805.968C642.46,806.443 642.439,807.235 642.914,807.735Z"/>
                <path d="M602.612,730.164C605.949,753.138 612.002,774.117 620.413,793.367C629.017,790.826 635.883,787.285 642.724,781.394C636.772,756.863 630.017,737.858 622.101,726.914C616.031,726.608 609.624,727.4 602.612,730.164Z" style="fill:rgb(145,214,240);"/>
                <path d="M602.154,729.001C601.614,729.214 601.292,729.77 601.375,730.344C603.009,741.596 605.292,752.372 608.182,762.703C611.222,773.572 614.933,783.948 619.267,793.867C619.519,794.445 620.162,794.744 620.767,794.565C625.159,793.268 629.106,791.714 632.829,789.734C636.55,787.754 640.048,785.348 643.539,782.342C643.895,782.035 644.049,781.556 643.939,781.1C640.806,768.19 637.451,756.805 633.825,747.309C630.498,738.597 626.935,731.465 623.114,726.182C622.892,725.874 622.543,725.685 622.165,725.666C618.877,725.5 615.493,725.648 611.972,726.241C608.819,726.772 605.556,727.66 602.154,729.001ZM621.438,728.136C618.513,728.025 615.507,728.181 612.388,728.706C609.682,729.162 606.891,729.896 603.995,730.973C605.602,741.759 607.813,752.102 610.59,762.03C613.494,772.413 617.017,782.342 621.116,791.847C624.918,790.667 628.377,789.27 631.654,787.527C635.011,785.741 638.177,783.591 641.327,780.942C638.275,768.456 635.013,757.428 631.489,748.201C628.355,739.995 625.021,733.222 621.438,728.136Z"/>
                <path d="M627.882,820.275L640.566,813.679L642.936,807.193L656.395,802.731" style="fill:none;stroke:black;stroke-width:2.5px;"/>
            </g>
            <g>
                <g>
                    <g transform="matrix(1,0,0,1,0.175727,0.226972)">
                        <path d="M251.92,632.09C258.382,561.486 263.208,527.018 262.913,486.24L270.914,485.02C270.914,485.02 287.613,483.529 287.596,503.202C287.579,523.028 288.285,541.025 287.688,540.934C307.071,546.737 324.426,553.402 339.211,561.162C343.312,567.394 346.275,574.091 348.153,581.233L333.93,601.075L337.499,621.989L337.565,628.53C327.9,638.624 315.542,646.819 300.715,653.717C282.645,650.117 265.23,642.517 251.92,632.09Z" style="fill:rgb(106,84,94);stroke:black;stroke-width:2.5px;"/>
                    </g>
                    <g transform="matrix(1,0,0,1,0.175727,0.226972)">
                        <path d="M260.373,571.383L257.572,595.257C270.7,603.176 284.237,610.306 300.091,614.754L299.725,585.895C287.586,582.312 274.152,577.069 260.373,571.383Z" style="fill:rgb(145,214,240);"/>
                    </g>
                    <g transform="matrix(1,0,0,1,0.175727,0.226972)">
                        <path d="M265.107,487.222L263.656,545.87L286.694,541.057C286.194,502.229 292.294,483.144 265.107,487.222Z" style="fill:rgb(145,214,240);"/>
                    </g>
                    <g transform="matrix(1,0,0,1,0.175727,0.226972)">
                        <path d="M285.214,561.946C290.745,567.064 298.027,570.5 306.911,572.326C316.853,566.6 326.638,563.748 335.697,561.275C328.802,557.264 320.653,554.413 313.965,551.471C304.296,553.828 294.296,557.639 285.214,561.946Z" style="fill:rgb(145,214,240);"/>
                    </g>
                    <g transform="matrix(1,0,0,1,0.175727,0.226972)">
                        <path d="M263.62,547.46L263.482,552.096C268.829,556.675 272.909,559.004 283.533,561.196C287.937,555.809 301.394,553.308 311.508,550.621C303.762,547.758 295.85,545.102 287.73,542.702L263.62,547.46Z" style="fill:rgb(145,214,240);"/>
                    </g>
                    <g transform="matrix(1,0,0,1,0.175727,0.226972)">
                        <path d="M311.62,573.467C316.661,576.396 320.185,581.335 322.26,588.192C327.371,589.83 331.328,593.416 334.232,598.775C337.484,592.413 341.457,586.534 345.408,582.18C343.373,574.795 340.637,568.573 337.46,563.124C329.908,564.111 321.311,567.52 311.62,573.467Z" style="fill:rgb(144,207,237);stroke:rgb(145,214,240);stroke-width:0.95px;"/>
                    </g>
                    <g transform="matrix(1,0,0,1,0.175727,0.226972)">
                        <path d="M274.388,543.624C274.388,543.624 284.742,533.708 285.24,529.678C285.739,525.649 286.746,523.723 286.746,523.723L286.721,541.166L274.388,543.624Z" style="fill:rgb(128,143,205);"/>
                    </g>
                    <g transform="matrix(1,0,0,1,0.175727,0.226972)">
                        <path d="M322.336,588.654L331.705,579.682L335.935,582.976C336.15,588.135 334.875,592.822 332.676,596.984C329.913,593.177 326.656,590.26 322.336,588.654Z" style="fill:rgb(128,143,205);"/>
                    </g>
                    <g transform="matrix(1,0,0,1,0.175727,0.226972)">
                        <path d="M328.688,591.445C329.243,590.369 329.756,589.305 330.193,588.198C330.484,587.459 330.749,586.709 330.97,585.938C331.079,585.557 331.171,585.17 331.254,584.778C331.336,584.391 331.402,583.999 331.465,583.603C331.538,583.135 331.602,582.665 331.655,582.185C331.733,581.486 331.787,580.78 331.838,580.05C331.86,579.915 331.768,579.788 331.633,579.766C331.498,579.744 331.37,579.836 331.349,579.971C331.109,580.911 330.847,581.805 330.594,582.692C330.42,583.3 330.244,583.895 330.074,584.488C329.988,584.788 329.906,585.087 329.827,585.386C329.747,585.687 329.671,585.987 329.596,586.287C329.37,587.198 329.14,588.095 328.881,588.993C328.665,589.742 328.449,590.486 328.196,591.236C328.138,591.372 328.202,591.529 328.338,591.587C328.473,591.645 328.63,591.581 328.688,591.445Z"/>
                    </g>
                </g>
                <g>
                    <g transform="matrix(1,0,0,1,0.175727,0.226972)">
                        <path d="M280.728,473.979C281.12,473.773 285.262,478.068 284.469,480.524C283.805,482.584 275.015,486.144 273.311,485.445C272.349,485.05 267.593,481.058 267.593,481.058L280.728,473.979Z" style="fill:rgb(244,207,121);stroke:black;stroke-width:2.25px;"/>
                    </g>
                    <g transform="matrix(1,0,0,1,0.175727,0.226972)">
                        <path d="M177.267,351.924C178.237,340.498 208.658,321.747 213.156,327.579C217.029,322.496 291.219,463.088 289.809,467.876C273.807,478.408 254.343,488.232 253.34,488.304C250.389,488.515 176.546,360.427 177.267,351.924Z" style="fill:rgb(126,79,150);stroke:black;stroke-width:2.25px;"/>
                    </g>
                    <g transform="matrix(1,0,0,1,0.175727,0.226972)">
                        <path d="M180.612,358.443L261.782,483.826L253.577,488.468C225.067,444.667 201.685,401.429 180.612,358.443Z" style="fill:rgb(91,46,116);"/>
                    </g>
                    <g>
                        <g transform="matrix(0.999903,0,0,0.999903,66.9322,113.858)">
                            <circle cx="198.987" cy="350.612" r="7.839" style="fill:none;stroke:rgb(203,0,155);stroke-width:2.25px;"/>
                        </g>
                        <g transform="matrix(1,0,0,1,0.175727,0.226972)">
                            <path d="M245.658,476.644C246.837,475.437 254.648,469.157 258.416,467.845" style="fill:none;stroke:rgb(203,0,155);stroke-width:2.25px;"/>
                        </g>
                        <g transform="matrix(0.999903,0,0,0.999903,-0.988079,-2.18944)">
                            <circle cx="198.987" cy="350.612" r="7.839" style="fill:none;stroke:rgb(203,0,155);stroke-width:2.25px;"/>
                        </g>
                        <g transform="matrix(1,0,0,1,0.175727,0.226972)">
                            <path d="M189.113,374.001C189.113,374.001 202.796,357.937 208.163,358.184C212.46,358.383 211.181,361.218 211.21,363.076C211.238,364.935 197.666,371.144 192.812,381.2" style="fill:none;stroke:rgb(203,0,155);stroke-width:2.25px;"/>
                        </g>
                        <g transform="matrix(1,0,0,1,0.175727,0.226972)">
                            <path d="M203.503,342.741C203.503,342.741 210.161,336.94 218.899,337.347" style="fill:none;stroke:rgb(203,0,155);stroke-width:2.25px;"/>
                        </g>
                    </g>
                    <g transform="matrix(1,0,0,1,0.175727,0.226972)">
                        <path d="M185.71,339.42C185.71,339.42 180.981,334.717 181.779,332.982C182.864,330.622 191.155,324.431 193.253,325.32C196.211,326.572 197.034,331.166 197.034,331.166C197.034,331.166 187.534,337.26 185.71,339.42Z" style="fill:rgb(244,207,121);stroke:black;stroke-width:2.25px;"/>
                    </g>
                </g>
            </g>
            <g>
                <g>
                    <g transform="matrix(1,0,0,1,0.175727,0.226972)">
                        <path d="M429.286,702.801C423.407,717.334 418.387,732.408 414.225,748.026L475.497,779.616C514.018,766.022 550.231,751.689 584.746,736.813C584.746,736.813 571.256,713.51 571.628,694.383C558.138,698.057 473.238,730.955 473.238,730.955L429.286,702.801Z" style="fill:rgb(76,76,108);stroke:black;stroke-width:2.25px;"/>
                    </g>
                    <g>
                        <g transform="matrix(1,0,0,1,0.175727,0.226972)">
                            <path d="M451.823,717.811L451.859,745.96L473.866,760.115L503.895,747.715L504.728,719.88L472.491,731.224L451.823,717.811Z" style="fill:rgb(218,217,221);stroke:black;stroke-width:2.25px;"/>
                        </g>
                        <g transform="matrix(1,0,0,1,0.175727,0.226972)">
                            <path d="M500.308,730.649L500.174,722.728L503.687,721.386L502.762,747.101L474.039,758.78L473.977,757.299C476.857,754.656 479.308,752.628 482.447,751.433C483.64,750.874 484.872,750.334 486.134,749.809C488.079,747.128 499.115,731.942 500.308,730.649ZM500.343,738.187L500.33,735.457C499.12,735.849 489.862,746.265 487.585,749.217C489.717,748.364 491.927,747.55 494.183,746.759L500.343,738.187ZM500.359,741.401C499.16,742.107 497.853,743.861 496.099,746.096C497.513,745.612 498.94,745.137 500.374,744.664L500.359,741.401Z" style="fill:rgb(200,200,203);"/>
                        </g>
                        <g transform="matrix(1,0,0,1,0.175727,0.226972)">
                            <path d="M455.839,721.792L455.827,747.158L453.017,745.328L452.926,719.935L455.839,721.792Z" style="fill:rgb(200,200,203);"/>
                        </g>
                    </g>
                </g>
                <g>
                    <g transform="matrix(1,0,0,1,0.175727,0.226972)">
                        <path d="M559.341,605.007L571.785,634.093C570.753,659.411 570.013,682.495 572.437,705.087C584.323,674.826 602.023,644.09 617.521,612.69L593.434,601.169L597.101,599.326L636.582,596.928L626.607,566.526L565.82,589.342L559.341,605.007Z" style="fill:rgb(79,83,140);stroke:black;stroke-width:2.25px;"/>
                    </g>
                    <g>
                        <g transform="matrix(1,0,0,1,0.175727,0.226972)">
                            <path d="M497.47,540.611C497.47,540.611 439.169,574.193 432.97,596.533C426.771,618.873 438.654,658.261 437.61,664.09C436.305,671.38 427.814,703.929 429.694,703.364C430.587,703.096 472.704,730.817 472.704,730.817L571.373,693.942C571.373,693.942 572.013,635.299 571.524,634.222C571.036,633.144 536.02,557.542 536.02,557.542C536.02,557.542 537.708,543.209 542.305,536.921C546.902,530.632 519.672,541.893 519.672,541.893C519.672,541.893 498.145,538.867 497.47,540.611Z" style="fill:rgb(124,134,216);stroke:black;stroke-width:2.25px;"/>
                        </g>
                        <g transform="matrix(1,0,0,1,0.175727,0.226972)">
                            <path d="M461.297,609.209C454.788,611.781 449.23,614.997 445.945,619.751C442.573,623.432 441.623,627.808 442.542,632.721C444.31,637.928 447.873,641.341 452.924,643.267C460.863,645.702 472.054,646.24 479.386,644.974L486.524,651.253L481.058,652.182C476.996,652.022 472.976,652.171 469.126,653.579C466.876,655.101 465.879,656.738 466.395,658.514L470.226,663.291C474.978,664.68 479.768,665.49 484.602,665.6L519.382,631.614L514.978,616.893C510.925,613.838 505.548,612.118 499.695,610.877C486.217,611.284 473.521,610.582 461.297,609.209Z" style="fill:rgb(98,104,174);fill-opacity:0.6;"/>
                        </g>
                        <g transform="matrix(1,0,0,1,0.175727,0.226972)">
                            <path d="M512.211,558.855L475.849,602.639L476.171,702.97L471.164,708.087C471.164,708.087 470.321,716.804 472.037,722.837C472.846,725.681 470.783,730.07 470.783,730.07" style="fill:none;stroke:black;stroke-width:2.25px;"/>
                        </g>
                        <g transform="matrix(1,0,0,1,0.175727,0.226972)">
                            <path d="M497.475,538.465L505.483,547.198L511.881,558.448L536.53,553.021L542.362,534.343L518.209,541.15L497.475,538.465Z" style="fill:rgb(88,97,172);"/>
                            <path d="M518.141,540.233L542.116,533.47C542.437,533.379 542.781,533.472 543.013,533.711C543.245,533.949 543.328,534.296 543.229,534.614L537.38,553.286C537.285,553.591 537.033,553.822 536.721,553.891C536.721,553.891 534.209,554.436 534.209,554.436L512.053,559.229C511.711,559.304 511.359,559.148 511.186,558.844L504.886,547.629L497.374,539.347L497.361,539.345L497.365,539.337L496.983,538.916L496.821,538.916C496.569,538.71 496.516,538.407 496.687,538.158C496.859,537.91 497.219,537.768 497.589,537.804L497.589,537.586L518.141,540.233ZM540.999,535.67L518.453,542.018C518.336,542.051 518.214,542.06 518.093,542.044L499.453,539.618L506.023,546.704C506.06,546.744 506.092,546.789 506.119,546.837L512.28,557.54L533.83,552.711L535.833,552.264L540.999,535.67Z"/>
                        </g>
                    </g>
                    <g transform="matrix(1,0,0,1,0.175727,0.226972)">
                        <path d="M432.688,685.664L431.227,678.54C431.227,678.54 400.585,611.132 404.511,604.68C408.386,598.311 426.901,590.904 426.901,590.904L411.173,579.323L429.68,558.281L439.458,566.471L440.675,583.779C427.706,595.099 429.233,623.963 437.984,661.573L432.688,685.664Z" style="fill:rgb(79,83,140);stroke:black;stroke-width:2.25px;"/>
                    </g>
                </g>
            </g>
        </g>
        <g transform="matrix(1,0,0,1,-0.409711,1.46695)">
            <g transform="matrix(1,0,0,1,0.585438,-1.23998)">
                <path d="M470.256,238.514C406.836,252.183 394.18,290.868 394.18,290.868C386.614,326.338 387.502,348.301 394.18,387.991C394.18,387.991 367.956,433.609 396.704,476.184C429.184,524.286 492.537,540.804 517.306,542.134C541.39,536.069 541.207,535.463 541.372,536.148C548.26,526.46 559.683,512.582 580.574,513.95C587.444,504.178 588.197,498.344 604.916,504.238C603.925,503.178 610.119,477.813 636.128,483.62C646.484,472.612 659.831,446.031 663.395,416.165C663.395,416.165 670.555,427.996 683.351,427.093C696.148,426.191 729.848,416.067 738.543,376.81C747.893,334.6 715.105,318.473 712.098,322.391C718.318,280.265 690.505,258.685 671.814,238.514C655.811,225 636.288,229.75 630.214,230.089C624.14,230.428 596.574,230.089 596.574,230.089C596.574,230.089 496.921,232.767 470.256,238.514Z" style="fill:rgb(142,212,240);stroke:black;stroke-width:2.5px;"/>
            </g>
            <g>
                <path d="M601.762,323.579C601.895,323.636 602.026,323.697 602.167,323.729C602.663,323.842 603.1,323.742 603.595,323.86C604.014,323.961 604.395,324.174 604.793,324.341C606.386,325.008 607.947,325.741 609.481,326.541C611.801,327.75 614.065,329.069 616.141,330.656C617.591,331.764 618.994,332.958 620.191,334.345C621.388,335.731 622.324,337.286 623.242,338.907C623.424,339.153 623.371,339.501 623.125,339.682C622.879,339.864 622.532,339.812 622.35,339.566C621.127,338.273 619.78,337.198 618.474,336.035C617.31,334.998 616.182,333.936 614.989,332.943C614.189,332.277 613.393,331.608 612.571,330.969C609.796,328.815 606.808,326.963 603.78,325.189C603.55,325.053 603.309,324.938 603.099,324.772C602.713,324.466 602.518,324.08 602.123,323.788C601.972,323.677 601.793,323.612 601.628,323.525L601.695,323.551L601.762,323.579ZM601.348,323.399C600.894,323.199 600.444,323.015 599.998,322.845L600.267,322.949C600.625,323.089 600.985,323.239 601.348,323.399ZM599.711,322.738C599.449,322.641 599.188,322.55 598.928,322.462L598.661,322.374C598.265,322.246 597.87,322.127 597.474,322.016L597.33,321.976C596.795,321.828 596.259,321.695 595.718,321.571L595.311,321.48C595.004,321.413 594.695,321.348 594.384,321.286C593.177,321.044 591.932,320.832 590.61,320.607C591.932,320.832 593.177,321.044 594.384,321.286C594.695,321.348 595.004,321.413 595.311,321.48L595.718,321.571C596.259,321.695 596.795,321.828 597.33,321.976L597.474,322.016C597.87,322.127 598.265,322.246 598.661,322.374L598.928,322.462C599.188,322.55 599.449,322.641 599.711,322.738Z" style="fill:rgb(128,143,205);"/>
                <g transform="matrix(1,0,0,1,0.175727,0.226972)">
                    <path d="M535.811,353.663L539.03,357.458L560.378,346.323C560.378,346.323 549.657,344.963 545.577,347.695C541.498,350.426 535.514,354.131 535.811,353.663Z" style="fill:rgb(128,143,205);"/>
                </g>
                <g transform="matrix(1,0,0,1,0.175727,0.226972)">
                    <path d="M425.392,318.513C425.392,318.513 443.485,331.999 449.306,341.416C467.246,333.402 425.392,318.513 425.392,318.513Z" style="fill:rgb(128,143,205);"/>
                </g>
                <path d="M658.946,417.701C656.83,422.434 625.588,487.008 626.762,480.591C626.924,479.709 638.044,481.119 638.044,481.119C653.132,456.773 660.556,436.294 658.946,417.701Z" style="fill:rgb(161,175,240);"/>
                <path d="M726.616,400.242C721.247,412.132 691.778,427.121 681.64,424.961C659.407,420.224 666.085,414.808 666.599,393.539C666.811,384.772 669.062,386.028 669.062,386.028C669.062,386.028 679.779,367.424 689.36,368.244C698.371,369.015 701.479,377.447 698.948,382.215C696.418,386.983 691.35,393.941 690.59,395.116C689.831,396.291 686.752,394.538 693.405,394.195C700.058,393.852 728.84,395.317 726.616,400.242Z" style="fill:rgb(128,143,205);"/>
                <path d="M698.533,386.763C698.86,386.147 728.666,391.835 729.825,392.826C730.944,393.783 731.432,390.532 731.432,390.532C731.432,390.532 700.559,385.248 699.983,385.385C699.382,385.528 698.533,386.763 698.533,386.763Z" style="fill:rgb(128,143,205);"/>
                <path d="M573.677,419.055C573.023,420.94 573.592,423.965 575.246,424.993C578.773,427.184 631.541,422.636 633.338,422.82C635.135,423.004 632.549,418.66 632.196,416.616C631.007,409.746 629.637,411.827 627.791,410.496C625.944,409.164 616.359,409.887 615.437,410.496C614.515,411.104 609.142,413.4 606.585,414.84C603.813,416.401 592.736,417.73 588.268,417.953C583.8,418.176 574.331,417.169 573.677,419.055Z" style="fill:rgb(128,143,205);"/>
                <path d="M463.069,408.466C464.907,408.106 466.785,407.992 468.673,407.983C471.606,407.969 474.564,408.21 477.447,408.259C481.531,408.317 486.108,408.609 490.753,409.109C493.932,409.451 497.137,409.925 500.25,410.453C501.044,410.587 501.831,410.724 502.614,410.847C504.238,411.102 505.815,411.35 507.357,411.617C508.451,411.805 509.501,411.96 510.537,412.171C510.732,412.236 510.945,412.131 511.01,411.936C511.076,411.74 510.971,411.528 510.775,411.462C509.766,410.978 508.743,410.505 507.648,410.072C506.604,409.66 505.534,409.285 504.42,408.946C503.346,408.618 502.244,408.336 501.121,408.081C500.023,407.831 498.904,407.627 497.778,407.434C490.86,406.247 483.619,405.731 477.482,405.643C474.58,405.615 471.602,405.392 468.65,405.43C466.603,405.456 464.569,405.606 462.578,406.014C461.902,406.15 461.462,406.809 461.598,407.485C461.733,408.162 462.392,408.601 463.069,408.466Z" style="fill:rgb(128,143,205);"/>
                <path d="M463.188,413.565C466.998,413.102 471.003,412.947 475.006,412.978C479.029,413.01 483.051,413.232 486.871,413.613C488.012,413.696 489.426,413.717 490.888,413.636C491.354,413.61 491.818,413.564 492.285,413.517C492.998,413.445 493.686,413.367 494.36,413.295C495.203,413.206 495.957,413.105 496.656,413.103C496.859,413.138 497.053,413.002 497.088,412.799C497.123,412.596 496.987,412.402 496.784,412.367C496.089,412.115 495.312,411.898 494.432,411.723C493.92,411.621 493.397,411.547 492.853,411.479C492.074,411.382 491.287,411.299 490.509,411.249C489.277,411.17 488.097,411.161 487.132,411.038C483.234,410.635 479.129,410.365 475.022,410.348C470.904,410.33 466.786,410.566 462.872,411.085C462.188,411.172 461.703,411.799 461.79,412.483C461.877,413.168 462.503,413.652 463.188,413.565Z" style="fill:rgb(128,143,205);"/>
                <path d="M397.828,410.576C400.211,410.587 402.598,410.794 404.977,411.105C408.582,411.576 412.17,412.296 415.693,413.048C417.396,413.387 419.018,413.806 420.65,414.103C421.383,414.236 422.113,414.358 422.854,414.417C423.853,414.496 424.839,414.507 425.862,414.424C426.533,414.369 427.168,414.26 427.852,414.129C428.059,414.13 428.227,413.964 428.228,413.758C428.23,413.551 428.063,413.383 427.857,413.382C427.244,413.255 426.688,413.096 426.102,412.945C425.711,412.845 425.336,412.751 424.952,412.647C424.566,412.543 424.198,412.423 423.815,412.32C423.242,412.165 422.677,412.01 422.104,411.867C420.185,411.388 418.26,410.925 416.239,410.465C412.643,409.712 408.983,408.976 405.302,408.527C402.813,408.224 400.314,408.054 397.823,408.076C397.133,408.077 396.574,408.638 396.576,409.328C396.577,410.018 397.138,410.577 397.828,410.576Z" style="fill:rgb(128,143,205);"/>
                <path d="M402.205,391.4C398.396,390.259 395.574,401.129 397.208,403.681C398.841,406.233 402.162,406.26 406.495,406.756C410.828,407.251 431.492,410.209 431.904,410.444C432.315,410.678 435.387,406.923 434.632,406.756C432.944,406.381 420.687,403.493 413.075,396.693C411.333,395.137 405.763,392.467 402.205,391.4Z" style="fill:rgb(128,143,205);"/>
                <path d="M581.119,430.498C583.403,430.333 586.858,430.167 590.424,430.022C596.552,429.773 603.006,429.587 604.406,429.581C607.907,429.565 615.661,429.283 622.048,429.299C625.018,429.306 627.688,429.377 629.472,429.574C630.158,429.649 630.776,429.154 630.851,428.468C630.927,427.783 630.432,427.164 629.746,427.089C627.898,426.885 625.132,426.807 622.055,426.799C615.661,426.783 607.899,427.065 604.395,427.081C602.985,427.087 596.49,427.274 590.322,427.524C586.727,427.67 583.242,427.838 580.939,428.004C580.251,428.054 579.733,428.653 579.782,429.341C579.832,430.029 580.431,430.548 581.119,430.498Z" style="fill:rgb(128,143,205);"/>
                <path d="M428.288,343.928L455.53,364.888C455.53,364.888 444.644,344.833 428.288,343.928Z" style="fill:rgb(128,143,205);"/>
                <g transform="matrix(1,0,0,1,-0.284579,-0.422242)">
                    <path d="M531.499,338.159C533.5,338.971 532.076,344.371 534.117,343.491C537.11,342.199 565.061,321.595 563.94,320.828C561.182,318.941 528.151,336.799 531.499,338.159Z" style="fill:rgb(128,143,205);"/>
                </g>
                <g>
                    <path d="M664.022,415.64C664.475,404.927 665.167,396.626 666.481,385.999C667.058,381.337 668.001,374.005 669.017,369.402" style="fill:none;stroke:black;stroke-width:2.5px;"/>
                    <path d="M667.211,388.091C669.202,385.436 671.224,382.779 673.317,380.186C674.707,378.465 676.129,376.771 677.596,375.127C678.863,373.706 680.301,372.17 681.907,370.92C682.924,370.129 684.009,369.454 685.164,369.016C688.468,367.759 692.376,368.466 695.284,370.44C698.111,372.359 700.002,375.515 699.335,379.343C698.93,381.824 697.734,384.134 696.298,386.368C694.991,388.4 693.478,390.357 691.975,392.229C690.894,393.574 689.864,394.883 688.901,396.126C688.761,396.278 688.771,396.514 688.923,396.654C689.075,396.793 689.312,396.783 689.451,396.631C690.608,395.565 691.872,394.478 693.131,393.296C694.218,392.276 695.288,391.203 696.304,390.076C696.99,389.315 697.644,388.529 698.243,387.712C700.031,385.274 701.347,382.606 701.884,379.794C702.77,374.857 700.418,370.733 696.775,368.25C693.175,365.796 688.317,364.989 684.225,366.551C682.832,367.085 681.518,367.894 680.294,368.855C678.567,370.21 677.015,371.865 675.654,373.404C674.168,375.087 672.727,376.82 671.32,378.582C669.221,381.211 667.198,383.906 665.206,386.597C664.794,387.151 664.908,387.934 665.462,388.346C666.015,388.759 666.799,388.644 667.211,388.091Z"/>
                    <path d="M677.455,376.482C677.668,379.34 678.155,381.641 677.754,384.307C677.559,385.596 677.14,386.97 676.385,388.562C675.986,389.404 675.506,390.311 674.902,391.287C674.722,391.606 674.513,391.902 674.298,392.197C674.143,392.409 674,392.621 673.845,392.835C673.567,393.218 673.308,393.582 673.036,393.972C672.72,394.424 672.464,394.843 672.178,395.308C672.027,395.448 672.018,395.685 672.158,395.836C672.299,395.987 672.536,395.996 672.687,395.855C673.165,395.607 673.614,395.419 674.093,395.161C674.574,394.901 675.011,394.622 675.451,394.303C675.694,394.126 675.915,393.932 676.131,393.725C676.469,393.403 676.753,393.034 677.028,392.655C677.729,391.604 678.305,390.632 678.76,389.712C679.682,387.849 680.148,386.212 680.364,384.689C680.772,381.817 680.228,379.345 679.946,376.275C679.889,375.587 679.284,375.076 678.597,375.133C677.909,375.19 677.398,375.795 677.455,376.482Z"/>
                </g>
            </g>
            <path d="M546.007,471.358L543.899,496.743L608.018,494.448C612.886,484.875 622.25,480.519 636.73,482.1C644.014,474.004 649.476,464.961 653.545,454.558C653.545,454.558 646.346,457.836 632.391,461.497C622.309,464.142 608.699,466.986 591.731,468.938C578.504,470.46 563.236,471.439 546.007,471.358ZM399.312,474.453C399.312,474.453 407.381,489.857 414.257,494.448C458.972,477.283 551.939,430.535 568.865,420.481C581.028,413.256 588.23,405.863 588.23,405.863C588.23,405.863 537.432,357.436 537.809,357.949C538.365,358.704 492.409,322.438 474.75,311.937C456.897,301.322 416.976,273.107 416.976,273.107L396.456,284.185L396.456,288.437C396.456,288.437 449.618,324.722 488.674,353.176C505.643,365.538 521.034,377.168 526.759,382.148C537.369,391.378 548.746,403.959 548.746,403.959C548.746,403.959 532.476,411.987 517.399,419.775C507.53,424.873 399.312,474.453 399.312,474.453Z" style="fill:rgb(239,239,239);stroke:black;stroke-width:2.5px;"/>
            <g>
                <path d="M390.436,328.83C398.98,323.078 453.35,360.845 454.522,366.151C455.479,374.839 455.367,383.347 454.522,391.732C454.522,391.732 452.352,408.65 439.85,406.821C427.347,404.992 414.759,400.583 406.028,387.178C396.818,373.037 395.094,370.164 392.44,360.674C389.708,350.9 390.436,328.83 390.436,328.83Z" style="fill:rgb(239,239,239);stroke:black;stroke-width:2.5px;"/>
                <path d="M404.439,339.942L422.31,351.986C422.31,351.986 418.243,373.415 421.427,384.189C424.593,394.898 428.743,402.584 435.308,405.219C441.873,407.854 445.978,405.94 448.137,403.82C450.295,401.699 454.203,399.643 454.794,388.755C455.386,377.867 454.794,365.942 454.794,365.942C446.83,357.806 436.788,350.295 425.293,343.22C416.746,337.742 407.442,333.059 397.639,328.898C397.639,328.898 391.52,326.473 391.101,328.898C387.387,350.394 394.231,367.827 407.024,388.755C398.603,365.351 400.207,337.29 404.439,339.942ZM440.329,370.541C444.091,370.541 447.145,375.032 447.145,380.564C447.145,386.096 444.091,390.587 440.329,390.587C436.567,390.587 433.513,386.096 433.513,380.564C433.513,375.032 436.567,370.541 440.329,370.541Z"/>
                <path d="M397.047,327.589C392.524,327.105 411.67,318.13 417.358,318.358C423.047,318.585 443.465,325.211 447.65,346.502C433.249,342.921 431.857,343.005 426.228,342.079C420.721,341.173 407.126,328.666 397.047,327.589Z" style="fill:rgb(121,168,208);"/>
                <g transform="matrix(1,0,0,1,-0.236711,0.470106)">
                    <path d="M437.962,345.32C439.74,346.487 441.437,347.751 443.037,349.008C444.777,350.374 446.384,351.747 447.768,353.074C450.289,355.488 452.094,357.687 452.485,359.309C452.611,359.838 453.143,360.166 453.672,360.04C454.202,359.913 454.529,359.381 454.403,358.852C453.966,356.995 452.063,354.348 449.157,351.611C447.711,350.25 446.022,348.849 444.163,347.511C442.469,346.293 440.629,345.139 438.736,344.057C438.387,343.843 437.931,343.953 437.717,344.301C437.503,344.65 437.613,345.107 437.962,345.32Z"/>
                </g>
                <path d="M407.275,308.362C407.275,308.362 433.715,319.131 455.724,336.201C465.303,329.259 411.495,303.241 407.275,308.362Z"/>
                <path d="M425.137,321.021C425.732,321.09 426.944,321.359 428.527,322.058C429.215,322.362 429.96,322.747 430.752,323.208C432.877,324.444 435.327,326.205 437.784,328.541C439.13,329.822 440.477,331.277 441.756,332.928C442.591,334.007 443.404,335.164 444.151,336.419C444.851,337.594 445.495,338.85 446.077,340.184C446.73,341.678 447.29,343.266 447.771,344.951C448.428,347.247 448.89,349.706 449.185,352.35C449.308,353.028 449.96,353.479 450.638,353.356C451.317,353.233 451.768,352.581 451.645,351.903C450.964,349.217 450.108,346.759 449.137,344.468C448.434,342.813 447.673,341.265 446.878,339.794C446.173,338.491 445.441,337.259 444.696,336.084C443.902,334.833 443.1,333.646 442.273,332.535C441.005,330.831 439.699,329.298 438.393,327.931C435.987,325.41 433.578,323.476 431.513,322.022C430.728,321.47 429.994,320.996 429.333,320.567C427.631,319.462 426.347,318.804 425.681,318.581C425.008,318.431 424.339,318.856 424.189,319.529C424.039,320.202 424.464,320.871 425.137,321.021Z"/>
                <path d="M643.52,339.794C650.742,343.32 639.499,341.091 639.341,346.034C638.244,380.212 610.915,413.117 610.915,413.117C610.915,413.117 545.784,430.881 534.104,402.695C518.605,365.292 534.484,359.416 555.901,349.732C574.381,341.375 636.58,336.406 643.52,339.794Z" style="fill:rgb(239,239,239);stroke:black;stroke-width:2.5px;"/>
                <path d="M538.203,346.662C536.234,350.282 544.691,345.758 561.546,346.591C574.457,342.635 601.598,338.581 616.045,338.39C616.833,323.705 560.9,304.936 538.203,346.662Z" style="fill:rgb(121,168,208);"/>
                <path d="M531.897,396.998C531.897,396.998 530.79,382.09 531.897,378.436C534.542,369.703 571.232,354.704 575.864,358.258C575.864,358.258 570.079,367.675 568.045,382.221C565.515,400.312 584.077,419.392 586.762,416.72C586.724,417.656 610.77,413.218 611.16,412.466C611.327,412.144 637.292,379.855 639.622,344.652L645.872,341.861L643.12,339.563C643.12,339.563 597.834,337.002 564.543,347.265C531.253,357.529 526.732,369.123 527.765,378.67C528.797,388.218 531.897,396.998 531.897,396.998ZM600.162,372.37C604.943,372.545 608.636,377.824 608.404,384.151C608.172,390.477 604.102,395.472 599.322,395.296C594.541,395.121 590.848,389.842 591.08,383.516C591.311,377.189 595.381,372.195 600.162,372.37Z" style="stroke:black;stroke-opacity:0;stroke-width:2.5px;"/>
                <path d="M527.57,332.334L527.394,339.15C526.947,338.37 561.312,313.992 601.659,308.285C591.097,303.621 565.046,311.73 546.523,320.92C538.955,324.674 531.161,329.334 527.57,332.334Z"/>
                <path d="M530.733,359.325C533.91,357.037 536.955,354.674 540.022,352.348C541.446,351.268 542.88,350.204 544.328,349.148C544.944,348.698 545.572,348.265 546.178,347.797C546.685,347.405 547.17,346.999 547.66,346.581C548.034,346.262 548.381,345.944 548.742,345.608C549.11,345.265 549.433,344.929 549.801,344.58C550.007,344.46 550.077,344.196 549.957,343.99C549.837,343.784 549.572,343.714 549.366,343.834C548.754,344.028 548.185,344.197 547.589,344.424C547.002,344.648 546.448,344.891 545.888,345.167C545.445,345.386 545.019,345.626 544.597,345.879C543.966,346.258 543.362,346.675 542.757,347.089C540.881,348.378 539.07,349.744 537.27,351.128C534.613,353.171 531.998,355.279 529.259,357.306C528.702,357.712 528.58,358.495 528.986,359.052C529.393,359.61 530.176,359.732 530.733,359.325Z"/>
                <path d="M536.237,356.799C536.902,351.316 538.874,346.073 542.287,341.178C544.128,338.539 546.392,336.009 549.09,333.58C550.718,332.115 552.494,330.676 554.449,329.293C556.034,328.101 557.715,327.189 559.45,326.386C562.15,325.137 564.96,324.158 567.817,323.06C568.601,322.768 569.388,322.468 570.195,322.203C570.726,322.029 571.258,321.846 571.807,321.719C572.72,321.508 573.647,321.405 574.583,321.294C576.102,321.114 577.601,321.063 579.126,321.022C579.449,321.014 579.767,321.022 580.088,320.999C580.406,320.976 580.721,320.93 581.036,320.89C584.228,320.486 587.409,320.33 590.566,320.955C590.862,321.034 591.166,320.858 591.245,320.563C591.324,320.267 591.148,319.963 590.853,319.884C587.771,318.835 584.567,318.405 581.317,318.474C580.843,318.484 580.367,318.489 579.896,318.555C579.693,318.583 579.497,318.634 579.298,318.68C577.195,319.17 575.186,319.885 573.147,320.607C572.646,320.784 572.151,320.967 571.644,321.121C571.102,321.286 570.551,321.415 570.006,321.557C569.177,321.771 568.353,321.968 567.539,322.185C564.527,322.953 561.56,323.555 558.707,324.547C556.747,325.229 554.864,326.111 553.045,327.263C550.972,328.664 549.069,330.112 547.349,331.624C544.457,334.166 542.064,336.866 540.12,339.672C536.468,344.942 534.421,350.611 533.754,356.508C533.674,357.193 534.165,357.814 534.85,357.895C535.535,357.975 536.157,357.484 536.237,356.799Z"/>
            </g>
            <g>
                <path d="M597.181,229.441C597.181,229.441 591.059,234.818 587.549,238.314C584.599,241.252 581.876,244.393 578.862,247.275L578.873,247.613C565.126,260.627 551.465,272.171 536.193,282.679C531.524,285.891 526.153,289.834 520.984,292.241C511.661,297.563 499.566,303.078 489.36,306.415C485.161,307.788 480.82,308.66 476.518,309.634C470.898,310.906 467.565,311.412 461.874,310.971C458.342,310.697 455.21,309.477 451.851,307.997C440.672,302.545 432.754,294.67 424.185,285.791C423.398,284.976 422.615,284.159 421.836,283.343C419.812,281.443 415.32,276.815 415.32,276.815C415.32,276.815 410.905,276.832 409.929,277.552C390.988,284.718 374.397,299.987 371.276,320.938C370.512,326.065 370.666,332.427 371.388,337.488C372.146,342.794 374.766,346.844 377.759,351.457C381.432,357.119 386.055,361.345 391.479,365.026C393.115,366.261 398.381,378.667 395.469,388.635C392.288,399.523 384.641,410.506 383.897,424.204C382.733,445.606 391.329,466.595 403.691,482.984C408.302,489.096 412.903,494.928 418.666,500.005C424.484,505.131 431.17,508.485 437.35,513.019C449.542,519.904 462.306,527.1 475.301,532.433C482.477,535.379 491.18,536.604 497.951,540.276C500.998,542.182 503.232,543.338 504.433,546.261C504.783,547.112 502.822,546.843 501.117,553.191C500.273,556.335 499.602,558.514 498.486,561.605C497.613,564.024 496.476,565.979 495.237,567.733C489.895,575.297 487.293,572.903 485.808,575.332C480.696,583.695 480.856,585.257 474.337,590.652C468.718,595.302 466.89,596.315 460.058,598.884C462.545,595.115 466.149,591.314 467.37,586.907C468.594,582.49 468.167,578.407 467.279,573.97C466.629,570.725 465.707,567.53 463.582,564.93C459.611,560.072 453.642,556.922 447.771,555.094C442.835,553.719 437.949,551.927 432.876,551.111C424.633,549.785 416.251,549.866 408.015,548.712C403.826,548.125 399.792,546.905 395.757,545.674C388.91,543.585 378.461,540.216 380.786,530.878C381.378,528.502 383.878,523.992 385.131,521.961C383.512,523.89 381.278,525.791 378.833,527.475C377.664,528.28 376.446,529.036 375.225,529.721C373.085,530.922 370.932,531.906 369.007,532.561C366.347,533.466 363.163,533.935 360.378,534.175C355.344,534.608 350.467,534.776 345.388,534.245C341.886,533.879 338.933,533.091 335.674,531.784C334.586,531.347 332.658,530.92 331.857,529.925C331.657,529.678 331.548,528.357 331.523,527.991C333.93,528.091 335.991,527.568 338.311,527.095C342.375,526.267 346.93,524.977 350.495,522.815C352.651,521.508 354.51,519.752 356.241,517.937C361.068,512.878 365.813,508.144 367.585,501.399C367.585,501.399 368.846,488.072 367.387,482.756C366.309,478.826 360.449,466.03 359.271,463.826C354.349,455.452 351.522,447.354 345.197,439.921C342.475,436.721 339.346,433.863 336.537,430.737C330.402,423.909 324.472,416.856 318.552,409.838C315.073,405.714 311.106,401.841 308.155,397.287C303.501,390.104 301.279,380.887 301.607,372.348L301.611,372.225C303.773,360.383 308.581,349.24 317.025,340.453C321.051,336.264 331.373,329.43 331.373,329.43C328.042,326.401 323.503,320.252 320.774,316.64C317.376,312.141 314.43,307.021 312.621,301.727C310.951,297.682 310.024,290.751 310.453,285.247C312.182,263.099 315.844,255.054 326.322,242.1C333.505,233.219 341.284,225.011 350.172,217.2C359.179,209.285 376.059,196.676 392.081,190.064C387.348,176.227 398.739,169.519 407.577,163.631C423.438,153.064 449.999,142.073 474.322,136.179C484.484,133.716 513.583,129.027 523.696,128.936C530.414,128.875 537.42,128.752 543.946,128.658C548.897,128.587 574.717,129.133 582.718,131.138C589.105,132.827 591.314,133.599 595.332,134.725C605.06,137.453 613.383,142.205 621.232,148.706C625.216,152.005 628.887,155.133 632.238,159.046C637.38,165.984 642.097,170.861 644.645,178.382C646.975,185.257 647.571,189.497 647.752,193.568C647.849,195.738 647.928,199.185 647.52,201.323C645.15,213.729 641.484,224.34 629.511,229.148C626.615,229.101 623.193,229.208 620.294,229.22C612.589,229.252 604.89,229.651 597.181,229.441ZM582.718,255.167C582.718,255.167 611.417,229.073 650.276,232.252C676.306,234.382 670.218,234.438 692.129,257.411C699.436,265.073 706.437,279.773 709.024,285.331C714.79,297.718 712.824,320.081 712.824,320.081C712.824,320.081 694.658,319.281 683.739,330.937C667.252,348.537 661.387,358.09 661.387,358.09C661.387,358.09 664.912,316.241 661.387,304.466C657.862,292.69 582.718,255.167 582.718,255.167ZM554.259,252.641C533.277,272.879 516.81,284.001 492.167,292.798C468.327,301.308 446.85,291.866 436.904,280.193C448.218,285.384 452.083,285.529 460.114,285.61C468.14,285.691 475.809,285.586 483.623,283.834C520.644,275.537 536.673,268.153 554.259,252.641Z" style="fill:rgb(126,79,150);stroke:black;stroke-width:2.5px;"/>
                <g transform="matrix(1,0,0,1,0.175727,0.226972)">
                    <path d="M468.753,593.16C476.958,578.61 483.006,555.432 466.932,538.182C460.928,531.738 436.46,519.319 425.255,506.43C425.255,506.43 463.106,529.458 473.732,533.018C484.051,536.474 498.861,540.987 498.213,541.689C499.117,541.619 503.456,545.167 503.041,545.918C502.293,547.269 500.43,550.135 499.14,555.418C497.125,563.666 491.181,574.987 485.274,572.702C481.504,580.85 477.362,587.707 468.753,593.16Z" style="fill:rgb(109,63,134);"/>
                </g>
                <g transform="matrix(1,0,0,1,0.175727,0.226972)">
                    <path d="M485.436,576.093C485.436,576.093 486.015,572.079 486.191,568.196C486.282,566.186 486.271,564.218 486.019,562.843C485.981,562.561 485.721,562.363 485.439,562.401C485.157,562.439 484.958,562.699 484.996,562.981C485.112,564.303 484.942,566.164 484.678,568.057C484.154,571.819 483.226,575.671 483.226,575.671C483.109,576.281 483.51,576.871 484.12,576.987C484.73,577.104 485.32,576.703 485.436,576.093Z"/>
                </g>
                <g transform="matrix(1,0,0,1,0.175727,0.226972)">
                    <path d="M341.981,532.248C350.462,533.553 364.374,535.012 376.138,527.24C379.179,525.231 381.628,523.336 384.547,521.01C392.839,514.405 400.47,506.151 401.646,496.119C383.809,513.337 368.049,528.857 341.981,532.248Z" style="fill:rgb(109,63,134);"/>
                </g>
                <g transform="matrix(1,0,0,1,-0.0142746,0.433592)">
                    <path d="M628.382,228.66C642.047,224.825 655.644,226.228 668.628,233.934C668.628,233.934 679.027,231.382 678.776,203.859C678.627,187.502 675.668,179.991 662.93,171.249C650.193,162.507 632.238,159.046 632.238,159.046C632.238,159.046 644.222,171.928 646.717,185.356C649.099,198.171 647.3,204.898 644.635,212.729C640.405,225.159 628.382,228.66 628.382,228.66Z" style="fill:rgb(121,75,140);stroke:black;stroke-width:2.5px;"/>
                </g>
                <path d="M391.893,365.173C388.618,351.666 387.763,337.374 389.384,322.66C390.106,309.548 393.599,289.854 396.191,286.091C381.578,293.783 372.344,310.236 371.883,326.938C371.485,341.331 374.164,349.461 391.893,365.173ZM568.094,243.142C565.262,245.504 558.126,246.076 553.194,251.836C530.837,277.944 465.065,289.755 442.943,282.309C442.037,282.004 431.175,275.313 431.175,275.313C501.977,272.65 530.396,266.65 563.015,239.284L565.074,240.218C565.074,240.218 573.676,238.485 568.094,243.142ZM677.273,194.855C677.666,201.213 659.367,216.097 642.989,212.438C633.001,210.206 601.102,220.705 597.126,228.676C597.126,228.676 629.6,228.385 633.581,227.157C645.105,223.603 669.319,231.133 668.136,234.626C679.064,224.157 677.936,209.202 677.273,194.855ZM393.814,190.799C393.814,190.799 411.078,183.861 419.116,181.595L418.576,177.132C418.576,177.132 401.506,179.495 392.882,182.807C392.833,185.091 393.193,187.808 393.814,190.799ZM434.653,176.615L434.595,180.718C431.802,180.55 428.779,180.525 425.485,180.669C425.821,180.497 425.231,176.536 425.231,176.536C425.553,176.013 432.794,175.942 434.653,176.615Z" style="fill:rgb(97,51,122);stroke:rgb(97,51,122);stroke-opacity:0;stroke-width:2.5px;"/>
                <path d="M362.679,310.438C368.74,290.562 378.955,281.576 385.393,276.842C391.686,272.215 404.897,267.354 412.008,265.344C420.537,262.934 437.926,262.286 443.294,263.381C455.986,265.968 472.741,268.307 492.689,267.607C511.158,266.958 530.075,261.106 546.436,250.476C561.773,240.511 574.992,230.117 580.298,228.182C588.114,225.33 606.253,219.791 609.4,223.593C610.863,225.361 613.464,227.957 613.726,228.126C614.44,228.589 615.379,227.401 615.905,225.596C616.492,223.583 616.567,220.801 615.246,218.684C611.984,213.457 605.772,212.315 599.801,212.341C592.088,213.222 582.837,215.198 575.774,218.43C572.452,219.95 569.605,220.602 566.413,222.275C563.132,223.996 559.902,226.835 556.756,228.908C553.131,231.297 550.071,234.377 546.749,237.152C543.287,240.044 539.562,242.52 535.978,245.241C533.042,246.673 529.285,247.938 526.204,248.986C517.203,252.048 508.377,254.127 498.956,255.445C495.654,255.907 492.43,256.749 489.104,257.07C482.995,257.659 475.836,257.734 469.745,257.006C461.057,255.35 452.233,254.379 443.672,252.1C433.106,249.286 422.132,244.967 411.035,245.434C403.452,245.754 395.845,248.761 388.953,251.689C382.74,254.328 377.871,257.234 371.453,261.822L366.48,265.121C361.093,269.094 356.187,273.962 351.61,278.66C349.012,281.328 345.96,284.813 343.665,287.768C341.723,290.269 340.272,293.155 338.764,295.926C335.417,302.078 333.868,307.903 335.308,314.978C336.848,322.546 342.818,330.225 347.752,335.76C354.051,344.123 358.638,353.462 362.931,363.367C365.657,369.654 363.528,369.446 362.369,371.2C357.717,378.244 356.522,378.003 353.514,383.529C351.363,387.478 349.159,394.95 348.636,399.475C348.002,404.967 350.024,410.215 352.123,415.158C354.055,419.708 356.285,424.082 359.289,428.026C362.072,431.905 365.341,436.933 368.314,440.663C371.156,444.226 373.943,447.875 376.88,451.358C379.837,454.865 383.077,458.313 385.44,462.267C386.601,464.212 387.243,466.502 388.033,468.619C391.466,477.82 392.25,487.734 386.979,496.488C385.652,498.312 384.365,500.369 383.001,502.379C381.352,504.81 379.59,507.173 377.508,508.976C372.29,513.494 363.931,516.092 363.931,516.092C363.931,516.092 351.261,525.824 347.488,528.989C362.276,528.018 374.139,519.723 384.314,509.458C388.752,504.98 392.79,500.607 395.306,494.75C396.944,490.936 397.76,487.201 398.5,483.13C398.834,481.294 399.432,479.15 399.227,477.268L399.42,477.241C395.538,471.353 392.077,465.355 389.274,458.881C387.717,455.285 386.987,451.343 385.107,447.89C381.953,442.097 376.745,437.757 373.571,431.992C370.881,427.105 368.368,421.155 367.719,415.597C366.585,405.875 370.135,397.425 373.878,390.35C379.671,379.401 381.425,373.874 379.109,368.522C377.294,364.329 374.092,360.451 371.498,356.803C369.714,354.294 359.264,336.607 360.682,327.453C360.592,322.479 361.235,315.172 362.679,310.438ZM617.691,227.547L623.528,227.736C623.528,227.736 632.99,217.473 633.256,213C633.522,208.527 633.682,195.156 632.131,191.086C630.58,187.016 625.063,172.666 620.536,167.509C616.009,162.352 606.426,151.554 596.373,146.825C586.32,142.096 575.848,138.34 566.958,135.948C561.26,134.416 525.041,130.704 513.951,131.3C504.1,131.829 469.779,138.172 461.224,142.063C461.224,142.063 485.034,141.347 488.305,141.42C491.576,141.493 519.835,141.337 521.902,141.68C523.969,142.023 523.977,138.924 521.546,138.581C518.393,138.136 501.131,137.632 502.181,136.796C502.181,136.796 500.036,135.9 502.667,135.871C505.298,135.841 534.99,136.114 540.729,137.292C546.468,138.47 563.65,140.358 569.9,142.215C576.15,144.071 591.732,149.601 599.667,155.908C607.601,162.215 616.942,168.341 623.173,183.59C628.217,195.935 627.708,197.028 627.785,202.907C627.877,209.824 627.545,211.091 626.341,215.722C625.137,220.353 617.691,227.547 617.691,227.547ZM640.484,223.333C640.484,223.333 645.392,223.612 647.603,223.333C654.395,222.476 675.72,206.11 675.472,194.428C675.248,183.897 671.669,182.678 671.669,182.678C671.669,182.678 671.112,190.34 670.772,193.503C670.386,197.097 659.12,210.974 658.778,210.629C658.778,210.629 661.056,197.655 659.866,192.462C658.676,187.269 651.482,166.536 648.695,165.362C645.908,164.187 635.36,161.374 635.36,161.374C635.36,161.374 645.549,173.699 646.989,181.926C648.429,190.152 649.189,200.853 648.177,204.721C647.315,208.016 645.019,217.924 640.484,223.333Z" style="fill:rgb(194,77,174);stroke:rgb(97,51,122);stroke-opacity:0;stroke-width:2.5px;"/>
            </g>
        </g>
    </g>
</svg>
