<?xml version="1.0" encoding="UTF-8" standalone="no"?>
<!-- Generator: Adobe Illustrator 21.0.0, SVG Export Plug-In . SVG Version: 6.00 Build 0)  -->

<svg
   xmlns:dc="http://purl.org/dc/elements/1.1/"
   xmlns:cc="http://creativecommons.org/ns#"
   xmlns:rdf="http://www.w3.org/1999/02/22-rdf-syntax-ns#"
   xmlns:svg="http://www.w3.org/2000/svg"
   xmlns="http://www.w3.org/2000/svg"
   xmlns:sodipodi="http://sodipodi.sourceforge.net/DTD/sodipodi-0.dtd"
   xmlns:inkscape="http://www.inkscape.org/namespaces/inkscape"
   version="1.1"
   id="Layer_1"
   x="0px"
   y="0px"
   width="60.00016"
   height="45.0005"
   viewBox="0 0 60.000161 45.000499"
   enable-background="new 0 0 128 128"
   xml:space="preserve"
   sodipodi:docname="ps_black_64.svg"
   inkscape:version="0.92.2 (5c3e80d, 2017-08-06)"><metadata
     id="metadata3787"><rdf:RDF><cc:Work
         rdf:about=""><dc:format>image/svg+xml</dc:format><dc:type
           rdf:resource="http://purl.org/dc/dcmitype/StillImage" /><dc:title></dc:title></cc:Work></rdf:RDF></metadata><defs
     id="defs3785" /><sodipodi:namedview
     pagecolor="#ffffff"
     bordercolor="#666666"
     borderopacity="1"
     objecttolerance="10"
     gridtolerance="10"
     guidetolerance="10"
     inkscape:pageopacity="0"
     inkscape:pageshadow="2"
     inkscape:window-width="1920"
     inkscape:window-height="895"
     id="namedview3783"
     showgrid="false"
     inkscape:zoom="5.671875"
     inkscape:cx="26.295103"
     inkscape:cy="22.500751"
     inkscape:window-x="-8"
     inkscape:window-y="-8"
     inkscape:window-maximized="1"
     inkscape:current-layer="Layer_1" /><g
     id="g3746"
     transform="translate(-34.002418,-41.50025)"><line
       x1="0"
       y1="128"
       x2="0"
       y2="0"
       id="line3744"
       style="fill:none" /></g><line
     x1="-34.002419"
     y1="86.499748"
     x2="-34.002419"
     y2="-41.500252"
     id="line3748"
     style="clip-rule:evenodd;opacity:0;fill:#00ff18;fill-rule:evenodd" /><linearGradient
     id="SVGID_1_"
     gradientUnits="userSpaceOnUse"
     x1="95.266701"
     y1="91.9263"
     x2="26.700001"
     y2="30.68"
     gradientTransform="matrix(0.5,0,0,0.5,-2.0011686,-9.5)"><stop
       offset="0"
       style="stop-color:#A9C8FF"
       id="stop3750" /><stop
       offset="1"
       style="stop-color:#C7E6FF"
       id="stop3752" /></linearGradient><path
     d="m 2.5153314,45 c -0.8165,0 -1.52300003,-0.319 -1.98900003,-0.899 -0.476,-0.5925 -0.6395,-1.407 -0.448,-2.235 L 9.0713314,2.9105 C 9.4483314,1.2785 11.029831,0 12.673331,0 H 57.48483 c 0.817,0 1.5235,0.319 1.989,0.899 0.476,0.592 0.6395,1.407 0.448,2.235 l -8.993,38.9555 c -0.3765,1.632 -1.958499,2.911 -3.601499,2.911 H 2.5153314 Z"
     id="path3755"
     inkscape:connector-curvature="0"
     style="clip-rule:evenodd;opacity:0.8;fill:url(#SVGID_1_);fill-rule:evenodd;stroke-width:0.5" /><g
     id="g3772"
     transform="matrix(0.5,0,0,0.5,-2.0011686,-9.5)"><g
       id="g3770"><linearGradient
         id="SVGID_2_"
         gradientUnits="userSpaceOnUse"
         x1="26.5854"
         y1="30.7778"
         x2="93.585403"
         y2="90.277802"><stop
           offset="0"
           style="stop-color:#2D4664"
           id="stop3757" /><stop
           offset="0.1689"
           style="stop-color:#29405B"
           id="stop3759" /><stop
           offset="0.4445"
           style="stop-color:#1E2F43"
           id="stop3761" /><stop
           offset="0.7902"
           style="stop-color:#0C131B"
           id="stop3763" /><stop
           offset="1"
           style="stop-color:#000000"
           id="stop3765" /></linearGradient><path
         d="M 118.5,20 H 29.634 c -2.769,0 -5.53,2.259 -6.168,5.045 L 5.632,102.955 C 4.995,105.742 6.722,108 9.491,108 h 88.865 c 2.769,0 5.53,-2.258 6.168,-5.045 L 122.358,25.044 C 122.996,22.259 121.268,20 118.5,20 Z"
         id="path3768"
         inkscape:connector-curvature="0"
         style="clip-rule:evenodd;fill:url(#SVGID_2_);fill-rule:evenodd" /></g></g><path
     d="m 30.081331,34.279 h 10.8065 c 1.2565,0 2.275,1.0625 2.275,2.373 0,1.3105 -1.0185,2.3735 -2.275,2.3735 h -10.8065 c -1.2565,0 -2.275,-1.0625 -2.275,-2.3735 0,-1.3105 1.0185,-2.373 2.275,-2.373 z"
     id="path3774"
     inkscape:connector-curvature="0"
     style="clip-rule:evenodd;fill:#2c5591;fill-rule:evenodd;stroke-width:0.5" /><path
     d="m 37.090831,23.7275 c -0.186,0.3745 -0.572,0.7875 -1.2545,1.267 l -20.0565,14.4045 c -1.095,0.7955 -2.667,0.5005 -3.5105,-0.6595 -0.8435,-1.16 -0.64,-2.745 0.455,-3.541 l 18.0865,-13.097 v -0.269 l -11.364,-12.089 c -0.927,-0.986 -0.8305,-2.5805 0.2155,-3.562 1.046,-0.981 2.645,-0.977 3.572,0.009 l 13.6355,14.506 c 0.774,0.8235 0.8315,2.0705 0.221,3.031 z"
     id="path3776"
     inkscape:connector-curvature="0"
     style="clip-rule:evenodd;fill:#2c5591;fill-rule:evenodd;stroke-width:0.5" /><path
     d="m 36.590831,23.2275 c -0.186,0.3745 -0.572,0.7875 -1.2545,1.267 l -20.0565,14.4045 c -1.095,0.7955 -2.667,0.5005 -3.5105,-0.6595 -0.8435,-1.16 -0.64,-2.745 0.455,-3.541 l 18.0865,-13.097 v -0.269 l -11.364,-12.089 c -0.927,-0.986 -0.8305,-2.5805 0.2155,-3.562 1.046,-0.981 2.645,-0.977 3.572,0.009 l 13.6355,14.506 c 0.774,0.8235 0.8315,2.0705 0.221,3.031 z"
     id="path3778"
     inkscape:connector-curvature="0"
     style="clip-rule:evenodd;fill:#ffffff;fill-rule:evenodd;stroke-width:0.5" /><path
     d="m 29.773831,34 h 10.8065 c 1.2565,0 2.275,1.0075 2.275,2.25 0,1.2425 -1.0185,2.25 -2.275,2.25 h -10.8065 c -1.2565,0 -2.275,-1.0075 -2.275,-2.25 0,-1.2425 1.0185,-2.25 2.275,-2.25 z"
     id="path3780"
     inkscape:connector-curvature="0"
     style="clip-rule:evenodd;fill:#ffffff;fill-rule:evenodd;stroke-width:0.5" /></svg>