<svg xmlns="http://www.w3.org/2000/svg" xmlns:xlink="http://www.w3.org/1999/xlink" id="Layer_1" width="128" height="128" x="0" y="0" enable-background="new 0 0 128 128" version="1.1" viewBox="0 0 128 128" xml:space="preserve"><g><line x1="0" x2="0" y1="128" y2="0" fill="none"/></g><line x1="0" x2="0" y1="128" y2="0" fill="#00FF18" fill-rule="evenodd" clip-rule="evenodd" opacity="0"/><linearGradient id="SVGID_1_" x1="95.267" x2="26.7" y1="91.926" y2="30.68" gradientUnits="userSpaceOnUse"><stop offset="0" style="stop-color:#a9c8ff"/><stop offset="1" style="stop-color:#c7e6ff"/></linearGradient><path fill="url(#SVGID_1_)" fill-rule="evenodd" d="M9.033,109c-1.633,0-3.046-0.638-3.978-1.798	c-0.952-1.185-1.279-2.814-0.896-4.47l17.986-77.911C22.899,21.557,26.062,19,29.349,19h89.623c1.634,0,3.047,0.638,3.978,1.798	c0.952,1.184,1.279,2.814,0.896,4.47l-17.986,77.911c-0.753,3.264-3.917,5.822-7.203,5.822H9.033z" clip-rule="evenodd" opacity=".8"/><g><g><linearGradient id="SVGID_2_" x1="26.585" x2="93.585" y1="30.778" y2="90.278" gradientUnits="userSpaceOnUse"><stop offset="0" style="stop-color:#2d4664"/><stop offset=".169" style="stop-color:#29405b"/><stop offset=".445" style="stop-color:#1e2f43"/><stop offset=".79" style="stop-color:#0c131b"/><stop offset="1" style="stop-color:#000"/></linearGradient><path fill="url(#SVGID_2_)" fill-rule="evenodd" d="M118.5,20H29.634c-2.769,0-5.53,2.259-6.168,5.045 L5.632,102.955C4.995,105.742,6.722,108,9.491,108h88.865c2.769,0,5.53-2.258,6.168-5.045l17.834-77.911 C122.996,22.259,121.268,20,118.5,20z" clip-rule="evenodd"/></g></g><path fill="#2C5591" fill-rule="evenodd" d="M64.165,87.558h21.613c2.513,0,4.55,2.125,4.55,4.746	c0,2.621-2.037,4.747-4.55,4.747H64.165c-2.513,0-4.55-2.125-4.55-4.747C59.615,89.683,61.652,87.558,64.165,87.558z" clip-rule="evenodd"/><path fill="#2C5591" fill-rule="evenodd" d="M78.184,66.455c-0.372,0.749-1.144,1.575-2.509,2.534	L35.562,97.798c-2.19,1.591-5.334,1.001-7.021-1.319c-1.687-2.32-1.28-5.49,0.91-7.082l36.173-26.194v-0.538L42.896,38.487	c-1.854-1.972-1.661-5.161,0.431-7.124c2.092-1.962,5.29-1.954,7.144,0.018l27.271,29.012C79.29,62.04,79.405,64.534,78.184,66.455z" clip-rule="evenodd"/><path fill="#FFF" fill-rule="evenodd" d="M77.184,65.455c-0.372,0.749-1.144,1.575-2.509,2.534	L34.562,96.798c-2.19,1.591-5.334,1.001-7.021-1.319c-1.687-2.32-1.28-5.49,0.91-7.082l36.173-26.194v-0.538L41.896,37.487	c-1.854-1.972-1.661-5.161,0.431-7.124c2.092-1.962,5.29-1.954,7.144,0.018l27.271,29.012C78.29,61.04,78.405,63.534,77.184,65.455z" clip-rule="evenodd"/><path fill="#FFF" fill-rule="evenodd" d="M63.55,87h21.613c2.513,0,4.55,2.015,4.55,4.5	c0,2.485-2.037,4.5-4.55,4.5H63.55C61.037,96,59,93.985,59,91.5C59,89.015,61.037,87,63.55,87z" clip-rule="evenodd"/></svg>