<svg xmlns="http://www.w3.org/2000/svg" xmlns:svg="http://www.w3.org/2000/svg" id="Layer_1" width="60" height="45.001" x="0" y="0" enable-background="new 0 0 128 128" version="1.1" viewBox="0 0 60 45" xml:space="preserve"><metadata id="metadata3787"/><g id="g3746" transform="translate(-34.002418,-41.50025)"><line id="line3744" x1="0" x2="0" y1="128" y2="0" style="fill:none"/></g><line id="line3748" x1="-34.002" x2="-34.002" y1="86.5" y2="-41.5" style="clip-rule:evenodd;opacity:0;fill:#00ff18;fill-rule:evenodd"/><linearGradient id="SVGID_1_" x1="95.267" x2="26.7" y1="91.926" y2="30.68" gradientTransform="matrix(0.5,0,0,0.5,-2.0011686,-9.5)" gradientUnits="userSpaceOnUse"><stop style="stop-color:#a9c8ff" id="stop3750" offset="0"/><stop style="stop-color:#c7e6ff" id="stop3752" offset="1"/></linearGradient><path id="path3755" d="m 2.5153314,45 c -0.8165,0 -1.52300003,-0.319 -1.98900003,-0.899 -0.476,-0.5925 -0.6395,-1.407 -0.448,-2.235 L 9.0713314,2.9105 C 9.4483314,1.2785 11.029831,0 12.673331,0 H 57.48483 c 0.817,0 1.5235,0.319 1.989,0.899 0.476,0.592 0.6395,1.407 0.448,2.235 l -8.993,38.9555 c -0.3765,1.632 -1.958499,2.911 -3.601499,2.911 H 2.5153314 Z" style="clip-rule:evenodd;opacity:.8;fill:url(#SVGID_1_);fill-rule:evenodd;stroke-width:.5"/><g id="g3772" transform="matrix(0.5,0,0,0.5,-2.0011686,-9.5)"><g id="g3770"><linearGradient id="SVGID_2_" x1="26.585" x2="93.585" y1="30.778" y2="90.278" gradientUnits="userSpaceOnUse"><stop style="stop-color:#2d4664" id="stop3757" offset="0"/><stop style="stop-color:#29405b" id="stop3759" offset=".169"/><stop style="stop-color:#1e2f43" id="stop3761" offset=".445"/><stop style="stop-color:#0c131b" id="stop3763" offset=".79"/><stop style="stop-color:#000" id="stop3765" offset="1"/></linearGradient><path id="path3768" d="M 118.5,20 H 29.634 c -2.769,0 -5.53,2.259 -6.168,5.045 L 5.632,102.955 C 4.995,105.742 6.722,108 9.491,108 h 88.865 c 2.769,0 5.53,-2.258 6.168,-5.045 L 122.358,25.044 C 122.996,22.259 121.268,20 118.5,20 Z" style="clip-rule:evenodd;fill:url(#SVGID_2_);fill-rule:evenodd"/></g></g><path id="path3774" d="m 30.081331,34.279 h 10.8065 c 1.2565,0 2.275,1.0625 2.275,2.373 0,1.3105 -1.0185,2.3735 -2.275,2.3735 h -10.8065 c -1.2565,0 -2.275,-1.0625 -2.275,-2.3735 0,-1.3105 1.0185,-2.373 2.275,-2.373 z" style="clip-rule:evenodd;fill:#2c5591;fill-rule:evenodd;stroke-width:.5"/><path id="path3776" d="m 37.090831,23.7275 c -0.186,0.3745 -0.572,0.7875 -1.2545,1.267 l -20.0565,14.4045 c -1.095,0.7955 -2.667,0.5005 -3.5105,-0.6595 -0.8435,-1.16 -0.64,-2.745 0.455,-3.541 l 18.0865,-13.097 v -0.269 l -11.364,-12.089 c -0.927,-0.986 -0.8305,-2.5805 0.2155,-3.562 1.046,-0.981 2.645,-0.977 3.572,0.009 l 13.6355,14.506 c 0.774,0.8235 0.8315,2.0705 0.221,3.031 z" style="clip-rule:evenodd;fill:#2c5591;fill-rule:evenodd;stroke-width:.5"/><path id="path3778" d="m 36.590831,23.2275 c -0.186,0.3745 -0.572,0.7875 -1.2545,1.267 l -20.0565,14.4045 c -1.095,0.7955 -2.667,0.5005 -3.5105,-0.6595 -0.8435,-1.16 -0.64,-2.745 0.455,-3.541 l 18.0865,-13.097 v -0.269 l -11.364,-12.089 c -0.927,-0.986 -0.8305,-2.5805 0.2155,-3.562 1.046,-0.981 2.645,-0.977 3.572,0.009 l 13.6355,14.506 c 0.774,0.8235 0.8315,2.0705 0.221,3.031 z" style="clip-rule:evenodd;fill:#fff;fill-rule:evenodd;stroke-width:.5"/><path id="path3780" d="m 29.773831,34 h 10.8065 c 1.2565,0 2.275,1.0075 2.275,2.25 0,1.2425 -1.0185,2.25 -2.275,2.25 h -10.8065 c -1.2565,0 -2.275,-1.0075 -2.275,-2.25 0,-1.2425 1.0185,-2.25 2.275,-2.25 z" style="clip-rule:evenodd;fill:#fff;fill-rule:evenodd;stroke-width:.5"/></svg>